<mxfile host="app.diagrams.net" agent="Mozilla/5.0 (Macintosh; Intel Mac OS X 10_15_7) AppleWebKit/537.36 (KHTML, like Gecko) Chrome/138.0.0.0 Safari/537.36" version="27.2.0">
  <diagram name="第 1 页" id="otelCqhLblqi449d20zW">
    <mxGraphModel dx="2395" dy="1745" grid="0" gridSize="10" guides="1" tooltips="1" connect="1" arrows="1" fold="1" page="1" pageScale="1" pageWidth="1170" pageHeight="1170" math="0" shadow="0">
      <root>
        <mxCell id="0" />
        <mxCell id="1" parent="0" />
        <mxCell id="Uki38D9uEgve1m1uZz5Z-2" value="" style="shape=image;verticalLabelPosition=bottom;labelBackgroundColor=default;verticalAlign=top;aspect=fixed;imageAspect=0;image=data:image/jpeg,/9j/4AAQSkZJRgABAQAAAQABAAD/2wBDAAgFBgcGBQgHBgcJCAgJDBMMDAsLDBgREg4THBgdHRsYGxofIywlHyEqIRobJjQnKi4vMTIxHiU2OjYwOiwwMTD/2wBDAQgJCQwKDBcMDBcwIBsgMDAwMDAwMDAwMDAwMDAwMDAwMDAwMDAwMDAwMDAwMDAwMDAwMDAwMDAwMDAwMDAwMDD/wAARCAR3BHcDASIAAhEBAxEB/8QAHwAAAQUBAQEBAQEAAAAAAAAAAAECAwQFBgcICQoL/8QAtRAAAgEDAwIEAwUFBAQAAAF9AQIDAAQRBRIhMUEGE1FhByJxFDKBkaEII0KxwRVS0fAkM2JyggkKFhcYGRolJicoKSo0NTY3ODk6Q0RFRkdISUpTVFVWV1hZWmNkZWZnaGlqc3R1dnd4eXqDhIWGh4iJipKTlJWWl5iZmqKjpKWmp6ipqrKztLW2t7i5usLDxMXGx8jJytLT1NXW19jZ2uHi4+Tl5ufo6erx8vP09fb3+Pn6/8QAHwEAAwEBAQEBAQEBAQAAAAAAAAECAwQFBgcICQoL/8QAtREAAgECBAQDBAcFBAQAAQJ3AAECAxEEBSExBhJBUQdhcRMiMoEIFEKRobHBCSMzUvAVYnLRChYkNOEl8RcYGRomJygpKjU2Nzg5OkNERUZHSElKU1RVVldYWVpjZGVmZ2hpanN0dXZ3eHl6goOEhYaHiImKkpOUlZaXmJmaoqOkpaanqKmqsrO0tba3uLm6wsPExcbHyMnK0tPU1dbX2Nna4uPk5ebn6Onq8vP09fb3+Pn6/9oADAMBAAIRAxEAPwDsbtLiXUFkgl8tG6571PqWjWOqwbJyPNAwDjnNLeadbSKjNK0axY+bf1p81pE0kU0M7bUHPzdTXBc6ilofhqLRpWlefew7GnXFrfzX6yQzIik5OfSp7xPtyCGO5EWTljnmnPZqI41F1tKcEnvRcB+raPZ6rC5upUEu3A+tZmh+GF0m8+1yTKxIwBntWnPaf6bCVlyiDJ4+9SX1s95gQzqig9aAK8095DqRSJF8hugzUWt+HYdUj86ORYph196vTWm1lQXQyqjnHWnyo4uItko2YAbjrQBi+HfD1xpt2Z7p02heMd60JJrkaqfKw0ZHNWrn7RcOqRsFAOF461HLa3KsjR3Cq4OCNtTYZU1vw5HqkPmwlI5yepqHw34eOkTNNdtG0n8Nas9vcLdxv5w8vHzDHemaj9ouSqwsMg9cdqLAVZbu5j1E+VHujkP3qi13w6NYHmxnZMBx71oy2lwgiZCM/wAVS+VcRyRkH5CeTTGctofhm+tLwy3pChOg9a2Jbp4Z9jJvU9u1X9SkmmylqDI2cZJqtcxTQRRsyZbvRclmFr2jC6Bntj8+ORWLp+n3H2qNTCV2tkmuuuLtoyiCH5n64qRwREXjTLY6UAJczi2jRpAWBGMVj+KLCS8tfOiUHaMha24ZvNsw0sBLL2NRzyqqp+7zu7UAeerBcTOsZiZWzjGOK7yxc2GnxCcDAGDVho4hDvMA3DnpzSCaKez3TREhT92gZneIrQ6jp6yRfMByFrjJIZFXHlMsmcZxXof2iNbbekeFHamRwW86iUQjOe4oAg0dWi0yJpWKMi9a04Ljcqkyblb+IVCDFNayB1KxrkMKihNuln+7ysSdCaANEjJ+Vs+9Gz2OfWqNvNtUMmXjPercdxFKMI+T6UEko4pwNRinA1QD6KM0UAFFFFABRRRQAxqYy1LRtqgK5WkxUxWmlaAIjTTUpWmlaYhgpaXbRigAxRilxRigQUUUfhQAlFO4oqQG0U7FGKAG0uKcBS7aYyMCnAU8LTgtMBgFPApQtOApgJRRRQAUUUUAFFFFSSBpppSaQ0rljWOaYVyaU8UE4qbgJtpk0uxKiu7nYnyH5qoPM6aXJOf9YoJ9qlssveU0vzt92nkSImzcy56V5u+tXsjtKkzD0A6V3Hhu8uNS0ndLywH36lMTdixZi6jLiabzMk7cVdgSXZ+/bHPGarafbG0hdpW3MM9a5HWddv5Ll0gmKKrYGK1MjsI4po7vzTISp7UQi5W93ZBiOfkzWT4Z1yW8QWsy5bHWtG3tpYNQMkspK9lquYCVRK92QZNseelLewTsoEJwA351i+JNTlgmEFvwCc7qraVrN2twiStvjJxTuM6O6W5MUaxKFJPJptxJceWsUSZYHk1HqUVzIYzDKVHXFM1TUG02yWQgmQii4F9kcWwCR4PeoJllMQwOa5m01+9+075GzGT92umnllnijli+VT1FVzE2C5eXykWIneKsr5n2fYR87DrWfqN6bOEzYycVzo1++M/mK/y+lZyZR18UE8MDtLcBm7U6wiuHjd5ZB7VDYTnU7HKkIx71LaRS2kEolk3Ac0rjJIVliBZ/nJ6VG8Fxc3KNI21BXMaj4gu3n8u2+VVNaehaxNeH7Pcj5uxouBryxOl4vlPhO4pJIJGnY7/kHaoYoJ47svLJ8nYVkeItba1c28Gd571TY7G7dRTXMQVHCUj2rRwIkMgDDqa5XSdYvBcqkpLhuK6i6tJZxGY5So6mpuFiS7jl+zIiyfMepoAZLcIpBb1rN1u8fTIC2d7dq5uPVb4yCUyHB5x6UCOvgtJIGeaWXOR0qZNxti46npVTR5jfW+ZTzVu6kWztSynIXtVANtVmhR5Hfk9M0yS1lnlV5Jtq9cVyl/q15eXH7pysYPStbw7qDTuYbtix7GgDWaHNwmJsqD0qw0I83cGyFqvJbIlxuRjjrWTreryWzmGI4J9KANi5Ms4Kwvt7ZqC4gkW1Ee/5z1NYWk6tPFcgXLblauh1G3kuoUkt22g8mkgFjt5GtApl2kcZpYMW8ZRHyx71V1W5XT9PDMSzYrlV1K9eQyh8IOgqmB2EFi0U5uJJSd3apbWAm4eRZOPSq2i3P9oWeMneo5p9lFJbSSyTOSD0pXAljtwkrySy5UdFqG5t3nkASbYg5xXM6vql1NcNFAxUKeTV/wAOX8kr+RdEluxouBrXEDsyIk4AHarFxaFliUSbR3NVbvTWNyJBKdo7CqPiDUprWNIoup4zRcDXuU/dCCBtx9aiFtJFakNLlq5aw1O8iulMr5UnFdXewPPZAwOVZhk0XAZZQTJDIJJgWzwKWHfC58x/mbpUcYaz09mlfLqM1zNxq93LLuXO0HimB05t7l7oTSS/KOgqMRXD3eVnG3PIpui3jahbHzGwy0RWcsN40rTEqe1AFye2czJslyq9qZeiSZSsJ2t0JrH1zV3hkEdsx3+tUtO1q8W4VLj59xpiN5reVLXykkG89SalW2l+xgCYeaO1PvYjNAhQ7WYZ4qnqFybCzD53OKALMKyxR4lbc57U1EuFm3OwUVyr6xetL5gb5c9K6jTZPt9hkMQ+O9ADooJ3vM+b8p6ikltrgXACn92DTLGKeB5DPJj0NZOr65NG7wW5O4fxUAbd6LiaLyoW24qGSG4S2CBwJDxmsTQ9auGuhBcclu9bupWs0ir5EuG6mgB5S6isgd4MnTNJaRSxx7pyC7VBd3ZtLUF3yVHNc7Prd6ZTJGcovagDqFS7mm5YKi9qRIrlrvKOBH3pmi3R1Sz3K3luBzTLO2uIbiV55sp2FAFqa3ne5BL/ALsUy7WWSIpExI9axNV1udWMNuefWk0TV52n+z3TA7qANiZZ1t1TOXqdkuRZghxvx0qlqdvc+YhtpDjPJqxfXiWdojO2WA5HrTEFrHNChknfJ9KVY5pZxLI2FHSuavtfu5J1aFcJ6V0OnTnUrDzEfY4HIoAfF9pkvcImF/vGluGumvCqIDGOrVW00XaXMhuJN0Y6AVS1TXmhldLcHcvUUAbF1cyxRhbeNi/Q1A8swswJImMnWs7RNbkvLgRSrtk7Vd1NtQjIMCbiaAJ9PnneF28kxgdj3qS3dxmSXI9qVbo29iHnB3YrAvfE3kuqrEWQnk0Ab5vvRCKKhs3+1wLIiY3AGigCTQJP7Q0ZTdszKcDdUmrq9ppL+Q+QoOKkjgTT9PNpbfdTAyT3p2nW8s9t5d6w2kHr0Nc5seexXV4s3nC5ctnOO1dzpUg1PSs3HyOeA9UNS8GrPIGsZ8IT8yitOK0GmaGbWNt8kYyOO9AWG6o81hpu9WMjoNua4VdSvxK0hunALY2V3unF72zaO9hJ3dRWDqXg+4MgaykBQnOPSmBuaTvvNIRp3wx/io1Ay2dmZI3LsgyDRb2stjpkcDnLqMmrEEV1NaMl0qMj9PpTEcRF4i1Q3Ilkcqiv90V2kIk1PTI3SYwuxzuNc1qfg+csz2c2CTwDXQxrJp2hxRzANMnWpuMbrN7dafpxYOJSgxn1NclH4l1NCrM+Ax5HtXYRp/a2nNBNGFLH5WrmrrwhqQnMcYV0Hei4HUafJLqenpKr+UxHr1p2pXE2n2DNIzMVFJZ2503SxCeZUGSaG3ahbPCwJLr1NIGcnF4tvBL/AKpRH6966y1u/wC09KE0Ev70D7lcVqHhvVLO6eNITIjDINdVotvLY6NmaIqwGeOtBLLBlMNr595GqtGK5/8A4S9PNcpbHYOjetbyzR6tZSQKvJGDmuIv9PubC5MLx/u+1UB2dnqkd/p5mhXDjqtPhkWWASSx7Cp6VleFYpYLaRnj4J4rSMyTxSRRkK49aAM648U29vePA8JKDvWnBd291YtPbpuGM4ridYgkS+IlX8fWt7weBb2su8Mcn8KBmzaSR3EHmGAqF+8DVG88RafaTGFVJA9O1aDFXt5UgY5I6Vwd/D5Nw4ZTljzmgDubC+tL61ZrfuPmFMtfIu43jVSApwQaw/BiBRKdpx2NdDG0OWSEgOaYFefVtN08rbSMB7elPsfsM2+4s5ASfvVxOs2ki30r3IJYn5aueFHkTUdgBEZHzLUCOxtL6G5keONvnTqKtjmqhtYo5HktwoYgb8da5jUPEF9pWrMpX9z6VSYjswCKcDWZpOvWmqRjDBJe4NaJBBqgHUUUVQCGgUGgUgHUUUUwCjFFFADCtNK1LSUCItlIVqbFIRQBDto21Lto20CIttG2pttG2gCHYaUJUuKXFMCHZRsqXHtRj2oAaFpwWlpaBCYpQKKKYBRRRTGNNFBopDCiiipAWmk0UhqWA3PNLR8uKrz3Sx/Lld3oSBUlJExfZ/d/GsXV7i5uZPItF8tO7rSztdXE67WCxjtirUltMIf3ePM/3aTLSK0MMtpZLsG9s/xdKlubdriwZfutICMDpU7m4FsifL5n0xVhC4jQMq574osK5wv/AAi95HlCvysa63TLFtM08Rxt2rSK5H3qYzMqetWkJkEJmntW81SM1yd7oN29074JUniuugnlVG3DPpToWbaWkXknjNUZmP4f0gWTeY3+tatVJZZJ2jccDvUKfaVvSzL+6PSrMbyC52snyHvQBz2u6dNLchoRuxUNlpNwZVLDZg5rozJJLcFFj+T1pZQ6uBGM8807AJLK0Lojru4xms3xJaz3Vuqx84rSneTepVdwHWllnYkJGnXrmiwHJ2OkXIlXzVAGa6iWR7aJEwGHtU8gdEVwgIzTbh8SJiLdntUoqxDqNmb2y2rjkZxXPQ6JeGQgJ8vSupv5mhVSkRy3YVNG7QwB2U7mHShokr2FsdM08CTrUqq91bsVGA3rUV1cymPcYiSe1SWMs72bEwkY6ClYZzFzod4t4SiblJ7Vs6Ho5tt01wMP2FalpNIsbSSrh+wNMtRPcTuZOI6LAQxTSSzSR+WTjoawtZ0W6uLvzAvBrpYlnSST5Bs7GmwySyuWmGFWqaHcxNH8PzpKr3OFVea2Li5mEwjgj3IOM1JJcTNLhV/dCo7eSX7TwNqN3qbBcpa5psl7b5Q4PoayrTw5d+YjSj933rpJDO92Rj92venXM0zRbIMnFAiN40srRYrdfmH61H89zEY3j259ac5mEaELuepLh3RFVOZD1qgObn0G5Eu2AcE1t6TpcFgm6c5kxV7z3jUYGXIqoiXBmZ5BkdaAHxXBuJXj24Ud6wNV0y6N+ZETehret5JSrsIcY7+tSWDyM++6XAHQUAYmn6HI11HJMuADnFbF9J5M6oFODwAKLya5lmURJhfUVFM8i3aZiZh0zSQFTX7GW6tdqKR3xWRaaNdSKIym0Dqa6aWeQ3AiEbHPU+lPup2gtysI3SVTAisLZNNtSE5JHNNllkmtisf3jSPLOLPdJHh+4pyySR2okSL5z0FKwHMSaXefaXZEJLGtnQdJe3dp7o4bsK1rd2RPOmXDEdKgje4llZnX5e1FgGRXzT3bxCM/LxmsnXrC4mnVlUuo5xW3bs6l9sWD3NOhleWX51wBRYDmrDSJ5LmNp0KLnPNdBfTfZ2WNQTkYqSaSZ7gbBlFqu7zeeuIt4J60WAi1GKWe2+UfeFYSaTd7tiLwa6ebzvMVET6iiSZ1jKxx/PTAisLEadYsXXLEZ4pkMklwM7CCOlStJdG3LNHuIHSi2uJzAT5ABoAwL7SbmW6LgZzVjStCkWYTXOdoPStu1aQZklwB2FRma6llOExHTER3V55VysSRlh0FVNatZbi3AVSCatx+d9qIEOfc06aaeSURJHn1oA5aHTLuRvLEZCg9a6iCNbDT1wP3g6gVLLLJbqBEgZu9RyyycOY9zH+GgAV3u7diEIPvXMXOn3jXLny8Z6V1kk8sMassfzH+EU22LswmuBgHtQBj6Lo5SUTXSEFelasl0TcBPKJA4yKZ50s07DayoO1LBNMJSBCcDvQBn67aSzLiNDg1lDRrliqqhAPBro5LiaacRCMgHvU0tx9mi8uNCznvQBBaW40jTz/Ge+KSMvdWxkUEZ9aSeWXYm9SS3UVNNK8EA2x/Ke1AHMXGnzrcs5Tdmrui6O7XP2maPaFrdtwxAeVPoKYj3LzsdmyMdvWgCKW9UXHkkEj2rN8QwSyhTHGWQ1qwhzK8jQjA6Gk3TSyBSny0xHLDTriYCOOMhj3NdPptsulab++5fvU8riNSsaZf1FQ3EzMiB0yO4oAQTefEzwAg4NcncRObh2eNt2etdiZIreIHyyqnvSRQwzASSpgfw+9AHO+HtNlOo/aGBVB0NdNPdQ+f5TONwHHvQLqJcxxpjb29apQx2lxeF3J80dqAK+vTsLRl2qBjiuVkVimB1PpXb3X2ed/KZN+BxUZ0+ygAZ419s0AP0iMpo0TJ8r9w1FOuHiEYy2xO1FAF62igkleZbgOCOi4psNjAty+y5dWYZxXE+GZpoNRhRJiyk4KluK7p7aOW63/MkqjBA71zmrIbaN7NXDzmTe3G7tUlpaZd5ZLjfv6DjiuX8YXN4l7GkZaOEDOag8L6pcxakkUzGSN+5YUFI7KCzMU0mLrduHC+lJpyTwxuJ5MuxOM0fZFW6eaHOT1Gelcz4p1K5huUgiynq2aBnULZzyvJJJMCvZfSmqlwjsDICgHBrmPDGs3IvfJuHLo/Gc11S2x84zRSZ/2TTEFhdS7GaSM7unNRIt1Jdu0qDyx93Nc/4o1a9sbjyIRgk5zUXhvXrye/EN3yp6D1pAdUrXqI7Oq8fdwakhmlMW6TIf8AixTZonX95ESUJ5BPSuc13XpbW58m3XBH3jQBuxNdzzN5kQKHgE1IlxLblkMPC9MVh6D4klu5xbTLg9jWvsvYr3BZZIW5HFBJPp15JM8jzIybOgxUElxcXMrx+Udp/WsjxD4gOnyGKJSZPpTvD3iNr2dYbgCNj0JoCxq2si226MWuxhySO9JHPDqYk8xDhePmFOlmvYtQ2BA8DD79Z+s6zHpG1FjDsxzxQFieK4SG5+zJH8vYgU0GFbllVCrdyKq6N4hg1OdopYfKfPBxVqWUwam0TWx2OPvmgLDZobW7YK0YZl70+AxRsbbCrVfU9RtdKAaRRvbsKjsNZsL+fIj2SnuaoZPYpbRSS+W+5waa9la3bbigd+9Ojlh+2NEIgpf+KntLbabGXlkAzQAtnHbW7/Z12rnsKRbOGK6eUSYcnhTUdpPp97eCSGQeYPSn3MtrHqKK5Yu3ftTuhBqFjb6gNkgXcKi03SrXT5Mrgu3TNWzbwW8rXM0uExnrVY3FhfTI0VyAwPAzUXQyV7QrqAnEu0EYC1Hqml296oE4HmHvU92Y4pIjK3zdqdLEplE8jkAc+1DEZNhoUOnTGYFeOPmrXDtGFwwINV5Z7DUcW/nDOeoNSXMVvCixSSFVHQ0IC5FMH4PBqWsyW08yZZmlZUi9fSpI9QtpZjHDcKW9Kq9hF/tTc81Ebhbb/Xvj2NTgKwDDBB5G2mmIKKMYooABThTacKAEooopgFFOoxTJEoooqQCiiigAooooAKKKKoAooooAQ0Cg0A0gDNGaQmm5obGK1N3U48imham47CrzSkUgbb1pGmQdam47CkfX8KoajqtrpyN57bmxnbVV9VuRqPlG3cRHjdWP4k0uS6YyxCRj6UN3KSIYPFU13qKoq7YmbAFbF1ZSzXMcqOdgPzCsXw74fma8WW6TaE+YV0t1eSW95HHHF5iHrRygzO17Vm0yJIrYYmcVj2XiO9gukaaQumeVra8SaP8AbVE8atuxlc1zkOjXcsqqYyBnrS5WSmdneyz3dh5lqSpkGaV5JLXSPNm+eSIZzT44xY2KAkvtGMVFfhp9MkSMMN46VQXOWTxVqBYnGUZuldbaXzajpayQriQDpXFRaTdBuIiRnFdlo1v/AGfpeHQgkZJq0AaUJkgke7fc684rC1LxHcrcGO3T5VODXQ20qzwSNEPXrXGXMMq38nmR4yTTJOt0jVBeWoDD956UlhLdSaowmGIQKo+G7KVWaZhhQOK14po5Z8KdrjrQBn61rA0z5IV3yGo9I11ruQRzqFbtWd4hUy6i5OQo6YFRaXA73kbIuQD1NLUDpL6W5SZFjUBW70zVL4abbByu58VZuJo1ZEP36yfFaySwLhelGoC6P4jF5J5M67c9M1tXHmpJEUj3g9SK47Q9Plu7mNVUgg5Ndq88Vk6Qu3OKQDNVuRAqu6/KBmsCXxOGnGIiVHGa0/EW6eyJiQtmuVEQ2bViJPeqA7dGa6sPPg+YgZwKfY3FybUm4QJioNGxY6UokyhPrTr2cvZu0Q35HWkMx7zxMsV15Kx71B5NbVtdi9tfNt1AGORXDLFmZxIvLHpXT+GrWWGKSSTcsfYUAXbO6nczI+5dvSsnVfERt5VigUMy9a2pSNrMvcVw95byLeSu69TxQI6rRtQfUo3+XawFT6cLsXRE5Xyx0qDwzGYbV3dcbhV2C8jlZkQqStAGVrmuvaSmKEbmqpo/iG4luxHKoBaqeuW8kmoFypxWh4c0Zp5xPIBGq96AOglguN8ciPx1INQaldx2bCWVgGqee6SOcQglh0zWR4gspLiMunIHY0wKtz4kPmKUQFc1t2ksl5YtNGwDbeBXIW9lPO4iVMc9cV2FrH/ZunqGYcDmgCOye4jgZrk4xWTqfiRlk8m1XIB5rVumM1i5j/iHBrjktZUmYlCWzQUddo2pfbocKAHHXNSGS5F8I2UbO5qj4c06WNjPJ8q9a1DPFKWEf31oJKWra3FYSlVUtKeKpabry3E22WPY3rWbraMb0u+Tn2pNNsZbq5XyQeOtFwOpvmuPKDRKJMnikkuzBaK04ClOSKmMgtlRH4KisjxB5ktmdoJ3enpRcCnJ4md59mzMJNb6yvPY+ba/MccCuKhiz+7WI7j0rr9KH2DSc3GVouAaW92Uc3KhSe1Z2o688DmKKMNtPNaM0m+2aWAkkjpXIMr/AGlyVYuTTA63Tr4X8IEXyuRzTYJblb7Y33FPWoPDtnLDGZZE2g1oLLG5JTBIPIoAq6pqwst5OC56VS0nXFuZwsgCsfWs7Wg8t6xkBVR0zVbS7SS41AGNTgdxTEdbqctzDAJIVD+wpILmSOyMk42kjOKmmkW2hjjds565qjrMpW0IX5lPegDPufEuJcJFlRWxY3v2y23QgYI5FcYyqzYCkk11fh61FtYmSRiM9BQBJY3Nz9rdJYtoH3TVfU9aWyZsKGkPpV95g6ExNlhXI6oG+2M0gPNAGzo2rC7l2SZBNaN40sUyAAsPWsHQLSSa6WRF2oOtdLPcK0gjDDigZHcXYh2vIBwO9Ylz4kH2rb5fyDvR4jleQBQCFHcVipE0wCxrk0AdjHMZrQzRLuIHAqKxup38xpl2YqaxT7BYL5xIz1pl1KGgdoxlWHagRR1DWorEHYN7HripdI1Zb04iA3mubuF/esGVjk9DWl4bsnF350Ssq980Aa1691Fcqqxbw3Wp72+S3RPOO0Y6VJNIHm2hxvHasDxE7PIFboO9AE8WuRzXGwlgM4BranMi22+E7+K4ZhuZVjOWz2rtLAPFYR+ceo70AJpty8sEnmKUC+tU7/XIrGMhD5jMe1TXrsltL5XcVyShS7O7ZIPIpgdXpd9FfRl1OH9DUd7eSQSJGYd249QKy/DdrI96Wj3LH710k+xiEZlJSgBkrqsUZn+QHk1nza/ZNci3Q4HTdVPxDcM+2NScY6Vzs8KgjHD9RQB3ckscUW5Y8rjJequmXdvc3LGNGJHfFWNLQ/2Wi3B3Ky96FVLOM+WFRaAFmuLaCbzZCAe1LHJBdNnhhXJ37/aLlvMcgdqm8OSyrqXkISyHrQB0F3LaINk7Lt7CipdR022uivHzL1ooAZp/ha0sbwXa3BaME7VNT6gt690j2jKFPLEmpL0iZFgEgTjp3qSSyj+xqhuCAvRg1c5oxL/S49SthHdOPM6BhWRpXhQ2F4Lh7jeqH5RxWxPZl4ovLuW+U5Jz1p84aSAQrIoOPmPpQUiC7luPtWLVQQ3XmotY0SHVLcMzbZ1HUVPLYvHAnl3Chx/F60txb3AjhEEylgQZPcUDMjSfCs9pLFcvIpCHkVq3s88N+Ps4yjDoKsXwmmi8q0bB70ya0kWBB54WUAUwKuu6GNWg3xkrNjvVDw/4YubO5W4vSv7r7vvW5Kl1G0REylD96i9e4dQkP8X3TSERXlzMl6ojXKN1Aqhrvh7+0VNxb/LKBytaTW96iRsu0ydGz2p14b6FogpB3/eIoA5jQNC1CG/V5l2IpwTXR32oGzukiZCV6ZAqe9luvs+y2IZ+1VjFeeWjzRI0vcGgDN17w8+qIbm2bnqB3rK0bRb+DVY2uIiFj6n1rrnnuICirGRv646Cn3NzOsWETzGoAgn1GOyuVR9xDdOKxPE2lT3rfa7UFgOcVrypKQsr25kf+7VhbuaMxr5Jw/UHtQFjiNEsLhtRjZoXUqea7S4nWGZFuMDcMc1PdXSQxbkgXeOuO9VJ4xOqzSxH2BoCxzvi62kkYSxoHUd6yNNJN9CQMYPzYruboW5REnQgv0FVn06ysJvN2YHXNFxFhWt9y+ZtRv4Sa5jxbbzm4DAZjAzntW9qMEE5jnDnb2xU0kcM9sEkYFSMZNAHC6c7RXkTRHac8gd67uSOKcRuUAkAHWs1NFs7aYXDMAoPBq/dwrcwq8UuFHQinZEmT4uMu2OJQQuPmxXNRIElBRtuOmK72SBZ4NkxBBGNxrMTQ4I5BIQCg9aVkMu2aC6s4ZJeWA71V8VvKmngQsUXHOK0JlVrdVgbbj0oitzLaGG4KuD3NDA85BaMrJEzh1PXNd1pmdS0pTdLyB1PWqx8ORM+7Py56CtkW8YshDbnDjihAZfih54tLKQ/Lu5OPSuEUPFiVHO9ea9Pa3aS3EUm1/4eaxJvDMDXBYAkdSBRYCzpMbavpKPcsRsHc1Hr19cabZxvbq2UJU/hWpDbrFp/kWw20yW1+0W3lXPz8YyaaAxdM8Zozol9Fj+8RyK6e3uYrmMSQMGVuR9K5CfwliYsr4i/u1u2UA06BI0+6KYrGsTSr0qJW3AH1qVOlMQYopaKYBRRRTEFFFFIAooopCCiiimAtFFFSAlFFBpgMZscU1j8tRyN81KrZOKQ0PTkUp96hln8qvPfEnjPUI7+a0tz5aJ3ziouUek/L1LcVXuLkJ9wZbtXnnhHxDdyah5N3I0iydMtnBruYbaV7kOW+UdqV7lco2L7VPIzOxA9BU6RuH5jZl965jxbr9xYXf2Ox/dr1L1L4N8Q3V5dtb3Xz8cPQD0N5RMLrmL5KkTc07fL8lRiC6/tLd5hMQzxWR4l1+bTn8mBf3jcnPpVWE2bkzSLKqwou3PJoeV1u4ysS89WrnvD3ip5pxBej73Q1tXk919ugWCNfLY8tWkdBXHXs8puFW3iGB1NTyhlgDABn9PSqmsapDpSl3AMpHC1kWPiiR3CTwgIx6+lFxHQTSP9jJKqG7il88raIxQFjxio72c/Yw1tGJAe9L5qxaf59yAu0ZxSuMlRd6htgAPUCpJXAjPGQB92ucTxaEuPLWEeV/e9K3Wu45rMTwLuGMmmMLeSL7OX2FT6AVFEkdxI0nkDP+1TdMne6gaRo/KUHoagv9fs7SZYQoYjrinzEFyCQLIYwMD2qOGZBcMqxlTjripLG5trxPOTAHeo4bqOe9eNIzhR96jmAWQW08xXYN3uKTZBBKsaJ8x7io73ULOwkzMfnqWwu7W/Yuhwe1LmAdMI0nQuMmppPKuX8pkJz7VCkqfbFjZT16mrV9cW1pl2kCnFHMAZt9PKiCIB+5qOcQ3EwaYAse4plpdWt184bdmnuEF0i4IFICaea0jQIyZwMYJpi2djHF5xhC7uaZcwQmXfIQNvPNQre21w/lrOCP7oqgJJpYriAqD+7FTWZt7ez65Q+tQzeRBGOAqCp45IGtxuVdppDGLp9hj7SUB706OdJopEQbYl9KjW+smP2cTKParERt4Y2wo2HvQBFZCKOJnYbgKWO1s7gm4eFTj1FSwvE8GI8bM81SfUrSCXyTMBz0oAnllRlKxqEVe1R2DwKHZIhuHJOKfI6+X5sShlNLYzpJEzRoo7GgB8Yjmbznj4HqKjnuN0myJNq1VvNXt7bMUkgBPYVJY3cF1EXiG4igCSMxoxcruYUiX6yTeWFIB68U6ymSVnRo9pHtVO51C2sFdmxvzxQBfuHit0/cqPM9hUMsxeAGVSwbtiqmm6zbXkmG4b3q1dzmFkO3KE8UwJGnSG2VRHtB4AIqSKG3EZllRdw5Apt1KhVWlA2KM1Qj1qzubgx5wBwKQy+s5mVgsZVAKqWaW6s8rA5q3PPshDqu6P2ptnJFJA7BMKfWmSMVbO8fb5e5h7USzW1g4jt0w7dcVXn1OysztDBXPcVLZz2tyfNBEhouAycJcyDzW6VYkngRBF5e4kYqMzQm7UIgyD0ovLu1hcy3A2MOAKLgI0FtbkSGPLEcVHdtHJEFmJCN2pbW7tryTCvnHOKLy5hWZEMRIY4FFwFiWC3hB5KHpUotLNV88oBnmn3UlukC+ZtUL1rPbVrSWcQxsCDxigC79qWWEgfKi9BUVlDFGGuAfwqWaSKG3LOgCCltJ4JrQhUG096YFWW3t7+RtyZHrS2y2dhKIYF+dutOkvbK2PkrIque9SrHAR54CluuaBFa9jjuZwshwR0Ganc2vk+TIm5sYFRQ3NvNdbQAXHWp7mazhzJIyqy0ARfYLGCHzWQA+lLLNG1ttUAJUVvcRXzHYQwHUUXUttCFjcAAmmA+2EFtCXznNRi1tr2Xd5dXn+zvbopQBcdaoSX9tC/lROuaAJ08q0BSBRmoYUjecvKMGrL+WkRZlz71HZyRTKxVckUDGTC1nJj27qVbaytApVPnokurS0DGTCsaW0mgu1LoQ9ADb1kuEVJSQnanxm2toQu0nNQT3dv9qWKRQTmrUqwthpMKgoERR2dpMfNkjxTo5okDJAvHtUEmpWvmrFG6kdMVJNJFbR+ZtAQjrQBHbxRm4abPzd+aLiG3uiVwGPenWEkNxHK8Q602W5tNPTJZQ7UAJ9jsrMKyqpkqa9ZbhEj3bM+lMi8u4CyjDd6YJYZbwRqRuXtQBK8cUEO13znsagh0e1kYyumFPNWpreKR90h2hKiN9FOwhhlGF4xTAntpIYFaK3AAFUvs/n3TSpLjHUVOwitkLc570lpLA6SNF8xNAFe5sYLnKvJ+8pkWiW1tIssrbyB0NWB9mttzyv87dKkwsu0u24UAQ6gpltwkUnljtinra/uFWaTecU24EUjqgbaB0qzPDGY0XONvegDIbQRPIzKQFzzV+ysbXTpCyAPJjg1M06EFIWOT1FQpBjLeYcnsaAGoblr53Ta0JHr3oqazh2Rt+8Z+fyooA4rVWuFuZC8j7snGTxxXXeCLh5rF1uDvReDz0qxq+jabqm1XZknPJ2dOamsrS2022NuhAJGdx71zmxNdx+RaO1qA2ckZrz65urr7VNIZyrg4wOld1pnnb2SeVQvb6VX1XwzZamzGKXy3HJx3oAj8OztqOlstzuZRwGJ6Veu0lsdMJg+fA4am6fpq6VY/Z45NxPPNP00zuJI7qRTETgL6UDOIfVNQWZmE+CDnb6V1+g3T6rp484/MOC1VNS8JpPcmSzl5Y8itGz08aXprW0bZl60AP1Rm0+yLxrv2jqK4lvEWotPmN/lz0Pau0sfPuo/KvFG3GPrWJqXg25WYy2TqUc8g9qANfS7j+2NLyzbJl4LVYuHksbEu5Dsg4PrVXSdLfSNNdHbMp5qSGR9ShaC4TaBxuoA5qXxHely6ABVP3a6TT7ybVNNMkLbJB/OsHVfC15bzE2ieYrc5rd8OWEtjp7pPnzH5x6UEkr3U1vZeZeHJTr71zX/CXXAvSdgMOeK6F2OpxvbuhU9K5O88PX1rIUSAshbrQB2Md617Yi4tpMSDtUr3zw2fnXacqKr6fH9i0iMFMMo5olKaxZGEfK+KBmGfF6i4Y+RmMHGa6Rb17jThc2oDKR92vP73TLqzuDbmAsGPUCu20OJtP0dTKG47UAWLiaIWyTXS7SoyD6VjSeJNPuJDHKSQDitK8MerafLHASrelcNPaSWczwSwnPZsUCO3ne2ksw8YLQAdqZHHDcQRy9I17HtUXhaGVNKIuD8vUA1Z1HbJp8y2uCQOgqkIr3V/pk262ecL2xmpEjgjsyEcmLHUVwjwgSOHQ7/Umuk8JeY9rJHcKzRj1oA1/KW5t1WGRtoqSSe0SLyHnAOMHJpso8qwlFocEjiuDuI5TJIZncye9AHeW8CxWzqsm5WGQ/pSxxmayCxygsp5NYXg6Waa3e2kZnX/a7VupCtvbShDz2oAk82FYzC06o2OTUVjZC3jlljlL7+prhLuS4e8l3yMCTx7V0HhC9uGL2s7Fk7E0AbcdrvszFHKeuCQ1Tp5MFsIHuBuAxyaiaBbKBzGV5561wl7NcSXbuzbWzwM0gO7sLNYPMZZS2/kHtTpo3lsjFHJ+8J+8O1YnhDUJp4Zba4OQvQ1uT7rS1kaPkgZGKAH+WVthGXXeBgs1UjbXCWku99+eVauFutUv5rx3kldNrfd7V1HhPUpNSspoJ2b5ehpgb2nki0QSHLVcTpWZpMLQeYJHaTJ+U1pCmIdRRRTEFFFFMApwptOFAhKKKKAExRiloqQExRilooAO1Ifuml60rD5DSGZ7H5jSq2DTcfMaQigZn+c8mpNF/DXNeIvC0t1eGe2Xfv6iuij80aiT8vFaETTST87duN3y9ahoZyHhfw3LDcrcXCbdnAFd3EWHbFV5/NEkfk7WXdubd1xVlSe4oiUcf4u0Ka6vPPhXd8v3VpfCGiz292Z7hdu1eFrsFGWqB3ZJ18tM881fKTciN/wD6aYdh+tc54m0uSe8M0aknFdKXc3uBAMetLPOWuRGsQP4UCZxWkaPPJfxMybQp9K7bzVilSKQfMBwRRcnyQDFGM+tLuBdGdMk96YjmvFdpLcyqQC+OmKz7awllABjYfWuyuJEWRVERYk8mieIRReYq5OOgFICK1cWunLHIDxxUWshpNLdIkLZGc1K8gNpveM5z0qyblBZjem0f3adhnA21nJg+ZGQfSuw0CExaX++GFq1HFA0bTGMDj0p0c0Ulo6gYA7U7AJIQLNxCo2kHpXCzwkXrtgsc13Nq8As2fJ2VBFaW07NJtG31pWEZ/hiJ9zbgdmM81soUilYwEAkVDbPEsjQxj5cdRUtmluJmAbdSA5DXQ0mps7cqvQVb8Nxzi8UxJhD1zW6+nWt1O52nK1ZhFrZukUeNxosImkWPzc4G6uU8Vl3uFXJCjrXTlVN4DvwPSkvLO0v5/LA+buaLAcz4c3idUBJXNdi0iK4BALYxVeC0tLCQLFguKFXzbou5A54pjMTxW7lVVARnrWBApjcMhJbNdtf29vONs55JwKjg0eztAJWwe+DTAmsAJLBRc7s46VR8ROsFkEhBT6VoyyCSJfLAUZ9addWkE8QSU5PvQM4S3R8+YCS+a7HSmkl0/FypX60iaPZWoM54x2qeWRZrb5CV9MUCKt8y2unv5ZIJ6YrjljM7M7uxYniu98qL7KqytuyKqW+g2kR+0sSOc4oC4aAZIrHEpbb71NcnbbO0ZwTTriUNbGOPKr2osIDFbZnkLKfWgLnDzrumctzk103hSMxW7s64Wr/9j2MkhmJ4HNP3weUY4mCoOtAD1njkSTyjyK4rVlaS+feCwrsYltEjLIc+tRC3tLp8rGCO5qQOX0m0kkvY/KDDafSuxneP93FKcsKbAttbS4gRVYe9Q7reW9G5vnzTQGH4tkmICQkqCcH6VjwQ+WVADFhyCPWu3vBZzSmJ0V3pF060t1UlAGHIqgH2SFdNRZz1HeoNQYQafJ5QwccU6+2TKil9hHenv9n+yhZ3DdvrSA4VY2uJDJKx3Vt+G1eG5OAcY4Fa8OkWL5lYYX0ot0tluCYSMLxQBaZYRKJAoDCuV1uUT6iwf7ma6m2WF5ndpMrVaXS7S6l3Lg80AYvhm236hui+6orpnET3HzYLL2plrDbWTskAG7Haq0MJe8eUSYx2oAy/FckjFY0baprAjjaGZHUZbNdpqVjBeKu45cVFa6LbWzh5mBJ5AosIspEZrBBPwWHSqOqN9k0xlh+RvUVe1B3cKkDDI4FRXFmk1uI7hvmI5p2A42OBpVaR2+brmuj8MySvCVlBZR0NLD4eTDMz4T0rUiWKG38u2wABjNAEP2eOOczINu7rXOaxK8966bv3Y6V01rDI2fNbKCqF1osc8u6NsHOTQBj6O7296kcWTu611V3FFcbfMXoKgsNNtrRwwO6Wny+ZLdkKwC0wMzxBdNDbiOIlR0Fc+gwwYtueuv1OxgnQLIfm7VUg0GGF1lnYYz0pgXdKzJZr5o3DFEpS2icoMZqaUrsWO2O1KR7dHtiHekBxd8XlmZnbK5rU8KB/ObGfL9KtHQoXbdvOD1rSsILe0iYQ4yO5oAfPaRNcefj5hXO69euZTChwldBbQSgtI0u8H3qrqGkwXchKnnvimByfl/MNpJcnjFdrZRbtNjS5Gciq1vo1pZ7JJGyfSrd8pkVFgfbQBUuStpaOIlC5rlJAbiRmlkOe1dncwRvbeXK53YqhFoED4kzgDrmgCv4T85VdZizRdq0zDEt354GD2NTQxR29syxEAetQWltIqM1xIGBPFAGNq99KbgpE+AeorHHnxSiSBud3NdLcaKk8xZX5anQ6JDZndLJk+lMRcgUXmnhLgbWK9agIXT9OkVF+f1qS8MkhiFudoWkvLR57cqWwSKAOUu5Zrpsu+0A1ueF5ZZt0cuWC9DTYfDryA73wta8EEdhBstxlsdaQETadAl4LiRuaztb1Ly3McbY9Kv26XMquLg454NZN7pc812207qAMm1vbi0u1lLlwx5rrWJurQSx/KSKz7PQ1j2yXXU9FrUlbyPLjgTg0EleMrY2PX7zd6KTU7GadFAaimM1ZzBE5ujhSB61VtdR07UZtgYGXOBk1V8Vwyz2BNqSV44FcPZAxX0fllldD82K5zc9KY2MN6BNuSQjAGeDSIkFjNLdSysisOATxUghint7drpdz4BDEVheNFlit1w7GI9cUAbEEljdzhxPlgOAGqdFtPtDKGKue2a880xpYLyF7QlgTg5r0Xyo5VhkkTbMV5IoGNhjWyJkecnJ456VFFELq5aVLoMcfdz1rA8YzTRxqsZcR9yKxtEv5bW+h8ss6u2MmgDuoo9ryAXHzkcL6UmmPcxRO1xLuGeM1L9jjknFwSySEfMBXN+Lb+4t/9GiYoT0IoA6Dy7ieYySSjyuwpywzB22uu30HWuI0HWbq3uVinmZ42OOa7M2pN2lxBM20jLCgCeyluGEhnJAHQUipdPchw48sCub8TazPCxhgYq3c1D4e1yUXAgupC6v92gDr4kkjLsqg55yKfBcPJCRMmPSqywTC4M0c37or92sHXteltZfJgB3jrQBuqJbgvG8R2Ci0Lrv2wbAnfHWsXw74inuLvybjCbhxW6jzxXDb3yh7UATpdLLEztArMOmRVZZ5J2ZZIiEx0rG1rxGbG58qGPJHWrOia6NUJjbCOaBF62MdurmNNu3r71OslpfRsZIVLL/ERVdGmjuZIZEDJjrVLVtXt9MjEcQDMeqigRoS3cTg28a7TtxxVfT4oYGddxJPXOaraJrdreOP3YSY8c1pi4KXbRS24GRwwzVIRkXWl2d3IzRj5s81bto4LUeR93IxxTru+stNGW24Y1FZXdjqMrNA2ZB0FACW8HkF8Sb8noe1VdQ0eC6ckSKrn0q2JYkuDC4xIxp83kWJaWV1HfJoAh0mxhsoyiyDzf51NbwN58hdvl9Kit5LO/k86CYM69hUsbRfaXUykSY+7QBnXehQ3MryIwDVc0rTIbFdodWkPY1JHClvKZHkI9j0pfs0M90s4m3OP4QaAGwRyCWUSkSKTwvpWZqehJdOZICAx4NaKeWLx1DsHbtmpIYhZ5kkkyCc8npSAi0bT7ewQrjDlcE+9WIonAbzH3qaiS3+03Qnhmyo5I9as7wZWCEcD7tAHO6r4d+0SM8PAY1e0DRxpsDYPzt1rQiSSJmaZ8EnhaaLeb7U05k+Qj7tAEelNcO8nnrjn5W9RWqBWfZrL9rbc+5eyjtWlVAMoFBopgOooooEFFFFAgooopCCilxRigQlFLijFAAOtK33T9KSg8qaRRnk4c0wnmnMP3hFI68UDMdYJm1veJMJ3FUvF/iF9OYW1kgWRu9aDyPDqC4TcCetZfi/QJNQmW5gUkjtSGM8M+KJHuFgv2X5vlBz3rrHM5ulI/1RrhtD8NXBu0kuFZVQ16FbgJGqMc4pDMHxL4h/s5jBbr+87mq3h3xHPdXQhvVCk/dbFHirQzNcGZF3Z9Ko6BYTfblaRSAntVAdNqUl2t/GISPLzzxUOuavHpcBO3MrDitC5u44pgr559qw/Fdi95CJVGcdKYhui+JGuplju12hhWnqFxNC8RhXdGzda5TSrOaWdFK8jvXZs0cVnHHMMkdKYhLu5itYTPMcHGQKy7XxRHLchJYyqDjNN8UwzXFqCmdoxisKC2lYgbCDSA7K/uttoXjTcvUUQSJNaieYbcDnNJbKsOnR+ec4HINR6n8+msIvusvGKdwKD+J4POMITMYOMitYywfZPOt13DGcVw1rBt3Arg5rs9DQwaf++GRjvRcQ60lS4sX/AHYVB1FVJdasoJ/JAIXHOKuXBT7M5t8EMOgrjGhK3L+aCCTxSGdvaPazQebCOop1goM0mxAOOprN8NwSxqWbIjx3rYiMRdvLbccdqBFWa/tbFmDuCx61PYy2V2FkjAeSuM1ndJqLhkbbmtbwwlwl2ojXEfelcDekeIXwDJg024ntbOQyk7SamnKCfPG7vXE+IHmk1GQM5EdO4HXW0tvdEyq+9j6VNbRxybs5BBrn/B8TpLlclfeun4DkqMUDM1rdVn3zy4VTnk1ZEtteso3BlHHBrmPFU8zXYRZNqHtUWjSPbToqEsSaAOule2iZYiMDPWn3Hk7/ADD9wD1okSOVRJIvI7Vz/iO8kQCOP5VbigDX8+3vH2bxj0zU0sVslsyDIx71xWnNLFMjqxY5rs1xd2gaVQrY6etMCREgkt1VlHHOc1Xnu4XkEIYADjGaq61dtbWA8rCsOK5ZHkDiXduYnNArHbutvHDgg/XNPUQS2oReV9c1X0sfaNNzOAS1R6u32OwPkhVOKAsPe5tYj9n8zt60rJBFbl1BIPWuNjLMxdmy/wBa6/S2cWCidNykdaAJrdITZloxjPXNVDfWtkNu4ZJq1dlU09hGcDHauLILSyGRiQOmakDsbZ7a5JliOeOaS0e1ku2UD519qz/CsR2SyHhQK1USFXeZPvkdhVICKX7LazNcSNhj60sFxa3si/vdzLzjNcpqjzXN8yyO2xe1WfDcb/2moT7o65FUwN6/jgmlQSMVweOalubO2kCF2wE569akureGSb5hkrXPeJbiXzViicKMdqkDcSa1kGxZRgcYBpZI7W3i+UbQ3U5riYt0bqFch812tvEJrCPz8HjuKAFtobdrZ9gJz3pjTWtovl+YN9R6k62OlOIflPrXHSTNMxkaRi1AHcRxoV81ec96itmia6ZFJY98VD4Zd5LErOxIJwKsfZ0tHklhXJ9aAHERW0jTO457GhYo7sfaC3A6YNcpqE73VyyvIwUVoeHLuVZRa53xmi4G0wi8+MF+falntxLdht/yCmS2QN6sqMRt6isjXtSdZWhgO09zTuI3JNswMUMgwpwaa0MNtA0YfBPOTXJaddz21yGZywc811V1D9tt1c8DHagB4jDWgWN/vfxU2IJaDa8gZ36c1UvH/s/Tlw24gcCucku5bhxMzlWXoKAOvESq5kLdaS1jiaV2STJqvo0rXVoRJycYzT4IPsPmsTkHmmAvkKtyZZ5vlB4GaW4hNwd2/CA1zGo3ktxcMFZlUGrug38nmGCY789KANmURDYiyYNLc2wkCBJsAdaS5swbhJN3TtWfrd61qpEX3m4oA00CD5FkBpjwxxxsJHwDXJQXVzFcK/mFiT0rrTCLyxBlbaxFADbeIfZHWOQkn3otY47VCZJcu3YmoJ5P7Msyq5LCubuLu4uJS7OR6UwOsmtTcOshf5V96ikiV7iMCTkdgaqeG72S5UxSAnbxmrgshFdGYuR6CgCWW1EkgLuQq+9I7GUGKM8D0rF1m9m85ooj+Rqto97NFerHIWbd1oA6FwqQGJmwT0oaNvsyoG+btTNWsftCo0TMp6moNRvFsrNCoLOBjJoAuwD7LFulcbz0FMlgaWVZZZPl9K5KS5u53ExkOBztzXUaPK17ZDzPlIpiHqivdAo/C9qmkX98SZcL6VHb2/k3DEvWFqd/MZ2jhPINAHQTNI6FYH4xVaZZVtQBJ8+awdKvrsagsbHerV0l9atKFIfy8cmkA/y5hahGbJbvSwxi3Qs7bmNVNVvfsNugD7jjrXPPq115yyb8p6UAdK0FxJMJmlCx+lDRzfb4yrq0eOc03T7lNQtN6McjtUVvFIlw7zSnAPAoEWZ/Pafhl2f7NFY2oa2ySeXbr9aKAOj0pLWGPCy+Yn1PFQyaHpE9wbqNcbT/AA96sWU9o5ntvK2MPvMQRVS41CwsAbaW4+X+7WBuP1Dbdw7Fk2rH09qnt4IJLERXcokU+tMsm0+dHFqfMzVjyIDB5QXBNAGfB4asobpbtXyo5AzVjU3a72m3lEajg802e8sY8Wss2wqMVPFBYC22q5ZepagYPZw3VuIrt0cYxmsq18IxQXaziYGNTkCtRYbaWz/cSc7utOmkjMQt/OCEd80AM1FrkTRC3I2jrTNT0ZNUtwZMLPjg0SQFYNguMj+/SSxT+XCIpS3uDQMxrLwjNDdIZWDKpzmt2/eS1ESWq7+xxT5/NeFYopf3g680ht5kiRGlAc9zQBR1jQzqEKzIoWQD7tY+k+HLpNSjlnQKitXVXEV5EsXkyBvU0t5PKY9sC7pD1NAivdag9ncxxpHuBbGRWb4k0KS8P2u1HzEcitSO3uNqZQM5OTmrEtxcwXEaKgIbqKAOT8NaRcrqAkuUI2GugvNQS1vxDMCQ/SrV9cTIcQRjJPJAqtdRMzJLLBvcUAc/4l0mY3LXduhaMjPFV/CdtJNqYaONlUfezXZLdMGWFoflYdMU24misgBbwAOx5wKBDmvIYJPInbJPQ1yPizT5I70XUaF4yOSO1dPNHby7ZriJix6e1SveWy4gmQOrjG0igDhPD0Uk+sReQp4PJr0Ke5jjnEUrAvjiqyJpum/PHF5ZbuBUFyLa5uVmdimOh9aAOc8Y2kovTIBuhI+X2rM0IzQ6pD5Hyk9fevQmfTmjEVwPMVh361Xi0rTLGX7UhznoD2oETS20D3EcsigS4rkvGXmmcK74Q9BXR6mpup43gcoB0IovNOgvLcLcANIR940AcHpsr2mow+QNmfvV3HkI88c4HzY5rLt/DSw3fmTSA45WtG+SdJYWtnAXoaYGF4tmnWdYkkKgms/R7q5t9Sj2vlGOGFdZqlhHfRhXx5gH3qzdK0E21z5twwK54NMRtC3T7alyOpH3a5nxXeXD3pt1yiDmugu4btbqJrVx5YPzZqPVdKS9BckCU9DSA5jw3c3FrqQjDnypG5FdmYCLoTRknceRWNpOhtBcGS4ILKflrXnN0l5G0JBj70Acl4s1W5kvGhRzCo7ipfB+rTpN9kupfNRuhNa+v6Kt6plRRvHXHeqPh/QZIrwXM42sv3V9aANX7NcQ615ol/cH+GtrNZE920eqxwujMuAd/atfOeRu59qYC0UUVQCCnCminCpJCgUYpaACiijFACYopaKYhKTFLRQAUdqKKAKB/wCPg0S96V/+PiiYcGkUZspxcrgVZEszTKgT5fWqN3DJLex7H2qp5qv4s8QSaREkNsv71+5pDNy/E8EANuu4k81JbuzhC6c4riNJ8V3z3cYuTlScEV2Ukkkiq9ucbhmgCSWUy3AjEftS3Cvb8w2656ZFZ3iDVxpUCuADIRWVonia5nnCXSARsc5ouM6O4RWMbSx5Y06U5dU8osp7VHqBeSKN7ZuCaj1PURpsIkdSxK/rVXJZK1vHChkij2sDjFOdFlVBIuDXO6f4klku9s0f7tjWxqM0xiWW0G4E00It3TxjbHjd7VGLeJVDBPmJ9KUzxRQLcXHBA5rHh8SibUTG6YhB4IpMDcmVWiAcZ9qSUwpDtKfLjpUN9dkWfnW6GRe1ETCayWecFQBkigQwWFsY/OVADViB0kt2TO0CslfEVv8AaxCqER9M1sSupthJCmV9qZSEjSGGBtoyKit9NtLpfOdcmprSTzbZzIm0VQuNft7KUQINw9RUjNKGWIF4EBCqMUzTFgiklbJJqa2uYri0M0CBmPJAqDTbgTNNvi2YoEEttZ3kmNnIOc1PbmC2fy4o8N61RvtXsrDam3L45xVzT7iG6j82EZb0oGNCK13lifcVHPpljfzn5cMOamsriJ7uRZFw3rUd1f2ljIVMg3HvQSS2cNvYo6QcsaLZNzFpJSCT0ptsbedDNG27jtTEVHkQjIx1pjI9R0q2u3BB+ekttLtrCRXl5b3qdRDbs8skvOeMmhIkvZBLJLuUdgaYiZy8kwCkBPSoNQ0y3uiInZdx6YqzEIDdEGQ4UdKRY4opmmaTH90GmBUg0a2sPnd1Yr0qxeAtBHsZVLdKSWJbrrJ09KfJFARHHJIVx0NSBXvLCK4tAksgLdqrW3h6GICSZwVHNaM9tGrAq3yr3pjlLtfJE4VfagobdYFsEtsKB0NOa2WayAuCGY02WOGGFU8zIBxmpJ4o2Ef7zAFBJmp4diWTzZGAj64NXbkJLEsFuQqjvUsskVxH5IlHHHWopoYIYQisd3rQIfHCscW2VgygVQ/sa3nlZgdqHmrT27PEqq/y9zStdQIBCjjcODSKHRwR29m0cBAFLY2saJveQc01mjggcvnBHWmwhZbXKtgGqQFeXRbS6uWcNz61as7G10/PkkFj1pI5oI1MfmjdjrTo4IiDIZCwxTEQR28r3Rk80YHUUzUNMt7wqVxv71NawxmVysuSR0p8aQ2waSR8HtmkBUstGgs5fMlbJ7CrN4skqr5JCj0puz7RIJDLlV7ClkiVpV2zbQe1ACz2SzWey4YdKxo/DQzu34jzW3LAzSACbCL1zTJnMoNvFKMetACLGttbmG2OD60ltDKYmWaTOaHtWit8GUbu5qZIG+xj94Nx6GgDCn0CSWZjGwyK0dG0xLFjJIAZAKsopt4iGfLmmWsE2WaV+oyM0wGRSzyXjhkwh71m6nobzzmVH5PataBXUOS+cdKba+aXZ5jhe1FhGVp/h90mV7g/KO1a99LLAqR28eR0pdkskgdH+QUjl3uAEagCrqdk11aYUfPjpWHBol20mJV2IeprpJTcGXk4QdTTpzJJFsibOe9AEZiFnp+y1++BUVqJbi3K3AKtipnR1iRQQTmluVmXbGgGT3pgc9PotwZD5R4JrW0TTIrVZHm5kxxV7lIymf3nrUKxy+WzSMMCgCOOaeaYq6YUdKzNa0i7uJw0TfLW9HEyW5cHLdqbD5oy0vSgDE07QJN6yXRwFOfrWvdySI6rAnygYoZJ5ZQzPhB0FI4kWcYfIoAivrV7mAK4A3Vjp4fuGlwXxEK3I4riW4yzfuxUs7t/qouvegBlta29lbBYMeZj5jUMYluGYOTjtT5InRCHbk9KeFlSJSpye9AGLfaRcPcbo2BJqzpejNBceZcsM1qxbkGSwLdqjRZWdzK3XpTAZNPJ5xijTcKz9b0uaZFO4D2rRtEl85ySAB3pY1ke4JnbKDpQBztloc8hAn+VB0NbzQmxt1WAbsdafO0kjbItqj61BdGdNoQK3rzTAWNZJ4nct8wHSsOTTbp5i6LjJ5NdFKJVRAu1S3WnSM0S7I8MaBGfpWlLbMJpiGcU+W7m+2lPKLIe9TBZyrOcZ7DNPsBP87SbRjpSAztXsJZ0UryfSqNtok0rjzgFTvW9AJ5ZiZtuB0plytxMwSHAA60AIttBplriFQxpjNLcRFggU4qeaJ1jRSRuptw0wCKgFAHMPY3fmORA0nPbFFdXHJ5Kc0UCLTNDJcyDcqybRkiuJ8S6e0d68kqsUPRq6sLGl4Z5Q2CB0q7PNZzkW00auGHG6sDc4/wOH/tAqhJjxXZSOrs0KkLJ2qFLex0qVRbRhc0xraH7d9pZyC1AHE+ILa5g1CRrgNtJ4NbngqVp/NidtyAfxV0l7BYXsQilUO1VbexstIDCHhpO1AybyV+yym22IVHArzvU5rh7yQSyFHB4wa7e0tZEvmlecBG6Iadqfh+y1CTcCI5/bvQBneELh7i3kjuFLxqOTWzeBbWyMtmSxUdD2pNM06HSreSISYkYdKZp1vIXfz5QVY8D2oFc4S41K/a8eZZ2Qg8rmuu0W5bWdL2uSsq/x0at4VtbuXzLWURseoq/YWCaVp7RRkNIKAuMnkm07TzubzGUda44eIL+KZpA3GeldhZvNeRPFcxgZ4rE1Pwrcrcb7UhlYcigZsaVfnVtNZ1lKTLUup3zWFkJJfmdR1pdK006XprcDzNuSKRYm1i1eKZAmO9AHL2/i+4imLeXlN3euqiv5NRsvtFuct/drk9Q8M3NrKyxoXQ9DXS6HYSadpJ87Jc84FAFm51A2tkZLhRG6jisFfF6fa0EkOR/erVm8nXLN4SCGHFcfqOjXNnIYjGWHY0Ad5Je+daieBBKp9KSea2WIXFxHhsdfSq3hyGS00ZTOCp9DTtT8rUdMlW3OXHGBQIzz4g0+WQJIdyg4Oa1p5IDapKkO+P+HFedXlrNAvlSQ7GB6+tdx4WaWLRlM/3PegC3NHbuYrhhtCCq/wDaunXTFJpVABwAKk1q3fUdOd7SThB91e9ed3VtJayASgpIe9Aj01vs6QBlJ8kDrSTxw3EcLxyEIOvvVLws7y6OBOQwA5zUmsR7dLY2jZI9O1AD7iW1ucxmZUOcZzRPFEIETzDsX+L1rzqTzCSXkcSZ6Zr0LRE+06FEtx06ZoAJIXdl2ONuOtLcKkkKxxSjcOTzUevH7LpLNAxyo61wK3dyGDxzNzyeaYHoEkcgWMGXbtHI9aeI3adGJ+UCq8Mf9oWEEjkq7KMkVX8S3M1nYYgPIG3NAjRvEMhQQSDk9M0s6urRgHbjg+9cBbajdwSpI0xLA9M13yj7bbRSlyHABNACKk5ucM48s9u9Ou1n3IYBwvX1rM8R6jJp0Ksoyz9GrAsvEl8LpFkOVPU0AdVceabiMxbcfxbuua1x0GetY101wwinhPynBNa8Lh4Vf1pgOooPWiqJAU4U2nCpAKKKWqAKKKKACilxSUxCUUtGKAGinCkxSikBQm4uRSy9KLni5FLJ0qSjMnd1nBRc896o+JtFOrxLIvEyDgVcv32TIe2atlJnkUwPxjmkM4zTvDd3HdIJVIAOc13KMYIIxtyOhpl5HO0SrEfnqS3d1iVJV+YdaAMjxLpbX8auvPfFYWnaXcPOsbIUAPWu6yXkwBhelQ3KtboXijDGiwwYpZW0av8APjjis3xNZNeW4Me4jGcCtFQJok85cMe1SXEiKoj5JPGBVWJZwtjaymXymV9w6HFdnHItpp0auuW71I8CQxCVYhkCmSOssKvKh57U0SZ+v20l3YhouARk1zNvCVBjCEvXc3LqsS4X5cdKa0EUcRm8oAgZ6UMZBp48jTEE4x7UX4EmmuIQScetTiYSWXmyRnGcYxUvyi03BSB6YpCOBgtmdgpRg+a7rQYpIdOCTj86srZ20cHnmMFsdMUgmDQEFSB9KZSC+w1rIIh1HauBeOT7S+9Cea7+CaKG3ZmXK+9EFpaTKZjEB3qRmb4WglhRpHO2MjgVpsU8pzHgt7UxLhQrRJHhR1plmYvnkXIFAHF30bm/cyA4zxmul8Io6Es3CYrRNnZ3jmRlHHPSnxTW6KYIE2+9ADj5RaRlADetcDq4Z9SfexPPArtrKJPOk3MWFNOj2V1ceaU6dTQSzN8HxOFZnB2jtW7Jhy7IAPpTE8mCNobUgADmm2kJQbmkHzUwOO1q6lkvGRnIVewrR8O3E5mVNhMda0+i29/clgVBHU1ctorawPlR43etAhDAnnhhlSeprmPEV7KbwwRyHaveuoUubht/3ao3+hW99KHRsN3pjMLRryZJ0TzGf1FdPcwecEYk+tR6fpNrYSgPhn9aszbjMFB+UdqQGB4kvpIkW3idgO5rJsp5oJVZWZie1dZf6ZFfDazbWqO00OCycSTvv9BQUSi3F1Zo0h2t1xWd4humtrVVjY5PHFa94mdvktj2qC70uK6iCzPtagk5C0llilSRJGLk5INdlEoubVXZSHI61Xh0G1ssSvJvI7Gp7jfIFELbU9qBFTW55LSxxGea5iORy4lLMX612d5aRT2yxyHLGq8OiW9sBM7ZHoaCiezBuNOAulxkVBqBNvp7iFcYHFWbt/MhSOMhVpJYojAIpmzkUwOIZ52bcztz7103h/zXs2EhO3HU1Yh0K2wXY/JVmVYYLUpFgL0pgNhjhthJMjZIFcrfXU91csrOQueMV1VtBCkHJ3bqrLo1tK7ENtOaQjM0KWVZ/LzuU+tbkltGblZN2Nvan29haWhby+ZCOtJbWrtK0kj5A7UAYHiDUpBMYInK57iqdhcSxzKvmkk1valo8E8wdTyaIdEgilSRm6UAW5LcXVmMyFW71V1G6/s+wVdxZh0NWbmNzKqQH5e9Ralp4u49jttIoA5kapeE+Zu49DXS6bO+oWXzHD461nx+HC+Rv4HNa0ESafZ7IRljxTAhjie0hk8193cVhX2sTzExwcBK6CWOa5t/mGDisUaFO0rBDjPJosBa0TUHul8p/vGrcdvNFdNIzfJ6UaVYR2ETA8uO9Phlkld0ccHoaBGPq+sSIxggODTdI1S4MwiuejdMUzUNHuTdFkG4E8Ve0bRmhm8266joKAL9xbSm4V4n+QHJFVdW1P7J905arcl0ReGILx61l65pk0sgmT5h6UwM2PUrxrsMTuUnpXRyQyXVoSjFHI6ViaXpF3LdKzLsVea3L24kgeNYkyOhNAEck72lp++OXArnZ9avpXOw7Vre1Ozmubdth5FYtvpN5LIImT5fWgDW0PUHu4vLlGWHep0heGaR5WJjqWzs4dOtjt5cDmkjeS6jbemAelAGNqOuOrGK27VW0/VbkXgE3zZp15pVykx8hc5q7ouiP54lujjFAF+6gkuY1ZJCvfFNvr0WVugfJIHWp5blluRBDEWX1qhrdpLLHlQSfSgDFm1q584SZOwHpXS2c4v9PMqsVciuftNHuLlh5qFUzya6IrFp1l5cSFiKAG6fHJBFK1y5b0rGv9XkdzFbEjbWwxa6s22AqxFc4dMu1mKrGST3pgaehag9wTFKMt/e9KtyWkouw4l+UdaXSdNSwjLv88hHIqSJ5Jy+1CuDQBU1nU/sihF+Z/asyw1WZLoGflX7U7UrG6kuWJT6Uum6LPLcK1wNoFMDZ1COZrQSW7YJqOCaSCwZ5iDjrVqacxFLdF3A96oazZTtalYgcHrSEZNzrdxI/wC4woFaHh/VnvWaGRQHHU1kw6ZeSgRpERz1rd0jSF0xHld8yY5FAD5xcC+UEnaKg1PVPs74X5mq6k4l3AZ3Vz2p2twt35jBmWgCSx1mWKVkvP4uQaKLDRJrx/NlOE5wBRQB1Mdyl5AJ7VN8fp6UtzJaxYuJkAcVS8NxSWOhgyIyuDkqakulj1uwaKL5WwfrmsDcox+I9Oe5IlG47uM1tSyoYVlEYZWHGO1ec3+k3dncmGSF+OjDvXceH2ki0VGn+6v96gC1cm3jYXJAGOSx7VQTVNNurgK1wGbNS63D/aOkv9lOWx91a88NrLbzFWidJF6UhHqLRReYrAhl7EVHN5VrKZpJcKOear6BIU0iOS44IHO6qviuGS9sVa0bcD1C0AW4Lixurguk+5j2qwIIRNlXKtXmmnvNbXqAM6sT0NeoxOotoROoDMvDGgCGBBBvaaUBmPGaIoPPuS4uFI7gGub8Zm6SRNhbyx1K1k+Hr2eDU0QSM6OehNAHdpbSLcSBJRz0qaGSW3hYSvuY9KXy4jtkBxIw6ZrkPEl9dwXfl7ygHINMZ1MUd3I0jy8RHoKfbLLDDKCBg9K5DQvEt4L1Irpt8TnArsPK2yGRJNyOPu56UALZTSrAzT4JJ4FRCS6uJnUx7YumawNc1ya0ufJiUYXrmjRPE81zOILkBVbpQB0EKtalwIgWHORU9rKtxGz3CDI6A1FsnWYOjK0bDkVz+s+I2s7kxQwhmHUUAbv2trpmQwBVTgGks2gtlfEfzZyaydC8RDUZfJaIRmtjEsczI8IKN3pXAf5Njfo0kkCkimSNFLbtbRJsQDtWXqOu2unyGJUzjqBVvRtZtb9dsCBX7g0XET2UUVpb4V2I75ouNP03VE3TRjI7ipWKSJJFImz6CqE2p2dgPIDEetAFwrbR2ptbUFQoxlaZp0KRQkPLvUnkNTtPurO4iLW3zsetOENu8TqAUYnuaAKd94c0y8k89MjPULVspHHYeRbfLGgwPWo3urW0AgaZVbHTNS2UNv5DMkhfeexzikhEVpZlrV4bx0dG9ax38HqLoSQSL5BOWFbsUMEkMyLJucHr6UiTxxW5t3uBux3psCG7tXt7NYbM4ZOhqGSxa8sDDdqGk9avxWy/Y3Bn3Fu/pTAjG1wkqkjvTA5I+GZBd7W5iJ610N4ktpaRpanIQYxVqZP3O1Zh5hHSo1imFoQ33h0J70xFW8sBqlgomXa4Gc+9cxD4fujehH4VTy3tXZgymGMZzjg06bIhKxjdIaYFS+lls7eNI039BxWhYN5sCkLg4+7VGfz0tVbGXBq5YNJ5ALDaxHWgCxzRTvrRTAKKKKCBRS00GigY4UUgooAWiiimAUUUUwA0lONIOtAFK5H78Uko+WpLkfvhSSj5ah7jRianCZGT59pDVB4o1KbStPUwD52HWrOrRM8YKHa2etOvLEajpywXGCwHWpLOV0fxHem4UzvuU9a7gStd2yyQnGetcxbeFjDPndla62zjjjtRHGMYFBJT1a//ALP0/wAw8uBXPWfia7MgMo+Q10Wu2BvrXy14wK5i30G5WRUYcZ60AdbLI01jFcW/BPUUmoXcdhZieVcvil2yWVosa/MAKq65ZyX+nqACOOaAM+y8TG4nVZUxGTWxqUpNqslqu4ZrkbfSr1GCBe/WuztR9lsESRcuOtWIjlukt7JbicfMB0rLi8U+ZceWUwmetaGvWst7p22FcE81y8OlXbEJ5Z646VLA7J5fNsfOt03EDinxXZSyWS4QAAc0yxi+waaizk470y/j+1ac4gBOegp3Az38T27XWwLmPpWxNNusDNFGGUjgCuCjtJo53iMRBJ44rtNIR7PTFNxnJ7Gi4E9rNDNYgyJtA5Oaz28QWqXXkJ93pV/UNk9hJ9nGMjtXBLaTrMRsJfd1qXcDvZXQWjSxLuBHaksJIjZEmMrzzmo9BjeCw3XBO30NTXbBrOQRDr6U9QKE+u2VvJ5Sn8qu2U8FwjPEoIxXBpBIt04kViT0zXXeF4JYYjIw+X3pXBmjpzxZlwuD71DJq1rbuYS6gnrU8rq8UnlEBq4W6RzfSebknPGKewLU7jbCYt8fJfrS4VrcY4Iqh4bEgtWNxkJ2zVu4lUI2xhwOKHUjFD5QimitN26XDt2p6W0MrCYvvPXiuOvTPLdF3cgZ4xW14bluA5ViSnqaSmpLQOU3IjES+G68YpkbR2/JfG496QoLZJXXnI4rj7++muLhwXK7elFhWsdctsZZvOMuRmn+Sj3Q/ffd7CsLw3eXMswilyY8da3BbJFcNIrHn1qh3JQkdvIZJXyO2aikRLtxmbCjnArldZvZpr9ohIwjU1NoU863eFJdT60xXOlZYllQeY3HQU5jCkwll3KqjqTSPDE1wkjg5A6Cub8TXMgnESswRu2aBG+Wgv8APzk4PGKZMYYp0RZDgdjXNaJNcJcBYWLDODXVS20JlV2HzgZoEJOYhJ5rvtAHFL5sN3gGUfSuc8UXcrTpErbVHpVDTLmaO6jWMlsmgDqrsxJtUNjBqa4hRyjlsIBk0NFFMFLphuvNY/iW8li8uOJtqng4oGa8F3bzSGFJOBRfGFYSsnCnvXI2khSZTG/zE115hE1sqXOORTAYlvHJZBYWO31pbfyYE8vzBuNVtUmNlYGOE44rlhLM/wA7SsGz60AdlFGqSM5kzmkiZmEmyUkelVtHjeWzzIW57k1KYksYZHDbqAHQK4Iad8DsKUwvcurCTCg1y13qk9y/yvtC1p6Deu7eU5LUAa8kf71UjmAYUkkNxJcDLgIOtRyWWLwTKSV7is3WdWdZWig4IFMDdk3eWY4iNw71BNA/lBWlAY9657TNSnS4XzGL7jyK3721afZKhI74p3AcYphHtWTJA61IzPFBiMgyEcmszWtTNjaLsHz9KyLLV7lWEknKselFwOjihlSKR5ZMlqII5UgPdj0ol3XdkGUlDUE9y1np4Zid46GgC5DHIke6Rvm9KiC3DylpG2qOlc1Nrd00nmc7RXQ6ZcNe2W5+CehoELbq7NI7jODxUlt50sp877nao7dns4pPMbcKw7vWbl5WEHCrQBvzNcFwsRwoNG1/PAZeO9Z2h6qbp/Jk4f1rQKzx3m5mzHQA5jM0+0DCCpriYiLy4V+c96x9Y1gWxdYjljVLSNVna5CzH73SgRuTJMIAf46J5JorUeWv7z0pL6G4+R0fqah1C9WyCs7ZfHSgCe1WVYt9wfn9KBNdST88IOma5xtbnaQu3St7Tro6jZddrDvTAfAkvmuxoVLiSbMjfJREj2ysZHyKw73XJGlMUIPHegDoJzLINkR2qKhuBKNqY3YqlomovdMY36irZWYXed3yUASyiUbRH8uetSvIyxBYxl6yNW1QwEpF8zVRttcmSdfPGAaAN2FJgHeVufSngzxQlm79Kiuo5JoFkifrTJrz7HaDzn3MOgoAs2zyAhp/vdqYTcPOWAwgrm7jXLgzbgPlFdFp9015Ybo25I5oASPznuiNvA71IJblrgxsPkHeoLI3EZc3BwPSqN/rhiLrEhY+1AGtfXEkMG2BMu361EjTG2Pmr85/hrO0nWRd3Cwyrh8cZq/dm4WZcDcB6UATtlLUMkYBPWnQkY8y4Az2FU7/AFD7JGgPO7tWRJrsiPuljyo6UAbwu5ZHbbFsWimwTG4t1kgAIPUelFAF2WSe5YgqfLx2pbR2tlZVt1AXnI61xWgeJruK8SO+cvCxxuHau5RA48xJMoRmua5uNt5/trN9phAVehIqvPLJcb7dYNsQ7461l+IfEQsEENvgseSTVTQPFM1xeC3nChT3oA3bJxZ5WKNsL1yKnRrW93SS26jb321MY5jK+CDHtrnda8RJpzeTFF83cUx2NZp1uQ8Ahby1PYVNDKltaj93gA4wRWd4c1xdWDxnEEo6D1rS3Hy5IrlMgH71AWIxaafJKLt4V3HkcUy+kF2nJKrGeMVlah4jgtJlgRQ6LWxpmoQ39sfIRSOpFILDney+yhLrDhhjJqvbaDp1o327sORU91HFMqedGEVTWbPruntK1rPLiNeMCmBZvy9zPG9q+xB1NWrrSbXULfF06h9vBpsaWclnut8tEO+aRoIZRG6SEY7ZoAzrLwnFaXCSPJlVORV+9aWGeP7IpZScGluLyCWQW73AQjgc1MYo44EJm6HrmmIoal4fGpqZSwSb371Q0/wpLFcrNctwp4xXRTKXMTRy5UdfekupTchYoZNrCgCK9uzaTRJFEZFbjisnxB4bkvSbu2G1yORW01s8aRl5AXB5p8zXSTogP7vqTQBynh3Qr631FZLiPai9TXTXF+Ir1YH3HdwKk1Ce4ZQLb5j3qGRbgPFI8StJSsBz3iPw7cPdG6t1LoecVB4U065/tUs6mJV65rsDfTiZIhHjPWm3txsI2xDJ6kUWEJLeK1x9nOQzDqK4vXNLuoryWQo8iN0NdcvliZGaI7271aM8UsgiaJWK9c0AcZ4PiuRe8bwgPINdjJPDKXtgVWSm3Vzb2rhLaH5m/uioY4ohc+Y4O9u2KAOI161nhvZDMWwT8rVseA5p2Z0JJVfWunkFrfy+RNAH2+1RQx2Ni5itoykj0ICQRxHzTGQGI5xXnuuzXC6hIHldCvSu5toljvCzS9exovNIsdWb96q7+mVpsRkeCby4uIZFl/eRr3Nb1xCI7eSS2KnjOKbaWlrpkJgtRtOOc96i06JkZ2klGHP3fSgDgrvUL77VKRMUYHgV1/he7l1DSiLhiWTvVrUvDmn3z+YrBT3Iq1aWlrYWht7VxuxyfWmBHOj29lI6NnAzXBS61qCXZZZDgHODXe6fBM6SfajlDxWRqnhM3Mxkt2AU+lAFqwun1LSt/wByQVf0wv5YWY5YVWsNN/s/Tim7dIKn0veyHzhtakBe70tJilxVCEop2KMUyBAKKUCloGIKKUCloASiiimAUUUUgCiiimBWufvimyfdp1194U2QfLUvcaMnVzGYcs+3BqSKAzQLskIGOtM1aGOWDbIOM1X1uaWw8Ps9v/CuM1JZfSW3KeULhTJ061agj+yxYd89+a8m0+6uBJ5zSt5hbdjNemaRI2q6WDLwSMZoJNCbMihozwwppjBAUON1QXxbTNLLJmRkHFcRDrF9Jeec0pVQc7aAO+kE6w4ABI9allMpt1G3qO1U4C+r6aroxjcjBNSXTS6Zph3yeYUHWgCwIQYAAB5gpsizeUBKBXFWev3rXhnY4iB6V2HmNqenCSBzuNWIsSyyx2qFFyScVKpEMOWQGTrVZ5DY6YDcNuZea5aPxFcPqJdz+5BxUgdYRLNbFpRnvtpytIlrvVNuO1RNM1zp3m2jfORwKLW5ni0/ddkfL1FO6AmgSIxedLCpftxTZXaWJt6cdhXPv4mzdlET92O9b5uHubHzoCGOOlF0AW0nl25YRcVIiW4QytAN30pi3DR6fvnUIF5NYLeJle62IPlzinoFjbefzYmHllVHanW8yJakiPJppl32nmwANxnFNtLky2paZNgXrRKwWHW8FvI5mlgANO80MjoibVFZV34gt0uFiQbgPStaG68y1MsMatkdKhNDcdCK2MKI2Rk0gs7cqZ3iWnWsm6JmliC1n6nqJeBkjwoX0rOtUUUVSjdkGp64IA0McYVB6Vz1xqlwxyj4Bpbv5wckkms5iB8teVUrSkz0FSLP9ptE26XBFdNoWuW8sXljarGuLkUEENzio4JHiO9DtI6VVKs09SJUz063IlzvfKCq/wDYdrd3TSBsLWX4f1ZLi38mU4J4zW/BPDGghjb6mvThO5xzVh9rFaWbeTFgsKbDH5k7NJJ8oPSktrKCKV7hpS2adaxw+ZIyyZ31sY3KVzotvdXG6JiMnmrlvaW+m/Ku1nIpJJrezTaZMMx70qJFJtmJDmgBjqWu1bfx6Uy+0u3viAcbx3qzb+QZWyctUT3NtaMXeTDHoKYhLOztdMAGNzmnOd95kthcdKWB4LnMgbzDTLeW3kvGG0hh2oGRX+nW1/IqcZPenW1hZ6WyYUO+almube1kaR2VT2zSQzQXJ84Yc+goAZOjT3QYOQB2qO/sba6IjZiHFSRSW/2va2d31p0sdvFM0sr7cdMmgCpaaJb20geQ7scirN+WmdFiOzFSRPDcksX3AdMGobprNJ0BchvrQMde2qy2wjmPPrWdFoMDDcz8Cta5hSQJIz4Qe9QiWGb93E+AKAH7Ejs/JhbA9aZFbFbdklfcG7067aJYRGzbfenXMQktY1Rzg980wMo6DA0pKt1Par1lY29mW2Eb8VLE1vaKq79zn3pTFGpZ2bhhQBHDLIC/mMNtZt/ov2mQywPktWnDZq8bfOTu6U+1WO0Qb3y+eBTAo6XokdqwknPzjsavuZTOAnC0hRnujJLL8p6CmxHdcv8AveFHSlcChrWlfadpLZPpVe08PvG6NMcJnithEdZGkkfKdqSYTTsCsnyDtRcBt2WiRI4F3DvUGo2L3dmo6H0qaSOVpY8PgDrSzmd7oLGf3a0wMKPQbhsgn5fStz7OLHT0SLl/SpLl5vJ2wLhj1NQzG4CRg8t3pgMWJrm2ZWBVjWJ/Y1yZWROh710V2s4iTyB8x61JCzxREMMyYoEZuj6GLItLIcsBmraym4YooNNg+175fN6EcU5N0UBYAbqAOc1jS7lbzeiFt1WtI0mYXKS3K4ArdtmkY5m59Kj3XD3XzcRigRJLK4mKAZSsPX9NuLllliHTtW0gfz5GY/LjioozPLJknCDtQBzsOhXcqATDah71vwwJp1qscA3nuanlMsgCRnIqOVLhCqqB70wB0kuLdsrgkVzcmj3TzMI/WumuPtGVjj6nrTwDHHlT+8HWgDN0bSW05Xkmbcxq5GzS7vlxT2MogLN940QmQWxyPmPSgDntS0y5a4Z179Kdp2gzSyhrs4UVv2quAXn7dqa5nkm+XhKAC6ultVSJYywHcVn6zYtdwK8XB64q+qTNNtZAU9akUStcFSo2LQByUWl3kz+WYioPeujhgGl2QVRvbvirdzLLhVhAyKgkM5kUFck9aAEcyyw5RGBI6VzElhePOxFueTXWztMirtXk0nm+Wm7aS57UAY2j6G8VyLu54K9q0lvTPcvEqEY6Gkha5lhllkUgL0FPtGYxNKYgD60AY2t21wHEhBKis5bG7vZEjSLCnqTXWwySTkiVPkHrRcStv8uBFUeooAYwj0y0ii68c7aKbJ5hdVZd4xRQBkxeCniuFdZw0AbPWt+7ma18qO1UMq8ZpZ54oIxa/aQAe5pkVpEqkpc+YB3rjR0FPW/DQ1iMzqwSbHHvWJpnhLUIb5DNhEU/ex1rp3jmMSeTNghuTU11NPLCIo5QX7nNWxjbueWxuEjiJkB4NZHiHw4dU/0mDKygZx61rLaTlELzKzDqafdG5ili8pwVPUikByvh3QL6K+FxcDygh/Ounnu4/tP2aQFmI4NOuXuJcRwcnHWm/Y50lVpQpf1oA5XXPD97FK9zbxb1xyBU/gmyvlnaRlaJT1BrqVkuPPMLj5O5pklxKkhito8+4qkA25lS9WW1DhJFGM155qej3djdSGVGlQnIYCvQ4omiudxhy7jk1JHdpeStbSRLhPUVLQHP+BGuXikSUN5Q7Gtq98uazl+wtiZeoqWS4itH+zwRH5v7oqvbRQRXBbD5bqKYHBzi6iuWe5DLIDwT3rsvDdyb7Ttl1GRt6GtK4tbDUxiSLlOhpQIrdfJt0wg60ARahKbW132ybwo7V59Lq19JePIsjJtbpXoNogSRzK52N/CaqXfhmwv3MlvMEOfmFUIl0O5OqaQvmHEo/ipniG4m0/TyYiWbHBq9b29vYWf2aEgsB1FR28f2m3aK9G5SeDUsDiLXxFqETg+ZvUH5hXb2kz6lZR3EchV/SsS58Go1wZLWbEZ6rW5BbDTdOEMLb3A6UhEeqagLC2DvnzAOc1zkPiuZLkeao8tjwfSullszq1oIblNuRw1cw/g+/S82ZDwZ+96VQHXRO1zDDcWjZB5NUtW1GPTQ0rKPNY9Kn+ztpenxJCxdx2FVNU0ltbtQSCsw6UAVNO8WxTXKx3EOwtwDXQSTlHV1QOj9xXCp4c1BbpVeMjYetdrI39nWUSyDcVAzQBX1HUrWwRpn+Rj+dVNK8QWF7c/d2y/3j3qHxJpb6tAk9o27HJU96wdK0y6Oooq25RxwT2pCO3mZYphmHcrHgiqt3fW2nKzO4Uk9PSrtxdJZ+WkwyGGB7GsHxbo8t+qz2qEgD86AL2m6jp95PmN/33cE1fU2yTEFcOwrg/D+nXS6tFhTGQfmrvWnhjm2zgb8YBoTBkEl7b2e4PIoUnvUli1ncM8sEgkJ7A1yXi6xuft3mxhmhIzxVbwp5qagoi3Yz8wzST1BndwpB+8VWw57elNinS0gKTygsxzyelTIYjKykKkjL3rgvFzXa358wusY6EVTYkdpBb+bvmeYSRnnHpSWSusjb2BXPy/SuU8FX05u/JeQujDkGuwEcQcsjEHuKEwZYpRTV6U4VYhaKKKCQooopALRRmigAopaWgBlFOxRigBrUlOam1QFa66A+9ISNvNPu1/dg+9M/gqQMrVlEkBAYjFTWUEN1pvlTEOhHINN1UgQliMgDmmaC6XNowRSFqSikPBVi8++OURr97ArobO0is7P7NbuvH8VZ39r6baz+S9xhun3q04TAYTJGQQeQRQBH5DXEDxTlSh4zXPjwezTb45R5Wc10sCpLBId2BmmxzwAeSswBPvTAYkQ0/TRDbnc9MW3kv7B47gFSR1qcwqkf385HDU6G3f7GcTbmPTBoA5FvDV0t0UjXMR711Vvb/2VpiqmCwHIqdXeK22h/wB571CElaF3kbJ9DQBWvf8AiZ6cygEMR0ri/wCyL6KZo/IZgTxXeqJY7TfGq7vSpY3ZbYmWMGU9KLIRT0W3ex0wfaFweuKdfk3enSiBeSMVIZZpLdmnTJHQU+LzBaFkjwfSiwzgEsLxZjH5JPNdtpUD2GmAzHjHSrnmJHbeaYR5uOmKhMzzWW+SLqelMCDVCb7TWS3JJI6Vw/2W4gkKtA27d1xXoHnCGzVkhwScVKvleWZJoVLEZHFD3GZ+gxva6eDNkDrU15J9qtXEHUinLdO8RBjwnpUNzdJbRZjXbSqPQcFqcethOHYsG3Z/irrNHuobayCSN8+Kwru4kkJf+HNUpZm+8C1cEq3Kdfsb7HYXFysluwiOSRXMMZNsqsp61Uh1OWJup+laUN7HcWbrIoV271E6ntS4Q5TEkl5Oe1UpXy/FWp1w5qsy/PxXFJHQNbODnvULfLzVmRhtquxGKcSRLa7a2m8yMnBroLa8+0x7s/vB+tcrKwC8VJY3xt5lJPFd1KRhUgpHpmgzyTWv79Tg+tWpYltIZHiIyRWV4d1OK4swmdpboa17eJBEzTPuU8V3RkcEo2OKuriSedt7nGa3vDTTuSpUmId6v/2JZ3DGUABat2zQRRtBD8oHeqFa49xFGrsq4bFcPqMss19ICxCiuzt4k3M0kpIqJ9ItLqRpQABVJgZfhNZVkIGdnWt0xwRzF0IDt1NJbfZoFMUIAIGCRTLa3RJDI024HtRcRyGtTO+oyKzMUzWj4Ydzc7VGUArXudItb6UvHgY61NbR21qvlW4G/oSKAJJIoGn8wACQVyWuXckt9JGxIQV1EUJe4LeYMd6gudItrwsVb580DMXw9NILrYp3LXQXFhDNKjMBuFJp+nW+nlirAyYqNI5Zb7f52FHagDL8TXrwqsEWRk1l2czwzptkJZj0rrdR0m3ugN8oLmq1poVtbSrIxBwe9MC41rHcQL5wwwGQaz9cuXtbJShxtq9qHmSyKIGAAo1CxjubYRzEFqBHFPcTPiR5CWzwK67T0a502My5BNVYfDscTB5Gyo7VqXca/Zligk2kdBTAivJFsLF2V/mA4rjZ726nkLiXANdvJYCWyCTuCSKyI/DETybzJhAaAJ9AZri0/enJA61YtrWOzmkk3bgeamFtFa2xhteuOtRxQO0TLOcD1oA5nUdYllunjjO1Aav+G7955TE5J96bJ4ZEs5KycMc1r6VpkGnROUIMmKAEktpI7neZMg9qydY1iSGYwwda2Lfz5ZnEg+U9KxdY0OZrrzIXySaAINK1yaS4WCdzlm4revYbh3TY2B3rL0rw60Vws12cMpyK2p5mWYIASKAKmo34sIRlssOlYb69Ms4lY5Umr3iHTri7KtByBWba+HL24mX7SNkYNMR0kcsl3ZiaFsOw4qNrgWdnm65YdalmBsLZIrVd23gmqmrWU9/a5XhvSgDEk8R3Rnyi4Wui0q9/tC3DD5T3rlV0HUZHZCMK3eur0yzXSbERj53xmmA6PzYJJGlbK9hWLquvlcx2q4IPNbQaW6jYSrtyMCuX1HQ71ZiIlzuOaANfw9qq3X7uY7Je1W7iG8N+hWX913qhoGgyWe+4nOWHQVpRSyyzlQhCjvQBU1fVlsPlDZftWXY69K1ztm53Go9c0m+nud6LuXPFWNA8PzNcie7GAppCN64haa2Hlud1Q3dytlZKZJCXHaprmV4rhYolyvrVXV9Pa4hOR83anqMwLrXp5Jt6ZEanmui0y6Gp2G6IlWx1rmF0G+nkEZG1Cea66yt10rTtkeC4o1AjsormAyNcSblArD1LxCYXZIDzmt4+ddW8m0FTjpXH3Ok3s1wypF360agbvhrV/trPFIPmFaTCaO6Bz8tVPD+kLpcTTSDdIRVm2vHu5mDLjaaYFbV9X+zEKBk1nWfiDdcKky7Qx4qDXbS7F3vClxiq+m6PdXdxHLMmxAaBHUag05TdanO4ClkuzbWStcntzT5p1t9kKpkgYzWV4giuJ7cGIEj0oAhuNfOcxp8grS02+F9Dui+8O1cksN5N+5SAgnjNdRoOnNpVkZJD+8NAE8LXLXLb+lFKspnQvEu3migDkNa+0Rak5vA+w/dYdBWr4OvXe6kt93mxMOPauovIdNvYlhuVzkdcVVstO0/RZC9p8xkHpXKkdBNPF5VvIYTlgCdtcDLqV6l5JumZHB4GK7qK3IvjOJjscfdNVdX8PWGpSZDeVP7UmMj8MXzajbvFcEhwPvCtHUpjY6f5hywAODTNM0+10aAxh90jjrUVlHPcSypOweLsDTA486/qCzSNFKQp7eldhpF6dWsFkEhDp196z9U8GC5l32UoXf8AeHpWhY2K6JpLwxndPjigB2u6hJYWYZhjI+9XLWXiu5guQz4aNjjNdRBBJq2n+TeIFz3Nc5e+CrtLrZbMHiY9u1S5AdlBcNcQRXFtJu3DJrO1jVItNjaQqBM1SWtqdJ09Ikcs6jkVX1LShr1typVx0qkwKWleJlmu1jmUKW6NW/JJIZlkCDYe471wo8PalHeiLZgqeHrty0mm2UJc+YcYI96YFbUNRh00O56ntS6Hr1rf5VF/e9gaz/Emkz6pbi4tMh1GSvrXPaLbXkerIFiZHHBxQB6F5waby5ogrHoarX19Z6Yu0soZutWZLhYPLW6ABPQ1xXjCxuTdeegLQmqEdXp0tpdI0kL7yeoq1+4kRo43KuK8+8MXFzbXwS3BYMeQa9EPllM4EcpFSwIEnit4vKeZA/vRb24KySGdXUjjFcJ4j+0pqDC4d8diK0vB+pTee1s4aSI9M0gOqIkWDCS/N2PpTknkijKGQEsOuaR4gFkdD83Za4XVtRvzeyLuMYQ4WqEdwsVwkLMXBY9qSSa4it0MZ+cnnFY3hbVXuozb3T5bH3q2J99vA2358c5oAtvcO0IHWUiq8kU7QN9oAZj0FcRfa3fLekwycKeldRoOpf2paskrFZR/FQBpwh4rcADIHapZpWVQ8S4YjkCqd7ctp9mTKd2B1rjj4ruFnJj+7ngmoA7K4hMyq8ibiOxqaO5a2KK8Z2ntVTTrt9RsBIjYk4NS3dybO38y5wxUUwLM1xBCwkjhG5u4FVZ/LkmjleEsx7VzEfi3/SsmENHmuqsbv7cqTwhcY6GmmDJpbiLb5UkI56AikkisbGQSQQqHcc4HSq2q3sVpG00+FZaxrPxZbz3QRxuBPcUk9QexsywLLcpMxbk8VYuoLG9U204DMeMmlluFMaSIoZD0xVW9nt7UfaJvlYc1TYkLZaTp+kSM0PVuOaZ5LDUTIJflI+6agsdcsL+YRt94njNX7hoUukZkIJ6elCYMsKeKeDTVAIyOlSAVZI6iiigkSinYoxSASilxS4oAbijFOooATApMClzRmgBpop1JTAguh+7/ABqEf6up7kfumqBOY6QFG/UGF8jKlag08KdOljsziTb0q3dBRGfT0qHS5MNI0MWAKk0PMJbC8gvnNwrh8+teheDHnezIlGUHrWvFFa3bs8tqu7PPFWY/LjRltY9qjrhaBDJwiWM3kn58GvMjf3C30peRgVY16bZtCd45bHWqj+G7C9lMyrtzyaYiv4WvmvbLbNlh61ozg2to8kRwRS2lva2UDQ26gEd6jt1edXjlIZTQBxk2v3kl2STtCn1rr9DvTqOn4LYYd6yLrwg1xdM0DAITzW5Z2celaeIouZaQD7qR7KxaWVs7a5QeJriS5JjI2g966mWOTUbB4ZThjxXLJ4QvFuzsH7smlZgdPYXhv7FnQ4cCpJLp7TTTNP8AeWmwWo0vShFGp870pkkUup6Y6OhQkYqrAc+nixpbs4XcmcYrpUn+12PmW3BPauKTw1fJc7Y4jsz96u2s7caZpyq3zOBkimArTmGzDXeAF5NYJ8Tq9wURQYxwK09QQ6naMgBUkVycGgXi3HlKp2561LeoI7ZJhc2G6EDOOlZGsiUxIrDBrUtrX+y7AFsk45qpqLefEJAtTN6GlPc52T5U25rPumIBXHFac6EgtjFZd583Q8141V6npw2KjMKvacxPeqJQ45q5p4APJqacgH3SZJxVQrt5NadwmScVmzghsVUkIpy5LEDpUbdKsMtV5vkFTEopTniqrN1+tWLg/KapO3SumDM5I19G1SS1lByQCeRXoei6nFdxAOwwRyK8kWTBrd0TUWjdRu2jvXVGdjmnC6PUTf22wQq+0Gpo1ghhMgO4Vxg3TEPGcjtXT6MJY7PddD92a3jK5y/CXYHhlgZsYqvLqdtEBFGw96S9O2xkMHGRxXFLM5kbe3zZrawHdReUYDKvOeTS2flSQyMAV+tQaKAmmq0pyD61JeTKLaRrdeMdqBDft1rbZjRl3dzmpIxCUMqnJPPFcEzyPcPuLBs12Xh8P9g8yQZHQZoEWrco8b7WwaZ59tZ/L5pLGn3ShLRzbgB2GeK4b7RK0sgndt2cCgDuVEcjeYj7ietR2xikuXw/I6is/wAJtLIJA5yq+taYjgjeSWMfN3oAa3lQSmSWbp0zT02XS7hLxntXH6rfTS3bIzfKDWp4auJZJygPyCgDYBiabYJDkGp2jCNukfgetNNrH9o8xRiuY8Sam4vfISQgUwOqMiXHypIMAVXnVFlRWkw1czoF3KNREIYvurrrqzWUxyuuCtMQySFyFzL8tIZFkRoYpgPxrD8Wai1nEkcbbc8Vz2n3s39owokhbceaAO7lh8uIL520nvT5bdpLdYxJ06mm3Nuk0EW9sMKyvFl+9hZAQNjPGaANs7ViWONgXHGc1FDbPEjtM4JPTmuAj1e5iKMsxJ9K7iwaS+0yN5SQ7CgCaBZ0gbD59DT4z5agync7c1DPN/Z2nszHcV71yFz4huJWLxvgCgDsP9IkuA7HC9qXEr3BJAKis3w3qjahbFZD8yjrV8CW13s8nBoAkXzPMJcYQUSvPK6hOEFctqfiCZpmihbhK0fD+rtqH7t2wR1piNV2l8xVVQR3pjSXDXBRBhRSRCaGd5HbMXasjVvEghbZbjLZ5oA6CZ3WM+SMnFRbphCrOBvNczp3iSc3apIPlY10F15jsrxudp6imBJNJIsQUDDnpUys6RZmwZMcVj63rK2Ea4G5+1c//wAJLdiUM3zAnpQB2RMzRsWbntTrdJjbElsGo7Vlu7MMW2tjNQX16LK24bce9AF6NSqh5mGR92mtJO0w2kKnc1x9z4lumlBQEBe1buk6l/aVrnJR+4oA0IC7TuWxgdDTFeeS5JcjYtQJLJbo7ynIrFvNck3PHDxRqB09zO2zy4QNx71VbeACWBfuKwtC1aae8EUp5rblhk+0eZu+QdaNQLX+kRhTx83XFOMpSNgqrvNY2r6z9n+SMktjise316dLuNZQfnNGoHUlphGS3PtT4wyRCQJgntUMkcjKkiv17Ul1qC2qBpG+72o1AsLljumSmNJKZAkSYUVzd34ol3ZVfkBrY0/UWvrUvFw2KNQLCO7TtvTOKkjmd5dvl/IPWq9pO8KSNP1rJvPEQikKR80agb93MY48QxDJPaq9xcSIiB1Y7u1UNE1kXztEwG7rV65Exuk5+QUagSyTtbBdsWdw6Ciquoa3BZY3rlhxRQB1f2CGX7yge9Qy6ZGDxtOK0AKNtZ8pVzLlsxxhKz7lI7AtPzk9eOldERTJreGZSkihs9cip5SuY5SC4sL+eOU3IMin7meavMlv9pGSy8HjtRfeEbGWcT24aB15G04q39k2xxiRC7R96TVgUikjjT/MaaX5n6ZNQW8a3MzS/aFOe2c1ieNorpGSRN/k559qw9Lv5ba+i8ty24jIrPm1sWd9bqf3iLN83YUsEz2yFZXG/sakVIpVR/8AVSsORXF+LLy6t7/y3JSPsw70h2OritZpPNkkmBD84zU+yeKzDQsM9M1x3hfV5kvxBMxkjcV2Z/dIxiJZQM7TRcOUeLp1tQJApmIxUKJcSxt9oCnHRa4nVNcu2vmEUm3aeBW74V1ltRV4LhyJB/FTuBuyXFxZxx/uwVPGBSzTpCnmJBudh0qO5ke1t2Z28xV7muTk8Wyi7+RfkB61RJ0zK92Ee4jbKnIqzNPAmIJ4Nwk4Gag03UDqdkZImXeO1GoXAtrdZLpQWUdRSKHPb6fp482GJVc05pDMVbaBkdaw4/Flo8ixTQhueproUuhLbJNDCrJ7UAQ3dpY3qLb3AzIe9MstNsdIztwWPQ0Xd5Db7rhkCADvVe113TbqZFZ/mz3psViw4l+2B0kzG3OKTUdCsdTfn5JPWrcjRb0LLgHoRRdzW1gfNMwAb1oQWINK0e00gMpwZeik0RLOZ3WQhoTTYZbS+uBKsofHYGriLbmRgG2+xobFYwdS8IpcyGWzm2MxyRWppejx6VbsGYPIwqVZRZsxmlXGeOajjjW6naXzwfQA1LCxGpkvPMgmQbPug1gan4LnRy1mQ6E5x6V08cagOomG89KS2eS1jkE02WP3c1IFfTdPfTNPEbuBIRnApQh1O2aCdCCeM1NFbyynzp5xg/pUirJHExjmUntitIgcLe+Fr+1vNsKF4SetdbYWT6VpYZid4521oRTzCHEzAk9M1DEtzIHaYjZ0GaYFO/thrunGMIUkbpmuLn0DUILkRiBiVbANehYmhi3RAEjpUhnleHdMAHqbAQ2gNjpMQm52gbgay/FNg2r2CtaZZ8ZKmtFTcTwt5ycZwAfrUsk0trAjCIY7AUxHm9laXtvqEcflMCCO1eiT3AtoYI5yvIHWrLzIbcTtCvm49Ko3US3yxyTRttU0IDQgYSRgpyKnH5VVtMLHheBVkEfWrJHilXrSDpSr1piFxRilooAbRTuKTigApKXbRtpiExRinYoxQA3FGKdijAoAgnH7s1Wj/wBWauSj5D9KqxDKNSGild/cY98VR0CWeOecTD90avXowhqppE3myyQOKksy9Q8aww3xhgiBwea6PRtRGoWm+EgNjkZrz7xH4TvbS+a5tEaRHNb/AICtL6yheS7UqD0BqQOlsb7zGmQ23l4PJ9ar3mu2tnKsO4KSPWrEl3FOHjjADj0715prrzxaxL5yk/3aoR6bbtDLb+epDe9JpyQy27hGOcnOPWsLwPPO1o/mgmLsGrZl8uKzmNvhc5PHrSuIl+1W9sogSQB296DCFhd2k5POc15dd6hP/abs8jZU8V3/AIYum1DSM3AOOmaQGmId1mBHMSTzkUqz+TD5CTZk+tUtYmOm6RI9uckDiuDttXnkuTM0rBs9Kq9gPRRDKsBLz/vCKm2SizQLIST3FUdIuItQ0wmXdux96i7nOnWDEMW2jINUM0kk8qIIX3PUJjkMbNI4JPauBTXrye5aQSYweldlpc631luJIfFAF1Y3FspiwDmpvNYRhAAXx1qhe3L6fYlic4FcrDrs7T+YzkLmkI7KVJXgIkYVHPat9lUscVEjLf6fuhkYOaVpGhsgkrsWHrWcy4aMx7pPkKGsG7jKscV0cq7xuPeqUtpvPTrXn1aZ2Qmc85IHNFvJiQYq7f22w4xVCMbZM1zRXKzdO5tIm6PPeqVxCQSxFWrOXPXpT7ld+cDiuhrmRF7Mw5e5qtJHuG41duk2ueOKoTFt3HSudOzNehWlT5G96zZUwMVrSAnHvWfdLhzW8CWUWO3iprafawGetRSr8uajTgZrYR1uj6uY2COcqK7yx1EXdgUkPye3avIbWYg9a6TQ9Ye1kAJyDWtOdnqYVIX1PTLU20VpkqxVvWmtp2nsn2jaM9azrDWY5of3gDAdqaNZQ3HlhPkPGMV1KdzklGxozyxNbmNUKoKdGYYbQDaWVqhuXcwbrdAwPanPci2sBJOoUjtVGQi2FiMzPDhj2qYSxrbbVGxBWRB4ijnkEZT5CeDWteTg2SvFBux29aYxbeWBINx+YNUH9l2V1IZSmPwqWMxtYiWRBGBziqaa5bGbyRkD1FAF5DbRoYbcbCOCRTbKKPL724709PKVfNQZB60WzxSK2VwnegClNotlfytIhwat6faW9knlQKCR1NVpdTsrObykOCTVyExiJpoxuBGSaAG28ZMzMZeM9KoaloFtfzeYj7W74rRtFiuYiUODUU11aWAAaVQx680AR6ZpNrphHlFZJSPvHrU8CvJesTPn/ZzToxA0YuQc/So7FYJp5GjDZ96ZJX1zQ7TVGVS/7xai0vw9aaXMJWKu/bNbUWneXIZVYkt61INNV5A8pzimMzL2L7TcRlJvLCnp603VtIj1O2ET8N61sf2bb+Zv2H2qcQhegquUDjrHwTBFMJJSXGeldJJYv5aRxFUVav8AQU3PNFibmZqGjJc23kyyZUjFYcfge1+bEp/KusY5BoiFFguZ2maFa6dbGGH7x71Yk0tJk2sxNXiKcDWliTmZPBtg0rOSQT1qWz8MWVmxMRZWrebrUUn3xSsUQG3i2bDz2rMbw/YNMXaLcT61qn79BHNLlFzGYNF0+KRSkABHervlxouAvy09l5pGHFOw7lO40yzu+ZYVb6io/wCxdNX/AJdkq+o9qaRzVCeoRQ28aBRGoUVFNbWs3yvErD3qbbxTCuKOW5JU/srT/wDn1jqaO2tYOI4lSphUcgzVclhDmW2ZQrpmqxsLDcSbYGpwMkVIwwp4pWC5XitLSFt0Nuoz7VKxQfIUUA+1MD89KTBZ6LBcSWxtHHzwqarjS7FZAy2y5FXmHFMpWHcXCLgeUMVFPb28w+eBT9RUjdKauCaLDuV20nT2Tm1XmpbS0trVdkUSotT9qaRQ0FxrQwPnKA/hVSTS7Bs5gFXKY3NKw2yvbafZW77oYQreoqywjPamgUu2lYkr3OnW1xgvEpA9aKtUUrDuzdoooqCxrUA0NTM0hjyc008+9AOacKkRVurWG4jKTRhlbgg1k2/hfTrSYzwx/MOQDW8RTGXNLlRSk0YGo2txNOrqCoX0qPULPTru38q+UlyODXR7VPTk9Krz2sUo3GMFhUuJSkc1Z6HpmkTLcFyxI4BqZ3mkvhJHIBC38Nak+nRTL+85x0FV54UtSoMJKj0qHE0UjI1fw1Z6i4eCQRT+xqXQ9Ci0Z2kuZdzEcVYmW3gm+079gx0JpkN/Z38gDT7ip6CoKHCZp5ZLeRSYn6Vh6h4QlWUtalXVjnGa6TMHm4B2t0GaVG+yOzzyqB25qrk2KPh7SH0q0dpmBkxwuanmR9VtXgljCMeAatQCK6fzfPDfSnxoiiTy5ckcimBwV34Y1G0umjEBkUnhh2rstChn0rTVW4bPfaa0oppFjCzMCT0qAQzOXMr4HagDK8S2Mmr2WbQnd3UVxsWm3SXSR+VIjqR2r0ndNaW5aJQQPSpUYGAyvGDIRnpTYrkULLa2UQucFgB1rm/GVvPc2yy2+51H8K1vgPPCWnjyO1SCVYIVUw7lbjGKEFzzrRZJ4rtBAJN+fumvRlkjMSC7AjmYdqY8FjBi4SACTvgVBdoL7ZJIrpj7pFTcZzXi6S9WccMLYdxVTw/ezR38Yg3ShuvNdxIbUxpbXK7g44BFQ/YNO0x1lgiw7HuKAsTtBC77x8suMVx3iq5vIL5EeQhOoIrqZlSe7jkZmUD071Ne2em6iohuFw4HX0qQZzPhHUpri5eC4cuvUV0rRLCWeNjnoFqvp2kWOjsWjk3Ox4z3rQhtws/nuT8/QHtWsTNs4vVbrWZ7rFrC+xGrV8PXl8/7m/icD1NdnFEmwHamevSniCM5IVB+FXysOY59le2iZ1feOTg1x1z4ivTcsIxt2nBBr02WzhIb5eD1rk9Z8HRTztNbtguelTyMOZDtA1Q6nAyswV1q7Pcva2ZNxzGveq+k6NHpcDZ+aRu9WGgkuYTDMuUak0O6OVfxa8dzlEzEOAa6rSL9dStFlibap6iuUvvA18bljbH903QV02kaLcaXpPkqu6TrmpimK6L65Q/NUyOD0FQ2ltcyL86FfrVxLORRyQa05WRcQHilGamFtThbinysLkIpwAqbylFHliq5CbkOBRgVN5Yo8sUco7kWBScVNsFHlinyiIeKTj0qfy1pfLWjlAgGDSleanEa0FVFHKFypMjFTgVTjhlAOFrXwM9KT7pwBRyj5jAvLeV0IWJmas+wsL6O6ZpI2Ve1dd34FOx6ilyD5jnrcX0W7z4ifT6VHNLckNiEqtdKQD1qN1H91dtJwsJyucxZuU3bbYkn2qV7a3vWEt5ZghPauhEe0ZVVwadsUgBlFLluLmObW4Rd0FtAVQcD5aksrbYrb0Y7ueBW8tvGHyEXnrxTyFAyEUCnyIfMchdeEbG8naZ42QnnFWzbi0sPsdmhXHfFdJnJHAHaghM52inyWDmOdt7KRoPJuvnU9eKxX8Exi8MsTnb1xiu9+UEfJTScZ4p8qHzGGlr9nshb20XzY64701tLnu7JobjjIreBH90Uu72FPlDmOCh8AlZtxkby85xXRyWT2lkILKLlR1rcD8Uhf/ZqVEVznP7Mur6xaG54LVhp4GvElx5n7vOetd+H7DFIWJ61XILmMBdOuLSzWO1Ull60yW0uriPbKhBFdEH2jApC2SKiUSoyOSuomg+VqhDAjitfxHGAm8Viw8iuecLm8ZFa/g3gsRWHNEVc4rqJFDDaaytRtwikiuCrCx2U5FKyYrwTWipDLjFYylkkFa9qwKAminqrFVO5Sv4gQRWROu3iuiuYd6kisO9iKMTWNSNmVCVyg3B5qjdDdmrr5JNVJR1qoMplCQfJVYntVyYcVSY4Y10xJJEbaRVqOfGOazvM5qVX6VTQHUaNqjRsQ7fjXU2KxX6Bo3w4rzaOYrjFa+l6s9tIuxsVcJWOepC56/Y2rxwohPbk1HrGjz38BjR8Vm6D4jSe3jD/ADGurilWVEZDgHmumLuckocpxK+Er2J1wQfxrqbaxeK1SN/StInvR1rblMrmHq2kz3VoYYZNtc+PB96hyJRn/eru6SiwnIx9J0ueC18u4O+rE1jI1pIkIUMRxWhSc0+UEzhX8I6jLIzyPhj0ro9C0y4srQw3Dh8itgE/xZOelIVBx1Bp8o7mbPZSC3aK3whPesy38IxyESX8rOSc9a6FgxbGeKTLLxnj3o5QuJbWNvbwiNFBUetSqkag7VAqNpGHuKQOc8cA07AThuBSljUIkpfMosBMH6UFqh30hemA5pOaYzDFRs2TSMCaoRIj5NOVhuqJBzSgHdSEWSaM1HnijNUA5qjYc0FqaWzSAY3WgUGgUCFIppFPNJQA3FRleamxSFaYEdNNS7aQpTQiNV4qGQc1axxUZjyadySKMHINLIxxipCpXpTGQmkMhoGaXY1BRqAFz70cUzmjmgB5NJxTc0Zqhjs0ZpmTRmgBSaaaM0lSxjs0uaZmjNIB+aKbRSA6CiiisixjVCxxUz9KrvTGSI1SZqunWpgeKQC5paYTRuoAdgUhozSbT1qQGMh6ioiuTzVsEdKjdQaLAYuv6CupWxEUzRt7V57e6DquiXaybHkAOQw7V60OKJQkqYdN6+hrNwNFI5yylFzZwvepskP8QrnvGKXIKNGW8odxXaapYCSEGDC7f4RVLNt5JhukznjDVnyl3OH8N6rcWd6EfMsbnG2u8jRXbzYjtLDlap22i6bp0xulByeVBqSVmeaOSBgq9TUpAcx4m1q6jvvJVmixWl4V1prvMF47MexrU1DRrDVBmRtkp71HpugWejNlnLyH7tIDQkzaI8gfzdvzbWrjbvxTdm7fySqorfdxXVpNObvZtXyj96sXWPB3nu1zYP8AfPK1VxWNXQtXOr24QtskHarkkj29uxulBCHrWf4a0R9Ngka5b969WcyXcdxazKQjcK9MqxhTeLk+1qkaZiHHNdBFftd2guLfD7f4fSuQuvCt7bzMIV85G5Bro/D1jLpmmO1wCGP8NJKwFy4vEjthPcgZAz9KzIPEllPcBJUBGeM1YubcazYuiZjYVyTaHfx3HkmAtg8MKGwO9mlUbJI4Q0XUYqK6uLeLExGD95hTdLim0/TkW7OcdjVa/wBNfVmUwnaM/N9KaVyGy/pSR6q5mwwUHj2rVmhGAB/BU2nW0NlbLDCoGBUrJ1rpijKRDCeBU2KijGCalJrUkXtikIHpS0UhEXloTytPEcQ/hpST2pMmkA7IHSjdTeKOnagLjtxoyabv9qTce1AD8mlzUeTS7qADFLmk3CkzTEOzS5pmaN1AD+KOKZk0uTQAuaM0YoxQMKKKKAEooooASlpaKQhDSGlNJQAlFLRQAUUUUAGKMCiigAoNFFADMUYp1FABRRRQMTHNFBopiExRinUUAZ2sweZak46VzEQwSPQ12d2u6Bh6iuPuFMVwwx3rCojohsOYdDVW7TzEIq5H8y1HIoGa46kbnRB2OauF2P8AjV2ykyuDUOoptc/nTLJssK5Ie7Kx0vVXNT73FZ2oW5KHA61pRLnmnXMYKVvNXRknZnIvFtB9apyxjJIrcv7YjLKKx51KtXG1ys6Iu5nXaFVrKlzurWuyxU1kz5FdcBEHLHipFbaMGo8gUhOa6lFAWo35xUwYg5FUYmwfarKvxzUSgBq6fqksDgKxGK9D8M+J1ZVimbtXlKths1o2N20Tgg0oS5WZShdHv1lcLcQghsg9DU4rzvwr4hOVjlbArvrO6jnQFCD712wmpI8+rTaJ6KKK1MRKKKKBiUE0uBQRQBGaaakIphoAbikK06igYwLTwvFFKKAG4oxTsUuDTAiK0oWn4oFADQKUCnYpaYhMUuKWlzQIjdBioWUirRFNdRSEVDnNOAJp7jFIj80FCFTQqmpCaBQAYooopgNxQRThQRQBEaSnkUhWgkQgGk2Ck704GgBNgpCgp9JQAzy19KPLX0qTPtRQAzYv92jYv92n4NGDVARlF/uCk2Ln7gp9OAoAj2L/AHBTSi/3BUx+tNIqQICi/wB2mGNfSrJUetIVFAFUoOwoqztFFFxmip+UUHqajB6VIayLENQSCp6jkXimMgU4NSq2agbg05DSAmNJRnimk0AOzTleog1PU0ASEUlKATQVxQAEConBzxTzTlwaAIM5ODVW9swyllHzdquOmDmgNldp+9U8pSZxM/iD7FffZdQgZFJ++Rx+dbkd0ksSvEgMR7jvVvVtPtL+AwXca8/xAcj8azLPRptIt3xIZYP4c1i1Ysmnnto285hs2j1piX1jfSKTMC6ngZrN162l1GwItFYOOoFcZbrdWd8VZHV196ybKPUGktlmUOCD/OlEi20jSGXap6KTVO0G+0ia5XbIAOTWL40N5GitACyHqR2o5gOjWT7VPlZhjuAafLEUk2xvlWrzbRdVu4b+NY2LbjyDXpMbLNHGZPlfFFxhbyTxkiTaOwqMC7lmIfHliuT8WXt7a3OxCyx9Q4pPC2v3TXawzbnR+CTVNgdjGhjVzCBuHYU8TMYQSo8ymrDtkeSJjgjoa4vUtcvH1f7NH8pBxj1oSuB16faLv/WLgdK17S1WCIKvXv70zS7YxWSeY2XZcmra8YraMTGUgA5qQnC01RzRLwtbGZGD1+tSkfKtQJyKsH7q1YBRRRQAmCe1Gw96DIBTGlz0NIkcQo6mm7kHemYZu1KIvUUALvXtSb/SneUtLsAoAZuJpRmnhRTtooAjApwWnYoxQA3bRsp2KXFACbaNtLRQAmKKWloGMxRTsUYoJEooooGJRRRSAQ0lOpDQAmKQ04000AFFFFABRRRQAUUUUABpO9KaTvQAtFFFAxKKKKYBRRQKAGuMpXMaxBtmzjvXUmsnWINyZA71lURrTZjJ0FRy96kxg1HN0rlkdETG1VON1ULVtorXvo/MjIrIQbZCK4JaTOiLvGxpW05PFXsB4uazrcDjFXozk7a60royejKF2nBFYl/BgE109xDkVj38XB4rlqQsb05HOSoGQgjmsa9gK5xXQXUZByBVG4h3ryKVOVjVrqc8ynvQBVy7gKngcVXUV2RkSNA5qVentTeKUN3q2BIBipY2INRA5FAbHFZNAatrevCwIY5rsvDfihoZFWVvwNefI3NTxzlDkU4ScGZTp8x7/pepRXsQ2MDmr/SvIfCuvvBJGjtj1r0/T9QhuoVIYciuuFVM4Z0mi/Sc00SDtTt4roMApDRuFIWoAQ0004mmE0AFITSUuKBgDUi0wCngUAOxQRSZNLk0wGkGjaadS0ANpKcaMUxDaSn4pdtBIi80MKMYpMmkAjICKruApqxmmSJuoKIlen5zULjbT4j60APooooJFFLSCnGkA3FBFLSE0FEbAU2nnmjAoASkNO4pDigAooopiFBpabSZpgKRSE4pc0hFACZooooAKMUUVIDf4qKKKALa1KKiWpBURNB1NanUjUySpItMU4NWHGarsMGpLJQcikNNQ04mgBvepFqPvTwaYFiM8U7Gaij6VMppkkbLTM4qdhkVEV5oAXhhiq80ZBzU+D2pDhhg0mIqSKJMqe9FrPu3W7np0BqR4irZFULvMcyzrxjrUSRomWJbdUDCFdr56CqcixoN88A80d8VpBkkjWZe9Ryqssbbhz2rBxLuZM3mTw/Mm0dhTopI4ohHOuUbjBFSqsi5DAKR92q13N5Ns810flTkkVJQken6XbyC6EA3DpVh5EuSrcxgdMCuRXxvapP5bQ7o89TXVWuoi7sfPtVDjH3QKAJ5Y7G8Q210quW6ZHIqtZaNp2kSNIoJJ5Ge1Ld38Fpbm7uECMB/FWVa+KNNvZwkkgBJx8xoGbbyZmWVH4P8NPGh2l7eR3boPMH8QFSRxRShTGq4/wBmte2URRgAVtCJlOQ8qAMDoOKTGKduyaa5xW6VjJ6ig0sp+SowadIfkqiSOOps8CoEqTPFMY/cBUbyE8JRtzUiBF7UDIljZ/vHFPWNU7ZqRgD0FN6deKBC59OKXNNopCFJoFGKBQIUigUmaWgBaWkooAWkoooAKKKKAEooNFSAUUUUxhRRRQAlFLSUAFIaDSGgBM0UlKKACiilxQAlFOxRigBlFLiigAooooAKKKKBiUUUUwCim0UAONQ3MYkiYe1Pc4rP1HUVt4zWVSStqXBNvQy7qExsc1QuOm4Gqt9rvmuyisttUYA5NedUqI7owNC4bKnnFYjnbMec1JJqZPbNVTP5j524rnckzdRsaVrJyKvxSfNWTbP0q6knPWuiEjKUTSZgUrMvQCDVxJAUxmq8y5JqKuoQ0MC4jwTVCQAA1u3EOc8VlXMOFNcqVjouZV0iuhwKxpkKMcVvuAARWZewEHPauqEhmXI9NWWpJ0qtjFdy+EktpMMYpwk5qkpINP38VPKBdWTmpg+az435q1GwxUSiBfgnaMgg10Wj+JZ7RlBcsv1rlFbino5zxWeqJcUz0218Y8/Mx/OtGDxXEwwWrymKVxjmraXbKRxR7eUTN0EenzeKI8BValHiaMkDzK89huyy80plJbdml9ZkL6vE9J/4SaHZ/rOlMt/EMb7m3Z3dK83eZ3HUilt5nXozCj6zIPq8T1SLVYpJETdk1da+iXCo2TXlkGqSQ7juJNamlas4k8x2ya1hir7mMqFtj0mNs85qTNcxp+tqQNzbmrUj1JDG3PzYrpjVUjB02jSDA08VRspfMUNmrocCt07mTHUUZopkhmjNN70tIBc0opopwNUAU1qdmkNAiM0valIptAEci1F0q03IqFkpDEDUuaiYEGlU0ATA0pNMWlzQUOzSGkzS0AJRQaKQCUUYpaAExRSk000xAaMUmaM0AJS5ooxQAhNJmgikoAXNGaMUYpAFFFFAi0tPFRrUgqImg8UNQtBpkkZFQTDFWTUEozUlldTzUgNRkYNKDQA/vTgaZTqAJ4+lPzUUZ4qUUyRwoNAoNADaMClxRigBrLxWffQ7oiK0z0qGVNyYqZFIy9KcGJ4WPK9KnUnJFUpT9kvgw4BODVmclW3L0PNZstBMNwOOWHSs+4tnvLeSCeLCOMVdSUtIpxj1rSBXaM4NZNFHk+peAL6K4P2ZvMhPI9q67QLGTR9K2uGaQLytdcNmOlIVjPVRT5RcxyWp2yeJdOaDaYZOnT0rg08F6xBeCLYGVTuDKP1r2g28I+YRL+VORV/uY+lUo3E5Gd4bsHs9LiinYySgck1p9KcOOnFRua2SsZMGJxle1KJRImO4qMfKfY1C58uTK960EWOlISelNVsgU8LTECjnFP2/NmmKp3VIuaAHY4oA5oxTgKYwUUpApAKRs0Ei8UlFFABmijFBpCAClpAaU0AFFFJQAtFJS0ALRRRQAhooNFSAUUUUxhRRRQAU00tNNABRRRQA3FKKKUUAGKXFKKWgBtFFFACUlLSUAKabTjTTQAZpKQmjNAC0UUUxiGhOTQ9UL3VYLLrt3fWspzS3KjFy2IdVulj3qr8rXH6tqjlSM5FR61r/AJ08mPlyT0rnZ7p5e9ebVquTO+jSSRNLPuYnNQMxNRoD3pzNiuJnWo2H8CgShTVWWQgVTkuSD1pqINGst8AeDVyC73gc1zaPkZzVu1nwcZrWN0ZtHTwXI4Gat71YVz8Mp61et7jJAzWu5m9C66Ag1mXkYweK0i4KVTuQChrCasVFnOXIHnYqC6QSLgVevYvmLAVSRiGOacGbXMe7hKcYqhKCtbd+pbnFZU0ZYV6FNiKuaVTmo5Dg00PiukRaUVMpIqrHLxU0cmaiSAsqxxip0OFqqjfNip84rGSAmWSpFkPrVUGpFNc8olF+GYircb5HFZaNirEUuKylEo0NwpN1V1lzT92azsFiXdViGQgcHFVVqQHAqRcpejvHiOVY1o2usSDG5jWEjYPPNShm/hFUqko7EuCZ22l6xvYDdXR218rgc15hBM0RBBwa3tF1MmdFkfaq+9dlLEdzjqUex6KvKgilrnn11QAiNir9neGVBls16EaikcTg0aIp1Qo2alB4rQgKM0GmmqAdmjNJQKBCmmkU+kIoAjBp2MikIxQDSGRyLUeMVM9RHrQAZpc000qigoXNANO203FADqWm0ZpAOpDSZpaADFJilopCGkUmKdRQAyjNOIppFACZooxRQAmaM0uKMUwCiiigCxT1plPWoiWSLTu1NWndqZI01E4zUppCKBlOZaYtWJVqAjFSUOzRmmA04daQEqGpQagWpk5FMRIDTqYKcKYgooooAKDRRQBj65a+ZF5q9U5qOwl+02XP3lrYmQSIyHoRisC0SSz1J4/4G6VjLQtMdKxQblFWrV5ZVBAqlqD7VbaeKg0/UZEO3PArnc/eNlE3syjqKXzJB/D+lUl1KTPQVINSbHKitFITiWRNJn5hVlJRjpVBNRz/AACj7dk8jFaRZDRfLk1Gee9RLdRN3qRWjbo1aJkNCgZPWmyqMU1229KahLmrJFgyDzVoYxUQGKUZzTESjg0+oicU9elMQ8GnCmLTxQAtFNopkhRRRQMSilooASiikoAWjNFJipAXNAoxS0ALSGlpKAA0lLSUALRRRSAQ0UUVQCUUUUgCg0UUANpwpvenCgBaSiigBtLRSE0CFNNzQTTc0FDi1MJooxQAg5607pSEUfd60AOzmobi6itkLytgCqeravBYxFtwzzXn2ta3PfO2xm2muWriFHRG8KTZva/4uA3xWx56cVx9zfXF1Jl3IH+9UGdnzPy3vUE90B/DXBOq5HdCkokzIDy5zUbSxLwaz5Lp2OAeKahYnJrBm0VY0lbJBHSiTuaRRiNTTZWIjNSWVLiQhiKyZZm3kVpXmRHurHnbB966IK4EizEmr9lLngmscuQOKbFeNG+M1ryMzkdpbsCMCrSjHOawNOvNwU55rZD5QMOhpcpkaNlOCPLbqKdPEfvDpWaJArhgea2LZ/OiA71Eqdyb2Zj3Q6jFZU8ZVsjoa6ltGvLp2FvAze4BpU8EatcdY9v1FTGhPoX7aK3OOlQOvvWdPHjPFd1deBdWizhM49s1hX/hrVYPmNoxHcgGuuFOcRqpF9TiriIhuKgZMd627i2ZWZWTDA4NZ0kLBuVroTYuYrjhamtutMZaFbZV7lFnftepBNubFVd2TTlbDVm4jReBp6vzVTzcnGaesgHWocSi8GxUkb5NU1lzUiP6VhKIF9WxViJsis9ZKsRPWLiWi4rc1KhzVUPU0TZNZSRRZUVIpxUaninA1mwJTwM06FyDxxTV+YU5EwazJkXYL2VcBzuHpXQaXqXHBYVy446VNDcPERtNbU8Q4swnTUj0Cz1Df35A61dtLzzOA2cVwNvqMgBw2M1uaLdNzk8HvXpUsQpHFUpWOwVtwzmgniq1tOhQc1MrK3Q13xd0crVh4NOFR5p1UIkBpT0pgpc0CGsKYTzT2qJutSWLmo3p4prUAMFOBpKKAJFNKaYKcDQAYpCKfRQBHiinmkIoAZupN9OKU0pQAoalzTduKWgAzSGjNJQAUUUUEi0UUUDEooooAsU9aZT16VESyRad2pq07tTJG96D0oPWg0CIXqCQVZYVDIKRZXzTgaY3BpVNIZMpqVDg1ApqQGgCYHmng1CpqRTVCH0UUUCCiiigBretVbi3V5Fkx81WmqNqiaFE5rWMozJ2NZtvwwPar3iMOswY9DWfAcHnpXmT+I7YbGshyoNSCq9u2UFTrW8XoJkimlJpgpc1omQxc4pfNK9Cab1pNoNO5NiYXTbeSa0bIbo91Y6rmULW7ax7YgK1hIiSJMcU0dakxxTcc1uZgaep4ptGaBEopc01TxQaAHZozTaKAH0U2imA7NJSZooEFFFFABmlFJiipAdSZopcUAFFFFABRRRQAZpKKKQBSZoNFUAlFFFIAooooAKKKKACijNFAAaYTTjTDQMTNLTacKBhQKKhu7uK0TdK22olJRWo1G70JZWWNCzHAFc1rniONIjDAct03VmeI/E3nL5VucDJBxXItIw3NI7HPIzXBVrt6I7KdFW1LN3eTTFjM2RVGW4VVAWoLi7+UgGqT3GQPWuRps61FInnuTnk1SklMh4PFMlbceaagJNWkUSLgCrCqGC1Cig5qzDgIKiaGi0MlBjtTnUGPNPjIC49aQoRlfWsjQp3SboqwbyIoxOOK6aRcrtqje2gdOK2pzsDOZeTbkGqM0p35FbV5Ylc1g3SlCfrXpUmpHPM09OvijDmuv028WSEAnOR0rzq0kKyfNXZeDg15qlvb/3mAqpUeZ6HM58u51eiaNc6rdFVjKpn7/pXpWh+GLLTIhuQSS45ZulX9OsIdOto4LdQMD+73qyGzxXTToK2pxTrt6IRERBtVVT6CnqMd6Z3pwro5EtjncmxxpHjRxhlB+opw6UDk1XKiVOSMXVPCWj6mpE1pGrn+NRg15n4w+G91ZI81g3nR9cdwK9oxTZNrqVcZFZSpLob068k7M+VltWUuHGCnG01QnGK9p+J3gZWtn1TS0VXzl0Hp9K8dulwGHoa5rWZ6cJqSuipE/zc0ssm00xB81Mn+9TsXzEsUpLVO8h4qrEQKkzuNS4lKRdibIFWEaqUZ2iplfNYSiWi6GzViFsDmqKNxUySVjKJoi8HqeGTFZ6SZNWIzWEoFGkkwqeM7qy1Yg1dt5eOtZSiBoxrgU4daiikyKlXk1zSJJAKMUopcVAhAxUVpWF2YwBniswjmpI221pSqcrM5xujrdP1AthOueprobSYeWMf/rrgrK48rLbsE9q3LTVAAr7shfuj1r1qVa/U4Z0zrFZT9adWTp92ZE85+WzgLWopz1rui7o55RsPooopkWENNIp1IaYxuKYakprUAR04UhoBoAdiiilFABRmlxRigApabRmgB1FNzS5oAQimlafmkoAYRTSKlIpjCgBlGaDSUEi5ozTKKAH5opKKALJ6U5fu0w9Kev3ag1ZIpp4qNaeDzTIYtFJRTJGtUTipjTGFBRRkGCaYvWppxg5qAdaksnjqQVBGamHSkBIKeDUQNPBpiJAacDUYNOBoELmikzS1QCUYooNAGbqtotxAysMv1Brk8NFIUbgqcV3R61zXiKxaKYToPlbrXn4inZ3R0U5dGRW5+VcVfiTcRVTSIGnVSF+Wt4wLb2zsR2qYXtqU5K9ig0RB4qFjhsGmxXTNJg1PMmRurURHRTc0Zo6kssafF5lxkjpW6BgYqlpcO2Hfjk1ex3rpjsYyYgFBFOFBrUyITSAGpMUYoGKvSigUtABiinU00AGaKKKACiiimAtFFFABSikFOFSAUUtIaACiiigAooooAKKKKAG0U6igBuKMU6igBtFFFAAaaacaaaChKKKKAEooooASjFKaztU1iKx67enHNZymoq7KjFydkWL2+jsoi7kZ9K8/8T69LeybUb5OnFV9c1ia9uWIYhawriUjqa8utiOZ2R3U6NtSZ5I0iyTlqzLi5Z2x2pk1xwaqNN8uaxSfU6ErBLId5HrURJ3AUhYn5u9PQ5wTWhSE5LVKg+UmkRc5xT0UgY71Vy0h6j7ue9PT5WIHSo2OVA9KkU/KcdaymOxehYmMGpT0BqK0IVAGqxwcisGMhl6UwDIqcplaRE4NCdmBnXsScnFc3qdohywFdVchSCKybmJXyuK9CjOxlNXOQkQoflrv/g1D9r8RDzBxGua5DUbVkJ2CvUPgfp+1J7sj5vu16dN3PNrvlVj1wNjvRuqPNGa7o7HASg5p4PFQo3NSE4piHqeanjWq69M1btfmGKCTD0a+mu9VvYG+5E20Vq1heFEYajqEj7lzK3X6mt1fepYiOSJZYpIpOVcYIr56+Jejf2PrUiquI5SWWvodmryz456f51lBdIMFSQTWFSNzvw8zxg/LzVeRtzcVIzYTB61XXIbmsUdrJUNTx1AKcr4NDEmWw2BT1kwKql+KcG4qHE1Ui/C+RU6isxHOeKuqx2Vi4lqRZjbDVcjbI4rJWQ7hV+BsJzWMkbIt7s8U+JyGqoj5apA/zVzyRRsW8nSriPxWNby81owvkVy1IgXVfNSK1VlNSIc1ztCHk5NPU00ClPFIzJFbnip4pvLbLHI9Krh12+9GMjPWtYzcSXFM6nTNSVI92Ov3fataLUjJtEZ3H+KuBS4kRSEatjSpnBQI2GPWvRoYg5KlM7qCT5Rzk1OOTk8ViafcKhO5sletasUwfk9G6V6EZXOScWiag0UGtDMbTTTqaaoY000U8imGkA9TTqjU08GgB1FJmlpgJRS4ooASlpKUUAFJS0lABRRRQAxhTSKkNNIoERYpKkIppFACUUUUCLJpw6U004VBoPXrTx1qNetPH3qZLHUUtFMkQ00inmmGgoq3A61VPWrsozVJxzUljlOKmU1BUqdKQEwpwNMFOFAhwNOBqMGnA0wHg0opopwqhCmmmnU00AMNRTok0ZWUZFTmojUTSa1KQy0hjiTEa4o1Vilg2TToyQTuqpr04+xECsGrF3uYVu581fetuJN0QXPJrBgcF0IrS+1FCMdqgsfLAyZpLVQ0wDU6O4MpIPehwY5AwpomWxtRNtXAqQPmqUEm5RVmOuqJiTg0uaYDThVksKXFJilFAgxRS4pDQAmaKBSigAxS4oooAKKKKQBRRRTAQU8U2lFIBxptLRQAUUUUABpppxppoAUUUq0rUCYlFFFAgNNNOppoGITTSaCaQ0DDdRmm4oxQUFFFAoJFoPSndBmsXxBqf2Sz+Tue1Y1ZqCuXGLk7Ih1nXEgjkjjb5h3rhdQvnuCXcnmlvbszljnrWVPNtGK8irWlJnp0qSSGTT7TmqNzIzc06WQFuaicnrWa1ZulYgYE00R57VJuGaQyYNbAARSCO4piLkEd6lVScsO9OhXLe9DGhYk2gDFLt2k1MMKPemHrzU3KRVkQ84qW3JWPLdaVjh+aljQNSkUSQtvFWUUg1HDH3FWkXNc8hDsYSmgZFSdF5pnUcUgKNygycVmyjDVqXKHk1mzDDV10pESMm7XLfjXr3wsWODw8HQKGc8/lXkl2OT9c11/ww1v7LePYzN8r9Mt0r18PI8zExb1PXhJmnBqppNkVKsvFeijzi0rVKDkYqor1PG1UBYQ4FWrVsGqgOanibAoJFkjjjJMYAzUTvnrT5GGeKryvgUhA71wfxfO/QVX/AGxXZSS88V5d8YNW3Sx2kTdPmIrnqs7KCPJJ1+Y1ERjHFX1iD5zTLiBVUGudHoMpmmE1Iy1Cw5rQzkSKeKfuqIHilzgUmEWW7cjqatvKoTArOic4p5Yk4zWUjeJctzukFaOcLgVRsl71eHNc0jeLFRqeG5qPoaAeayaLuXIW5rSt34FZMLc1ejfArnqRHc01fNTxGs+GTNWUfFcziBeDAUv3qgjYsKmXgVkSPWMYyaViBwKjaQngUKp6mgQ4AKMgVZtJtpznBqueKZnByOK0hLlZElc6bTbobhzyeprbsrwM5Xd0rhIrrZwucnqa1bS8fCgN0716VGtc5KkTu4rlCMZ5qUNmsXSl3/PK1bMO3OQcivQicg6ig9aKsgYwpjCpaYwoAYKeDTCKcKAHCnCmCnCmA6kJoppoAKWm0ooAWiiigAooooAKKKKAAimkD0p9IaAIyKKcRRQA8U4U2nCsxjhTqaKUVQEimnUxafmmSIaaacaaaAInHBqnKuGq+w4qpcLUMtFcdalU8VF3qRaRbJ16U4UxOlPFMgKKKKAHrSk0wGlzQA9TSmmrSmgANMIp5ppFDERmsXXbeR1Dox2jqK2mqGZQ6kNWbVzSLOShYq2DV+MbxUd9aGGYkD5TVmyTcoNYJamhNBHtGRVor5iAUsUOKnSLnitkRMpwO0T7GrUhkBQEVWltC7AjqKswRCPGa2iZFhelPApFFPA4qyJbjacKTHNOFIQGmN1p5phoAQU6kAp1AxKKDRQAUopKUUgCiiigAooopgFFFFABRRRQAUUUUAFFJRmgQoJpCaaWxSCQd6AHbjSb6DIppCM9KAAkGmmjYRRmgtAOlCjmlU5pw5oAQgbqUgU0USHC5olKyFuypqd2lvbsSeQOled6pfPdzvuchM8Ct3xPqBaUxoeR1rk7h+STXj4mq27HpUKVlchuGAGFNUJ15yasTtkZFVnbJ5rkidiViq4+Ymo2OAasPjccVC6/ITWiAg2YG6lMQI8yn4/d49aOwStEBInApQMPkUn0pM+lIZI1Rv605mGKiZ8ipKDZuNWrZcNiq8TAirUCFjxUS0AsxqC1XI1UACoII9vWrSqAK5ZMBskYIyKiCZqc5xTNpApXBleeHctZtxb4rcCZXmqVxESelbU52M2jm7mDJNQW7vaXKTxHDIc8d62biDk8Vm3FuQTXpUaxzzhc9Y8Paymp6ekit8wAzWyk/vXkfhjWJdKusEnyW4Ir0ezuhdQLLEcoRXs0q6ktTy6lLlZtecMfeqe2nycdawjOwPHSptPuyZsE4rpTTMGrHTxNnmp1zVS1bIHvVoGgljjVDUZfKSrZauT8Ralm4KhwqR/e5rObsVBXdg1DVRa28lxI2Ao4HvXi3iO/fU9Se4kbIY8e1a3jLxNJqErW1uxWJTggd65Tf61yTlc9OlTshVQ7jTZxlcVIG4zUTtmskbspMMZzVeTrVmfiqsnNboxkKpAFL1FREcCrUEO4ChkxFT5Vp8S75OKfPFsjqfTotxyaxmdMSzbrtFTbwKRxt4FM2kmudmyJN1KGph+UUsbVDLRbhOKso9VoulSqcGsZjLsT4q3E2aoRGrkbACuaSGXUbAqZXzVKOXNTpIKxkiSwvWpN4xUAbNLms7CJRlzxSSAAYNN8zaOKiMhc81QhryBGwK0tLmVTmQ8VlzADnvTFuSowT0rSnKzJceY77T79AAA2V71v21wJAFQ7fevN9KnZsBT+tdXpdyBlXfc3oOgr1aU7nHUhY6pTlRTWqCzm8xAc9athQRmu1anK0R0Yp5XFNNMkjahRmkk4p0R4oJFUc05hQOtOamMZSNTjSNQA2lFJThQAUUUUAFFFFABRRRQAUUUUAFFFFAC0opKUVmWOFOBpopRVASLSk01adTMwooxRQAh6VWnHWrVV5RUMqJQbhqehqOXhzTo+aRoyynWpB0qJOoqUUyAop1FADRThTe9OFADhS0gpwoASiiigRG3eq03SrTd6qTfdqZFRMy/+cc9qn0tAYKrTAySFRV+wjMSYNZLc0bLsaLt4qeNBim28eFyam4A4rdIychMAGkxk0d6coqkTckUcUpoFDVRDEFLSClpAIaSg0UAApaBR2oGIaKDRQAUopKUUgCiiigAooopgFFFFABRRRQAlFFFAAaaacaaaBBSYHpS0UAN8pKrS2bb2aKZ42/A/zq3RQBQaW9tPvxpOvcg8/lUtpfQ3XBPlv3VuKtf8CqGe1im+8Bn170DuLLEynzYjuHcCkQ+bh4jyOoqpm4sc5JlhP6UrXMQAnhIQ90/vUDuW1cPlvTg1U1a5+zW5YGlnmHlLNGPkfk81zOtX7zEp2+lcleqom9KF2Y2pS75ZH9TWPNJkGr1w2SVrNnXatePKXMz1YKyK0zelVJpdpqaVscVTlQsaaVjQBLk0rvuGBUSxnNSRJ8xzWoDWfICjtTh1BqMLiQk0pfHFAEoO1tvrTpQETioFJJHrUmSeGpiI8nGaac4NSZANOIU4pFDLdGZq1raIBQe9VbeMdRWhEo28VhUkBIq4+tThDtBqEKQM09Xfv0rnauBKOlBAoAyM0HkUkgA9OKilUEVOo4pjjFCdgsZlxHyeKzriHrW3Kme1VJYc9q6ac7ENGG8WBWloniKfSiI2JaHPSo7mLFZd2nBGK76NWzOapSuej2fiLTbtQwnCMeoZgMVYhuITeI8Uu/n+Fq8jDMhypINb3hO5nl1WKNZDywzXp06zZwVKNj3axO6MVdIqjZKUhXPXFXQc9a9D7JwlPWbyOwsJbiVtqopNeD+JvFUuqSyojFIc8e9emfF69aDQTBG2GkIH4Zrw+CBizZ71w1p9D0cNTurserKRnqfWoHKluBVoWzBTUAjIc5rmTPQtYaRhaiYVZkHyioH6VaIkVJ+lVSOasz1Djmt4mEhY4t+KvxoIxk1DbDAzTZ593yilIcRzObiYKvQVq28YijHrVXTbdVG9qvFwTXPJ3N4oacsacI6GIAp0TbqxZqRyJxTEUirLLk0qRis2AsZIFSpyaRQMU9ODWchliPip0NV1NSA4rFootJxUyZzVWNqsxnispIRYVsCng5qFDk1YTAFY2ERuDnilHA5px68U1zjrQBBM2eOtVyO54qZxnJ6VBIcL61UVqNbFqzuPKI3HNb2nagGIHmbV74rlIzuqxazCKQE5Yf3a6YVOVkThzHpWm6mkgEcSMVX+Ppmt2C7VlC4/WvO9LvJ5XCxjy1XtXVWE7Njcfm9q9KjUucFSFjow2RTTUcLZFS11HKyKUU2I0+XpTI6CSUHmnE1GOtPpjA0hpTR2oAaKUUlKKAFooooAKKKKAEJphNPIphFACinU0U6gAooooAXNGaZmjNZljwacDUQNPBoEyZaeKiSpRVkDqQ0UGgBDUUo4NS0ySpYRMu4Hz0QmnXQ+Y1DEfmqGaouL2qdelQJ2qdBTRLH4pCKeBSPVAR0UUUgFBpQaaKcKAHUUUGgRG54qndNiM1al4FZd9LgYqJMtIksIN7bzWgIwX+lUNNugcIK1BgUoq4pMeMBaM1GWpymtkZjgKkWkUU4UxC0GikNAgooooGFFFFAC0lFJQAtLTaWgBaKKKACiiigBKKKKACiiigBTTacabQAtFJmjNACUUUUAFFFFABRRRQIaaKDQelAB8uPWs+/tAB5kI69VzxV1typuTj61l6hqAWKQOFjbpyaiU1FalxjcyNQ1P7N+65weMDtWNcSiU5BzVi/3Sguhyw/u1ju//LWJflydyehrzqzUjvpRsJcZ5qjcjMdXzL5kZO2qNx908V5q0kdsWZc2Q3NQuwHNSXe7FZ0xfFbxLLBlJahWbJqqpZVyaniJIrQCSJdxINKYeh9KnjjKKCO9MQ/MRUgRxj5ulK/Bpxyh4ppIJ+agCJ8npUkQyRQwz06U+MgMMU3sM0LWMnArRjjAwDVW0B4xWgi/KN1cNTcBCnGFqM8HBFTMu3kHigqrCpAdGoI4pWCge9NjOzih1zyDSAZ0NMbrUg6c1Ew5pALtBFV5UFTE4FRlweKcWBRuIgQayLyLBNdBJHkZqhcQBjXZSkS0cvOhVzXS/DK2+0eIFyMhME1m3dryeK7X4Safsee5YdTgGvYw3vM4sR7sWeoRD5AKlHFRxdqc5wCa9Sb5YM8WKvI8z+LEjXNykCN90V52bUxnJrtfE8/2rVJnzkZwK56dFb5a8Kc7yPaoppGfgCEk1QEZeQntVu7zFuU9ATVUTAjC1UToGyooqrMABxUrsd3NVriTGa6okMqycmmlUxSF85pyBSvNaoysh4O2PC0kMQY5NGRjApBnoDSkC3Lscu3CirakBAcVTtYGc5NXfLZRiuaRtFjNzSHAFWoI9opse1Bz1qQOOtZM0JCvFMHWnb8ikXrWYDxgdaAwJpHGaEWpYyVW9KlLcVEnHWpUwTzWbQEkZzVpM4qvvUdBT0lqJIC0OBmplf5aqiQYpwkJHArJoCfzAOp5pG2v061CqljlqmBVB70rAMbgc1WlYdqllLNUJIHWqURke5m68VNEyL161A70sbJ3q+UDbsrwoQQcV0Wl6jGhGw7m7k1xCTAP8u6tnTmkH/LOT5vTit4T5DmqRud/Z3rTyD5vl9FrVWXaQo+auW02c2iDKou7vg5rYsLje+VRj7mvQpTucc4WNSQ5FMSmySZojatznZLTxUWaetMB5pppaQ0AFFFFACUUUUALRRRQAYoxRmjNACE0maUikxQAtFJRQAlFFFQWAp4pgp4qRMlTrUoqNOtTLWhAU00+mtQAlRyHrT81G9SwiULrqarR/eq3djrVNPv1DNUaEXOKsqOKqwHpVxelNCYopHpwoccVQiE0004000gFFOFNFOFAATShgKaxqCWTHegBLyQLGQKw7qXPWrl1P1zWXI3mPgVkzVbGjo0DSzeZ90Ct3ufaqumRCK0BI5IzVnrWkVoZNABTlHNCipVFaGYo6UtFIaAFzSZpKKAFpRSUCgBaWkpaAGmig0lAC0UlLQAuaM02gGgB1FFFABRRRQAUUlGaAEooooAKKKKACiiigBKKKKChSabmgmmk0CHE00mkzSE0bDsMuJcR4rltTn8yZl/iq9rd8YWIQ84rBt5PM5PX1rzq9VXsddGGl2Qzq4YNEzMo+8veqd/BFN+9hYqy/KR71qSAIpYfe9az5FV3P/LPPVPf1rn3OqKMppjE2w9SOvaiXBXCjI9aj1BGHO75VOKWGQOiovSuSSszoRTuYuOlUZ4xn7tbF0gC8GqMiknirixlcJlRuGBT02rjAGRSygqnPFNUgtx0q7jHMWzu9e1RqGV+R1qSXJkATpQxwMHrSAZIPXrUBVg+T0qw5AFQlvm56UwEwWPy1IikHmhME8VMMUpPQZfs2IxV4OxIzWdatyAK0Yj8ozXJPcCYAke1KcD5R1pU4XJprMG5HWpQDo1HekZSre1NXOalIyKAGsAVqu55qSXI6VERxmkAjYxUDAZzUhOail+UZosMVn+Wqcpyal80NxUUhCnmtqYmVimTzXpngOxW10kEDBbmvPbRVmuVj9WFetaNEIrKNQMZFe7gIt6nl4yVlY04RxVLXrkWumzS5Iwpq9H0rj/ifqBs9E2q2GkOK9KtrFo86iryPMrjVIjKxLHrWfPfIzEqazJpQGyaYJh2FeR7PU9tKyLMkwkb5iTTJGjA+ROaaCWGcjFRyOq9G5qlGxRE7kNkrUE0iEHikuLjPQ1VYljnNdMURIRu+KQEhaXDdKf5RxzVmNmIpwOtWbdVzlqrbQBmpBJhcUpMpbmrHLGFwlSq46k1nWbZ7VYnlCpWDRqmSTTrtyDzTIrkv1qoDvPHSrdrCM5NQ4l3LUcjE81YB45piJSSnbWQx+4k8VJnaKgjcU8uaTQx/mVKjnFVUbLVPzjis2gJlY5qUHFVkLZqUZJ5rNoCzG+TVgNgcCqauFqVZxWTQFghj3qSOP8AvGq4nQdDSi6QUrALcEA4DYqs5HrTpJYydx5qKSUOOFxVJDGMRUkYBqIMpNWItuKsCSBQrGr0U7RKME/nVE8DIp6uSVFRzDOl0x5nUS3DHjpXQ2F1I+I42HPeuPgvZPlReFHUV0ukSGLD4Cqe5rrpTOKrE6hBti561MMbAcc1lRXJk53cVoREtt54r0InDInzUimmYpwFaEjqKKKACiiigAooooAKKKKACiiigBtFBooJCiiigQlLSGkzSNgqVKhFTJUoTJVqZajUVIvFUQKaYacaYaAEamP0p7U1+lSwRSuulUh9+rt10ql/HUM1Wxeg6Cri1Tg+4Kur2pksf2pG+7Smhu1UCImFR1LJ0qE0gFzSg0zNIz4FSASMMZqhcy4B5qWeTGeazbiQnjvQNFe4lLHAp1hB5tyg96jZT1Na+hwBQZWHsKlI0NTG1VQdqeopuOSaUGtkjBvUeKetRing0yR+aTNJmjNAC0UmaM0AFKKQUtAC0UlJmgAooooAKKKKACiiigAopKM0ALmikzRQAtFFFABRRRQAlFFFABRRRQUhRQTRTGNAwJppNJk0lAhagvZ0t4GkkOAKlzXIeLtYzvtIj9a569TlRrCDk9DM1O9+0XblT8o6UlplI6zEIC5Jp5u3iTjkV40pXZ6MY6Gs7ZANVLz5Tv8AXvWU2ou03Dbake4Lxc8/jmtI6llS+c8/Nn2rPWZ45ODj2q7NGzDKc1Wx/fT8aiUSkycSF++akESt9azhOyH5Pu1bhuAwGahIdwuIMggniqQQp05FX7qQLER61lm5G7bnpVpFE4Yq2RSTMOOetQvL3B4qNZd3yt1rRIZY3g8GkZNw4qJcg5qeDJBzQUJEuBU8SZpAoK06MYNZSAtRLtINXIX5FVojkVahUEVzsC/CFePFMeEqeKSGJxyDUwJHWpAg2sO1SrgLyaHb3pgU96AGvg1FKcDCinyoV5qEsrDGcGgCByx6VHKdygDk1Y2DJXNQ7dknNIZG0YWPcB81VJJC5wR81aEqjqDms2YeXNvFa0l7xMi94ZgafVkA7HmvXrRMIg9BXnngK2V7lrgDvXpFuMR5r6nBx5YXPDxkryJU6V5B8ar9zcw2iPgjnFeuXEgji3egzXzn8TtQe48TzMzZVDxW1V2RGGjeRhP5x/1gGKjPX5M5qFLh2PzGrKTiMcgGuLlPTuPSGV1+8Ka1uAfnPPtS/aQ/3UwaZI8g5NLlC402hPNIIQo5FLHcEHBzVpNsgo5rDsV0RSc4qSVPk+UVZ8gY4pjKYxzS5risZkqkdRSwrmpJjuY06Aqn3q06CLkMaRRZNVp8yA7etNuLrcNq0kSuTx1qALFpEBjNXwuAKqxR7OSakkm4wKyky0TvPtGF61F80vLVGuSeanHTioRYqofWpMcYqMcVLGpapkARRnNW0UAc0kWEHNLJKvasWAgIzUg6VApUmpFapsArZzSge9BIoG3vU2AbnnrSswx702R1H3RzUP7xj7VVkMf8zN14qdVUDnmmxoD1qQrtHAzRoAqRLuyatIFxVeFWJ5qbIBwOtQUK3HTNPhwGGRSAsetOX5WBzWZRdilEb7gm41oW987keY20D+EViG4AbPatLTpVYg+Vn3rSErMxqRudRpd3H/EWIrpLGRJFGOBXMWABwSAFrorR4xgDmvTpSuebVgaOR604GoVINSriugxsPooopgFFFJSAKKKKACiiimAUhpaaaACiiigQUUUUCGE0maaTSCkaki1PGKhQVYQUkJkqiniminUyBDTTTjTKAFNNbpTj2pGqWCKVyOaoNwfxrQuaz36j61DNY7F+D7gq4nQVTt/uirsdMlj6RqUd6RulUCInNRNUrVBIaQDGbFQSSUk0mKqzSYU1LAS5l4wKqZLGhmLGlAwKzvc0SsAHmOErobOIRQIp7VhWgzdJXQDJUVcQZLxSU3mlzWyMmhwpwpopwoELRRRQAUUUUALS02lFBItJS0UAJRSUUALRSUUALRSUUAFFFFABRRRQAUUUUAFFJSZoAWkzSZooAXNGaSigodmmtSk4pOtFxjKa/wAnLNUV5ew2Sl7h1VR71xfiHxLLdkQWeY49xG/uRWFSqoI0hTcmauv+II4h5No+6QHkjpXIzMZZWlmOWbk1F8qEsX3MepNRNcbs15dSq5vU9KFNRQshGMKaaxJj61CH+fBNOkJPArnsW9CsYxuJ7mgzMrAbhg1Fc3Hkbt36VjzXgR8u35V6NKjoYSkdNDdReUw53DjGOtZM900LlWQ9cjvWLJrLQNvhcn2NPbxMGRA8SFieWPGK29gR7Y3IJYbmHkqCKjYiNuDXPza1am5UQAcj5nPrU0GrxTIyhl3VlPD21LjVTNmWYsoBPFUpSqFiBkmqq3olJjHapiBsGTyax5LHSmR+cxwMcVKmWOTxQIlUYPWrkEAdBxUtWKREPQHNWYUxSJAVl6VaEfesZSKIyrDgU6MsDzU6p8uTSGLPIrByGLEzelXUfaoqGABV5FW1VWTNQBYt5W21ZDAjmqUUm0YxU3mgDkVIEpYE4C01nK9VpgkBbmntKGGFGaAIHlDHFVplzzippkJOelMTdn5jxQBEGyvPDCoy5PLDJFTThE+fNRIwYEmmBXkl/Wq0+duAM5qWUbpODUVyGKZj61vRXvEVXaNzt/h5AyaaJH/jNdyoxEMVznhW2+z6bbqw+bGfzrpD/qxX1tKPLBHzlaV5sztcuBBp0rk9Fr588RQC+nknDZJzXsfxGvvsugyhSwaX5RXihaaNiZFO01y1p62OzCwurmL5bRcBTTowxPJrWaGKfvzUD2XlnnOKx9odtiBAI+TUnmxt1qaKzjfqTUq2cSdRU+0CxCkcbLkCnxqR0HFTERqMKKQSY4xUt3KHjIGTVW8lO3g1YMi7eapXLKacUTcpNId3FC75DSkqGqWLg8CtugiWKBFGXxT2mReEqMoz9TxQIQOnJrO5XKSLIz9KlUqPvdajjjK9KlWPcahtFJCtIO1OBY9KUwYqWPAGBUXRQsSlutTbzHwKIxinFQetZyENErNTSWzUwAA4pCpzUALGRU6uuKgPA4qM7s8UrDLeRS7lquhOOacWApWAe23tTBknrRkHtTkjY9qTQyROO9TI+OtQ7dvWpIxuHSoYEu9u1SR9cmoYw27BqwBipKGzMw+7TE3OeTiptwB5FML5bgAVJQ4JtHtVm0l2dyBVc579acjAc96QpG3YT7sfvW2/jXVaUyR4bzGO7pXF2V15ePlx/urkmuj0+8Uhe31Xmu6jOxw1Y3OugmQ96sjB6VS08xmIHlifVavD/ZFeijiY8dKKKKZIUUUUgCkoooAKKKKACg0UUwGUUGiggVaKFooGQGnLTaelIslQVOlQpUy0ASCnCminCjoQI1NFK1NoAU9aD0oPWl7UxlO6Hyms9utad0PkNZr/AHqzZrHYu233BV6P7tUrYfIKux/doRLHdqY1P7VG54oYIikbAqpPJU0z4BrPnk5pMBkj5zVWV9xxSzSdhUS8moLCn/wUwdTUg/1ZpDCx5u1rpB0Fc7pYzeL9a6Neg+laRJYlKKTFLWhA4UUgNGaBDqUU0U4UCFoozSZoAWiiigAooooJCiiigYUUUUAFFFFABRRRQAUUUUALTTQTSE0ALRTaKVwEopcUx5Yov9bIq/U0nJLctQbHUVjX/inTLMshl8w/7Nc9qPjlmyLSPavq1YzrJGsaMmdtcTxQLumcKB71zOr+MYLdWjs1Lv0ziuF1HV7m6kMksxPtu4rMlvQx65Nck8RfY6YYY3dT1W41CQtPKcegNUvMwPlNZQnZjkmlNwfWuVuUjrhTUTQebpk1H5ygnms15855pqykkVPIaXNWNgxyTTpZNuWzwBVZQSuRRKSyla0px95EVNEc/q+oEykE/QVkySB+WLGuhbQLjUpyLeNj74p1z4S1KzVWNsXXH92vepU21ojyqteEXZs5aWRFQgLzWZPKxPPSui1CwvEBC2zflWIbG7Mh3QP/AN8Vp7KXY5nXh3Ko6fjVq2ikWQfKy7uR71Lb6bemUGO2lJH+wa6RNI1bUJ7d7q1aLylAHy4GKzqU5KNx06kZS0ZW0eykkly2a6A2e1Bkc1rW9mkCBQuMDk024QBMj0rwZ1nzNHuQXumQsJ3KCKvxRbFUCnLCW2tirKgLtyKwlVuaJEG0I2WFPVQOexqzOqtxjmmrHnFZOVyiMAHgVNFHheakWJRyBzQ3BrO4AYsDNOUDFI2MdTmhCMYNMZIkiL1NOkdCuQagGwthjipoo2zjgigkiDnOM8VKsbNzG3NPkiK/wUxUYfdyKAB5GT5XHPrUTEHqcU52GcMcfWkcbR8w3D2pjIWZdu081GyqBjOKJNpOUUignj5qdgIGjKc46VPYxedeRR7c5aq7yjfgtWx4TgNxqmeoQV24aHNNI58Q+Wm2egadHgIPRRWgx2x1XskwpPtU0hytfSy9yB8+vekcD8SJhM8Fvnpya871NI1jK5rrvGNyJ9XbJ4UVyd7aNMcoeteHOpebPbw8OWBiRNGkmWOKts8co5OBUdzp7ouQuSKpP5ijDCto+8aFxgqH5WpGkBHJrOE3PJNK8pxxWvsyblieU4+SqvmSE8k1GZ27UxpWNNQJuTPOQOtVzKWNJy4oSPB5qrWIFUFm4rQgtyFBqtDGu7Oa0IVyOCamUikNCFTzUyQgjOKckRc96sIhXjFc/MboiiRS2CKtx20ec0IoHJFOGWPFZuQyK4Cg7RUCKA3Iq28QznvTCMdqlSAaBSkegoPtT0JI6UNkiIpY1YVMjBFNjbB6VaUHHC1k5AVGiOflpRAQMkirDKf7tAhP8QNPmGUpAR05qMAk8rV5osU5ISei0ucCCKBjjIq2Iyi9KljhYDmnmJm4qHMdinjc3IqYoAny1L9m29aGQheBU8wEUKf3jzUpKr35pBDI3akcCP7w5pXAjZHc+gpgUxt8x3GpAzP14WmMVRjg7jTKJQ+/tzTsg8Y5qFWUdTg1IHXHJ5qQLlmzRYKEk+9dHpTB3BYc+5zXKwOCQNxFbOnzpFgAbm9zit6TszKorneWs64C5U9MYrRifdxu+auR0++3Lu+VV7/NXQ6ddLIAEjyP71elCdzz5w5TU5ooBBHFGDWxiOpDSU0mqAUmkzSE0maAH5pM03NJmgQ/NJmm5ozQA6iiigQq0ULRQIgp6UypI6RZMlTLUKVKKAJF60+mLTzR0IGGozUjVE1ADqkH3ajHSpB92mMrXf3TWY/+srTufuGss8y1mzWOxpW4+QVbT7tVYOEFWVPy0Ihjj92oZGxT2Py1XlahgipdP1rOlfOas3j8ms9my1ZtmiQ3GTSjilxSY5pDFpT/AKo/NTR9/bVj7MzoqqPvGmlcB2iruuN3YCt5DVWztlgjCgc96sjitUrEsfRikU08VRAyinkU3FAhRSim0ooEOozSUUALRRRQAtFFFAgooooAKKKKAEooooAKKKKACijr0qC5uoYBunkVce/NRKaitSoxciekrldT8YW8JIhBceprnNR8ZXcrERvsHtWEsRE6YYdvc9ImuYbcZllVfqaxL/xfpdpna/mOOoBrzS81i5nJLysc1mST7zyCT6mueWIb2N44U7bU/H1zJlbNNnvXOXmu39426e4bB7Z4rJMmfams47kmsHUlLdnTGgkXHnZzksWPvVeWRx1aoCSfumo2Zh15o5TRQSJCMjg1EQFPJqORiTwcVC+71zTUCiyJRng0rPmqQyDSs5A61fIBO8hwdtT2JyRvqij5Bq3ZglhUzjYaNyJlYhQOMVPa2RuJ0jX+I4+lVrVCpBPfpXTeGoUS5DyjlulGFs6iuceMk403Y6PSdKhsIRHEFU45Jq26K3yOqPUn0or7ijCPKfA1q9Ry3Kradat963jP4Un9mWH/AD5x/kKt0VryRI9pPqyrFY2cUm5bWMfQVJNaxyx8gflU3QVHPL5ULP7dK58SoRpu504WU3VVjitUiEU7IvArMkX5ce+KvajP59yz/dAPeqTyA/nX57VlHndj72irRQRqMgdKJoi20A4pARu4FKqlpBzmsmbjxAw5PNSKjA4IqcbtuMULuLDilYBMHGMU3ZirLqeOKgkAzRYBjRgjK9aYFK8tUoJxgUjdOaBlcqpbcetLHK6N/s0km0VEXzwKCS6t0jHqRSNIxOVbIqmVbbkDNKr7RycVQE008O3D/e+lV/tYY7VbFTIYnBLvk/Smm2ikyV61QiMjnJYfSlPTJIx6VG5VTtIPHemPcIvBU49aoY6e2jl2lWwWrqvAdkypLMfXArjjchn4H0r0jwdF5emISMbsGvTwEbzODGytCx0NuMIB61FqMwgtZZDxtU1YHauf8b3ZtdGkI5LcV61d2geTSV5I85vZBd3TuDkknNUpVRW+/jb2pkErqSDxnvStNChbzFyO5r5+TvI9+KskiuR5jEDpVK8szgkLxWjE6MSU6UFtud/SrjJxe4zlLi2MZJxUG3uRXQXqK7YAqlJajGBXXGsZtGX5YakaEdq0fs2egpPs+OorRVCbGcqY7U4JntWiLQHtThagdqUpj5CtbQ5HNaUEQVcYpsUO0ggVciRiRxXPKY1EIowvapMVLsxyRT1jVqwcjREKLk81J5fcCrCRovWpMrjAFQ5DM54mLZqKRCOtaTjIwBUPkk/epqQinGhIp6grVjywppNozTbCwsKdyKsxt7VEsmOAKmUZGaybCwrEZ6U1m46U7YSak+zkilzFWK6RmRqvRWwVeetPtoAo96mKmsnMCAQ5PNPMYAwKkCHFRuCDU8w7ETJ60rBVWnOCVqJsqOaq4WI5H5+XrUOzc2W61OwBGR1pjnauT1q0wsV7lxGuM1SLM/3ammQyvyakjhWMVqIrkNwMEmpEjxyzHNSCcLkDBNMZ1Y5Lc07AWYWAI4AqeOb96PmAqh5mDjNPU/NnIo2EdPpTxb90jgj0rq9Ou/MAWMKiDuK8/spsOqkZz7V1uktAsZMjA/7INddKZx1Y3Owt349asbuPxrNs5QY8jpxirgkr0FscJITTGNG6mM1UAFqM03NKKAFopM0UCHcUUlAoAcKXNJSE0ALmim5ooEIvSpIhUa9KljpFkq9amFRJ1qUdKAHCnGkFKaDMY1RmpGphFACjrUg6VGOtSDpTGQXf3DWZGMzVp3n3KzoB++/GsmaLY0I+BU3aowOKUtgUIQ2V8CqdxLgVJPJis65l460mNFe5lLNUSik6tmnGpLEPSjuKD0o/iFAFrT7bzZWY9q1441XHHSo9Oi8q33Hq1THrVxQmPFKOtIOlKvWrIFA5qQCmLTxTICilpO1ADTRmkNGKBBmjNGKKCgopKM0ALuo3UmKMUAO3UbqTFFADs0ZpuaWgQ6ikHNR3FzDbgmVwMVMpJbjSbdiWobm6ht03SOAK5fV/FypvS3IA964vVtfuLpiTKcfWuSVex0Qotnca54wt7aNktjl8ferg9T124u3LtLwe26sWed5CctmokH+1XNUquR106SiWZLl5GyTmopN2MmlRTninSKcVjc6ErFfeccihc/hTypHWmjIbFBYjnmmjJ6inuCWwKVFbvTsMjORwBUfzFuankBUZqJ87dwrRARuoPNVH4apS5zntUe3e+asBME04R5FOSLnoalEfoKbYDYoVH3hzWlYWxZxgcUy1tGLjeK3bSIRY4rlnUGiSGGNQme1aMU3kuGHOBVJ8B/lpr3Hlhtv61jGo4u6M501NWZ02m6+gAjuQR/tVtw3EU65ikDfjXmTzb3qxbX0tuAI5HGP9qvYw+byp6TWh41fJqc1eO56Vz3xS5A9K4BddvB92T9aeNbvm/wCWuK7lnUbHnPJJ9GdtcXMMMZaSQDHYmuX1bVTOxEZIjrIuL6afh5GJqszsBgmvOxWZzraR2PSweWxoPme4+4my54zUJ27PSmb977VVi1S+RIE/exMteT7KT96x6ynFOw6NCvOc8VfiXr8vU1RgG4sAMYFalupEe7rzS5TWUieGJTwRSyRbHytRMXEnBqyqkplsmixnzFeRWIqu8frVxqhkC1Ni0yAIFHrUbHngVYRD9RSMi9hzSsK5WKI3BHNNNtxkLUjlwcbOPWnJuA+9j2p2FcoyIwON232qNlCfM53VbmODluTTBGG9hTKKr/MNyDmnQTFRh0zUzIRwnBprKijcQd1UBSnk3y7UJUVKLbKfOwIprlSCdvNMjlEh2YIqgIjHgnym6V3vgvxBEkCWV4MYH3y1ccI1VK7Lwt4fgn03zHTDt90+1elgHabPOxiurHZRz2kigpOuPrXA/EbUFllW0hkUgcmo/Emmy6RGZEmcA/dBJrkZLmSZt0szO3+1XVjKyasc+Hpa3EO1UxjmmSwrJFTZWLNgU7ewXbXknqjI7cImAcCniOFvlJo84dCMCm5VmwoobGMkt41OFIIqCS2QKSOtW5IccrzTHxtwRihMkzBGQ1NeI56Vab7/ABSgc81qpElURP6VYgtS9WY8EYxVu2iC8mlKRRBBYAfe5qybdUHygU97lUGAtVZZy3LNtrK7YDZWGcEYqMAl8qanjjV1zIadEFAOwZqRjArE8nFWEhO3NKiA8vT3diML92k2BXZRux3qOQN0q2MYwFyaUR5++Ki5RQ8pjzThCTzV4qP4RSFOMYp8xRWjhGamSJifanbMdBViNfl+apcgIQoXjqalRW79KVyCcKKkjXjmpuBLCB3pzgCm/dHFIoZzyakAU9qQrj71ToIwORzTHx3oQyu2BVeU5q0yluCMVE0e33qkBAMDvSYL8bcipGiJ6jilXC8KeaaERNFGgyRzVaRmb7qACrrRl+WpjQL3bFapkmS4VT6VDKwx8q1en+QkBd1VXRs5PHtWkdQG26sx5FWxHtqJG8sUG6yeavlAvwPitrSbiJZR8nmt6GuaiZXf52bb7VvWF9HGgiQFfw6/jVw0ZhNXR2+nzyzgCQKir0C1rIQB97JrlNPv2OF3sq9hj+tbdtK5PQD6tXpQldHBONjS3U0tzUIelDVoZEwNAaot1KpqhEmaUGm0ooAeKWmg0uaAHZppozSZoASilopAOWpo6hWp0pFEiVIKYlSDrQJjhSmgUpFBAw03FONGKABRTulAFIxoY+pXvD8tUIB++q7cnIqpAP3lZM0ReU/LUTt1pzNhapTS4zQhjbl+DzWdKxJp882SahBzSYBRRRSLCprSLzZQKhrS0iLLljQS3Y08bUAHYUg60N1pVFaolsdRRRTJHCnimrThTJENFKaSgBpop2KTFAhM0maUikoKCiiigAoooFABRTq4vx345j0jdZWGGusdeCAaAOsury2tFY3M8cQAz8xxmsObxtpgfbab7nHeMDH514pqet3uqTb72d3J7AkL+VRWmo3Fv8kL7VHYVLA9g1DxzsQ+VGF/HmuR1DxJc30xJmIz2zXJvdPIpeTLE1bsZEcb9vArlq3aOiktS7cXMkhIJqtgspyal+UnPrR8ofb61wyR3R0IAmBjrSqu0cjNWApzgLxTGVg2BUmg1S3pSkEnndQFYPg1Zx5jL2qW7FIrgIV71GyHG4Cr5RBkd6rNk5AoUirkBBxupDwOalcMFFQSEg7SKpMYm7IbBH0qDZuOGbFOdu/3ccVC+91+Xr2960jqAFduUPOabHmM52ZxToonYguelXFCkZAq2BGivId3C1PDFuYA4oEbN0xirtvAAmQQTXPOQE0agMKt7wB1qpsYHpTzuArlbuMfJPVGeY561MQzdahkiXuaIoBIZRnmn+cN1U2BQ/epI8s33q39mBe3jOQakSYgYBqqI9pAJ61OV8vBpOCAkmlaLaxHWo5J98ee9Pdy5QEZWlaNdwCCrpxXMjOp8Lsdl4T0yB7AXU43O3Y1s3djBcx+WsIVscVFoCbNNiXHGM1odNx9jX2EcNTdDY+Jq4mar2TOGa1eC7dEA445qxFDMicoh+tWLix8+6Mm5j8x6HFJJp2PmMrj23Zr5erFKVj6mjN8iuZ80c7yhQABWlErJCFbmnWlqQ3znNWZYgPaudxNUzNkQ1XdGWrzrg0wjdxUOJqmVUzj5uKaWG7HWrPlAU1owORxSaHcgcnHC1ASc9BVgs+cE5FQTgDoeahgQzup6CoTg8g8VLsAOXFMkVD92kUKGRFycsaiZ2c/NhV96Rw685HFKjJL987vaqAryRBiMHC1GyqjhV4HrU12h/g6VXhjYvtkORTGT72R4923bkV6tojxf2XAIZFK7c15So24Qsrqx2gelehw2osvCyszN5gjzla9XBNJNs8/FrmskYnxD1BWuEgJXCjnbXCtb75/kp89zNd3BaUlipJyaI5FMnBrCu+aRtShyoZIPLf5qXeCOKZPOokweaQYkHHFYG4SSAjGKRN23ihkx35pY92MbqGhiOzqvQ1H5xIwRzVhmUJtPWqkqHd8poSJHLy2aU43ZpY4mVMmlWMvzVgMLFTkDip45WAy3SnJEMfP0pPMTO0DikA3cX+6pp6wjGXqdCNvygUOOKgB0MSsuM1I0AiXiqqMyt1p5uCzYNZjJD0yTxUIkbfgHipGII5qIuFPyDJp2AuRkIuTQz+Z04FQRFm+9yfSrMceeW4FQ0Uh0Y9KfhM/N1p4wq5WoXKO3vU2KHHCnim4Zj7UqqalVcjik0AhX0GKlRTjgU0BV6nmnB3bgcCpAdtUdTk0DAPFKkQBznJp7KMdKAGknPQUhA6tRuwcUFefnpiGuwIwBULrjrU7AgcConPHzcUwIj0qLaGPyg5qUlF6nNKJgeETFUIFhfHzVHKm3rSu0mOpFVnbJ5JNUIr3ABOVNVpiQPlGTV4x7uW+7UDwgn5BmtYsLmTLK3QEk02KGWc4csBWmYEXkhQaYztFyQCK2uIfFGUUbecVctJyrcjBrPSQvlvu1NEp3BmPFJyIZ0+m3qLIC/zGuitL1ZOpxXDQyBCDHW9pm9sO54rppTOWpE6yOXPepg1ZdtJk9avxnpXejlaLI5pwpsfSpKokUGlBptKKBDxS00GlzQAtFFFABRTaKAJY+lTx1DGOKnjFZlEyU8daYOlOHWqRLHjrTz0popx6UEER60tDdaKBocKjc1J2qGU4FJlLcrztyagiI3ZombJqNTg1mzREsz4HtWbdTdQKmvJuCoPNZ+STg1JQnWlFLiikAUUUUxikZxW5pseyDPtWNCu6QCt+IbLcCmtyHuGacKYKdWxI6nLTBTwaAHDilzTM0ooJHZpc0ylFAD6DTc0uaBCEU0in0YoAiNHansKaRQMO1C9aKVRQBzHxD8Sf2DozLCw+1TjEftwea8JvL2SeYzTuXdzkk9c11nxY1Ca98TXMSn5bM+WPToDXDyEEjNAEpkwdwWnxMWQsFOajSaMt93Bp32t4nwFGKpxA0JEcQq0YJyKu2uPKCghWxyKy7e/3Qqrscqe1Wba68yQrgNk9B1rnqQ0NYOxqpvZQFTd9KtrDnb8mCOtQacXAwi/K/O70rTSVWUnbyON3rXBKJ1xkVjAyEMWwPSo5GAcHFW5Q0yjiqtxal8Att96wZ0oRcGUBhmnlQz8cL61K8RQIm4Nx96k2FYxgjdnpUMpETDYN2dxNRtEWXI4NXI0AO5x8nSmlMEleVpFFUQMV5OTTWTy+X6nirHzEcDih0MnBGe9AGbcQknhODyaakSgZAwRV1M5ZTzimeUCTuGM1aZRAsRyDwO5qbYCQynJqJY2DneSV6VbjTbH+7TOapyC4qRHILLgetWlUY/djFV9zAqjH8KtJwhC9fWuaYEqeWTkNzTxCrNk5p1rb7jlan3lW2FRWYFWaONW4HWqE8OGYitWcruA7E8Gq8luXLc4FNMLmU0QY/MKrY2yBMfjWxJbgoPWqJgZZMYzzwa3UhXCNGyGJ5XtU4XeQG6ZyaaYNuHDcjqKlHzS5XuKVxXF8gAMFY81JBaj5TljipVX5eeoqW3cxqTjOacZWkTJc0TudFbNjGP8AZFXZOI65PSNUliQDbmtkXzzR88V9PRxsXS5D5Opl9T2vMyunBOfWnYz0FKy5NSIm0V4lTWbPepx91EaoRzimyn1qwTVeXg5rNo2SKzKDUWznirBI9KaUzzUMpEHl89aawVfcVPJF8oZaglIU9KhoshkC7SFqoRlSWHSrUiljuXpR5YZeKhxKM6QF2GRgVHsO4hTxVqYCPJJ4zVYS8lgvFTYZFLAzZIem28ITOTzQ13+9IK4quZXlYt90UAWHHz8ODURwJOagLhD1yackjvyq/nQBa0m3N3qccKDIDZNd942lSx8NbFOHf5R+Vcn4Cs5bnWmlB/1Z/CtH4m3/AM0Nqo+6MmvTpe7SucFTWokefyTMCQozmiMNH845NWo4kcZ6UOVB2gYrlbbZ2pWKUi7jkdfelBOMYwfUVNKoPXp7U1SOgHFSMYsUj9G5pjhoeCeauF1C/L96q0z5HzDmtEBXLuTntS+Znoeaid2zgdKdBGHbrTAnR5JCFJ4FTqSFOTxSJGi896bMyipYiXcXXrxSQxA5qBAXbCnFXLaNiwANQwJo48LjFEkZI9KlkPl8HrUczhk461IEDICuCaasax8jrUqQkjcaVwAOmagZXkYsQDS7trDApWVj8wHFINrOMdaYi3ajL81a2gd6rRJJ24qyqBFzIc1LKH7fkyCMVGAM5C5pjuG4XIp8TGMetSMUBy3oKdgofk5NEjbwCOKdEVPG7mpAVYy3L9asRx447U1FUHg09yAOtIB/AGFAqIsSaaX4+QZqMmRj6CgCQDntmnlCw5PNRYVRkmmPdIvCDJpiHyu0YxjNVtrucseKnjYyck05owvI59qYECQpnOc07ywDnHFTbeMhcUx1LDk0AQzAEdahEe48DNWPLUjBNAdYapEkTQxlQSCCPWqc0qrkRj5qtSsZyScqKrPHHGMLyxrVMRQO8nJ600QSyvkjArSWDaQz4NRzycHYAqitUBRdVjf5mBPtUiSkc7Bt9aqTTIZDtG5vQVE6yyKAx2ewp8twZofbxHgRjJrSs9QfgzSkD0WsOMbQFA5qzbS7W+ZefatI+6ZtHZ6bfM5xEGP1rfs5ZZGHmjH0rkdInMUfmBM1tQaq74ABX6V1Qmc9SB1MePLOTVgKrAY9KxtPkeTlzwQDWvGQOa6FI5WhdmKXHFKWzQDVEjNvNOpSaSqAXPFIaDSGgAooooAsRjip0qOPpUi1mUPFSL1qMVKg5pohj1pxPFJ0pM1RIxhzQKfimnikAMeKrzNxUjmq0zZ4qWax2KsuS/FV7qYRDg81LLJ5YOetZkrGRyT0qGWBJc5pKB8tHvSGFFFFIAoFFA60DLFou6ce9bbcACsrSk3Tt/s1qSH5hVxM2KKU02nA1oIBS5pKUUAPFBpuaM0EjhSmm5ozQAuaUGmCnCgB+aKSigBzU00poPSgBtKtIelIOtAHiPxRtfI8WXAPyG5+ce+OK4CdtjkfxDivYvjnprPZ22rRDDwHYxA9Sa8fu0M8QuEHsfrQBEJfX6UjyE/MTlelQqdox2pGfHyjp1rcknFwkSkY5an6fcyG5TyzjBrLH7+XGcYNbWk2bJhwM81lNFRZ12jCZWwrgLgnZWvHGZYQemeWzVPS7Wa0iWXyvMJ7HqBWjFHGU8xWOWzlfTFedVR2U2JkgCPsO9VxG8m8tyB2qz8u7B6+lNIPIHy571xM7URbyPuL0746UbFOW3/NjOfelUfuCjHPPJqMZQFEXK+/WkMUOZEaJe/NP2BIjzk0kbiNgwXJ6UskROJFOAe1QWRlduAp4xzUQcqcjnJxT5Q8a5A3ZpGXKYAwetACSIMAoPmpkyGNMdSaf5nlqNx9qazBiCzdKaC5BAPLciTk9akhfy3Ys2AecUyR90yknjpUsjZmVETcB1qgHQ+U5BRixJq0EcOEB4J5qv5OZfkIjUDjFXY0NvHvk+ZmHFRJBcvWy7DsVcEVJMsMaEufmNMsELRFnJ3HualCNKDuAIXoTU8hHMVUiRirN9xelNdCJCSPk6irxiBjxHjOORQYyWVRyu3mq9mLmMxIHK5cYJPFBiU5wK0pQXKYxgDFNjt1B2k80coXMqa3SMfLyBUapyAg61sraAI+eTmo4rQCQOR0PShRFcrR2zbST+NPSP5duKvFVSQjsaa6bQcDr0p8o7j7KHCgCte3jKrzVPTYm4JrVERIGK66NGpL4Tlq1qa0bGBMnNO7YpWOzioy/enK8X7xNOSkvdHMV/GoXIxzTi+QcioHc5rFs2SE5Byaaeuc8U13OOelQb8tyeKhspE/mfMeeKiYqwOaa6gjrSKm4bc0iiMyKvA5qJjubjirLosfA5NQSMC+cYxSZRWnj3KctiqflkcE1euPmPTFQNgDgVmxlRok+YP96q7oykKo61dKovzHkmoZZgc8YK0hlOS3KuMjNDMIu+M1K8+/AFVpUPmJ3ya0p+9JImXupnofw6tPK0+S5YYL1yvja8W41uUdQnFeg6Yi6f4cMh+TCEn64ryW/m+03k0pOdzV6M/dhY4Ye9O5WbefmU4HtTGye241NtZeOgo2Mh3DmuM7iEFthVk2k0qJhDkgNUjszMC60xlGQcEmkMbKFCcN81UnkYcGrkpXHTmmsiuo45q0BS5B9c1NCmGyKWWEpyKijkYSYPSmwL27C/7VEduZhlu1IYwIxJnrUltIY4zz1qWIPIWI5zzWjB5UcIfuaoRKZJcnkGp51KLgVmwElkLckc00n5c55qECQDLnNSxqrDmoYE8TF1xinSRYHWo3ZYU+VuaiSZ5RgDNIZLJKoXbVe2QNPkGpVt2kG7FPiTyzzQIss2zHNMaXccNTSVPzHJqFleV8LwKQywGyQF5qz0A3VBGBEuO9So6Ku6XrUlBjLY7U+NQhzimeaScqnFKqvK3AxUgSGZRwOtPCtIMkYFKtuqHcTmntMqjC8mmBAYynJJxUZkOfkbPtTpC8vfFLEijqMmgBohaTliQKnS3gjGTzQrMDgsKJEfqDxTsSOAT/AJZqaXheTUQeRR0wKjLGQ9aYiyJAeppjAE9aiGFPNPcjbkVIETEBsCmNhT8y5qVSg571HOSRVIRWuCc8cCq0b/OeMkVM9uzfNvNNCRrnn5q1SASR2zubp6VUmiluGxGcJV6KIOeW4qUJEpIqrgZiWiw9FBanmMKcyKoq1hS5qGaPfnpiqiwKM08av+65NOjk43AYY094beIbmbJ9Kie8jLBQoUDvWm4WNG0kmbCq+PUVuabH5kgUnA7muetGjGGBPPpXU6IwYARAAnu1aQ0MZo6SxVEUc8+laibdvTBqhaiOIAfeb1q/D83Wu6JxzHilzR0pO9aGI4UZo7UnWqAKKKKACiiigC4g4qZBUaDipUqCmOA5qVBzUa1KlMzYppvelNApiQZxTJDxSucGmk8VJSIZHwKpXMoQEk1PdSBQTWLdzGRsA1DZqkNmmMje1M7U0Db1oyc1mULRRRTAWiig0AHHeqs1yXfy4F+Y8Zp8jk/KKsaNaeZcA46HmjqM29HtPs1qm4fM1Sz/ACuM/hVtVwNo6AcVTuF+YHvWqVjJi5+WmZxUg6UhWqJE5xSrmnKMinbcCgBlGaeBSFaAG5pc0u2jbQA3NOBo20mKAHhqXNMFOFAD1NOPSohmn4oAKQdaUA0u2gDN8R6THrWjXVlIud6Erns3avmi5jOmX1xp90CoRioz2Pevqjdsrxr4yeEtusJqkKYin+VsDoRyT+ZoA8tu/Lj4VgapqWlf5Bmt2fQQgLM2ahtLJY1JUZq0xEVvZpHF84/eNyMV1Wh2Xm2oVt3mYyOKp2Gml2UMclxx7V1lpCbYJEw8sKoAbux9amUi4oS3uCAAkJ54JParYX59yR9B+JqNj5LxK537ifuf1q5NKibVRl3LyfpXDU1OmCsQPatJg/cI/WlNuT8p49QanbN1Ipjbbt+6KSUshJlOZPauWUTpjIrm32qVJxVaVo1kEe7pwTV+Tbj96eoFQzQwAnK55wDWJqV/lXpyPUUjFn4Tkehp7BYhgcCmhW69BT5SiGSPb8y8EdRQjEJk8A1KPmJDjg96ZKoWPAOSOlSMapVZMheKimUsxYDilUnHJqSMAISzcUAQbV2hiO9WURH+ZTg5pI4kJ+9nHNTxoofBHHSgCWCKNkkkk4C8VKhDFElGVHORUttBmFl/hJ4Bqxtj8vG3aVHBp2MnIWX5EyvAPSkyylFH3Tyak8vegbsOgpPKd5A/pxirUSbktvGXchRVgqiROSfmIwBUUDeRP857dKVpHLhpEAUnitOUm4xArxrxhh0oCbhuDDcDUpjzLlFwMUwxIy7unriq5RXAbiSpbr3FRiB0lJV8/WtFIlii2rg5HWmrAWXJOc0couYzMNIc1atoDIcNVqOzC84p/l7T8tLlE5E1kqhtuK040UGs6wjJlyTWkE96+kwEI8h8xmFSXPoVruIHLCqBQjNX7s7UIzWfvJ715GYJc+h6uXyk4ajNw7mopHHanOBUTbcV5dj10Rud3eo9nNOIOelKSBRYYjdADT8qANvWotu9uTQy46GqsWDZJJNQHvUpkI4xUT5B6VNgIpQSOtVXB7mrT8c5qvLh+hrJoZWJIJqvJk5qaTIFRlTkZpWAiRFrR0DTnv8AWLYAKUU7jmqmMfzFdd8ObPfNJcuOnArrw1O8rmFeVo2NfxrdCw0jyFOC3H4V5ZtU8+9dn8Rrnz79YFbiPrXGrGw7YrWvLoZ0FpcY3zEc1IFCn1pVLDqoNRyNl/SuU6iG5kOcBcUAttBpzruao+F43UAI4z25qPBTkninM/vzSrIG4cZqhlaSX5sU+KNW61OIIyc0whVfAoAexMceFpOFUP3NSM6hAAuSaa/yru/ShiHWcv7w5FWJySMqtUFkbdle9XMyKoJPFSwGgbh83FPLKq4zUfmAtyKSVd/QVFgGFWmbAPFWlQW4DCoYk2A02R2KHJpWAtPc5jwOppo34BNVreJ2Iz0rTG1VUdaVgIdjv0qzDCFAz1pgbac003HzUrAWH2DjFRSFWGPSmklxmmupx1xSsUSJIFI46VMbsKMgc1QA5+/VtEwoJwaLALulmO7O1akyhGOfrTlHmfxBR6UrwD+9x7UiRuVX7vNKilznOKZ8qdaYbpF6UDuXFWP059aSSVUGCaotck/dNRhmdv3jcUxFhpTKdoO0UhPl/cG40LGp+6cipNuzkcmgBqrkFpMilM8QTAOaQr5g+cGlW3C44GKpICIzbuI4/wAaYWb+P9KsuYV+4efSkXMinKD61aQitsZuhKg+tNW1jXJZtxqWZySELAAdqWV4lUYHSmBGkkatgLkCiV42GWXiozMzcRpx61Eyuxy3AFMBHdQeAAtIblCMKWzTHEeeSM1BJg/6onNWkIrXbksdg59TVZI2wSVz71fCSnkKD9aieMycSZUei1ogLWnCFCPMfd7Ctq31YRnbbxbUHXJ61zsIhtyC4bNX7e4jdgwXgdjVEyOy0vVoyRlTz3NdDbXfmEFRxXI6VPbhRuTkdjXSWNyqgFQMGuynI46qsa6liM0buajSQkU8EE1ujnH5ooFFUSJuozSDGaeMUDEopaKALy1KgpiCpoxUFMAKkFJil70yGFFFBNMkawyagmkCqakkkwDWbcS5BrORUSlqNwSdqmqY4XJ60spy5zTRyfas2zcXqKKKKQBRRQKYCiq13eRx7VT5mai9nEa4Q5c9BVW3tyW8yblj+lAE6knnua6TQ7fy4A7DlqzdN053IdxhQeAa6CMBFCgYxVxXUTZKxwKq3J+YVZ6ioLleRVkCIMpS44pqthcVIv3aZIkYpxFInWn4oAYKWngU1qAAClIoSn4oAYRTCKmxTStAEVGacRTSKAHA04GmA0oNAEoNBNNB4oJoAU9aoa/YRanpU8EiBztLLnt/nFXutL/+qgD59mhdWeMkMwJG3HpUcWjyLtbA9cfWu98YeGJLPUf7QtFzEzZYehNY6RGV9yrht54+lDdikVrLT4lMaycFgSD6VcjhLsdhxsXA96smGQMSV+8v5URxSuhVeHQdaybNURwQv5azMN204HrUjwrI/AHHX1NOUGKMhsjnIquZWhkDgbvMOPpXPM3RagRY8MMKfSq+o7/vxct6VK25nDFSoqK4cxfOyZX1rCRpExpNZ233kSoWz3xV3zkmcdeOgqe7tLdwsqKN456UiwrKm6MAN3rOxpcy9Tu5rb5RF52entVWC+u3A86HHpW0Ydp/fJlezUydA8nzsu5fu49KkpMpxSiUkMW47UjSuflAwo6ZqnqGoTW0/lRwZPfFR29zeujN5QCejUcpVy9jao2MM0rtIUBXHB5piiZh8wQ5HBFPiS5wG2owHUCosO5binWOLDJkt3qzZFZZSHO0DpSRbJABhRj+GrhQNGu1VFVYnmJFZlbGc5NXoYlMJDDJJqpGCg/1ZzVyJiE3Bea0UTJg4CKAPWpCuXXy6kjiVyc1IIRG3y9aqxDI1h3hiyDI6U2RCU+YYK8ipGby+SxGT0p7ylxgJx3NaWMyD52XIXA70+O0RWV9xAPUGnLK3mbUX5cc1YiCMNz8+1VYQihCcL0p4QbwoFTtAPlCjBpShU4YU7AAGz3prxh+Vpx9uaWNfWjlJ5hiAxEYq2sygc1XZQc5NQHJzg9K6qeKlSVjjrYWNWVwupd8hHaqcmQPlp55J5qLDZ61wVqjqu7O2jSVKNiPc3em5yae4NRbTnrWNjoJD04FRYJPIqRQR1pHNFirkTKFPBpEU5JPSjp1p275eKB3GuyqaimcN90UrjPJqFmwaQXIpDzUTqKs7AwzTdgJqOUoovAWbHal8vPTnFW2GDheKGQAYxye9OwuYqOvTaPvfLXo3h63GnaF5r8HaWri9Ms/tN/Ag5wcmuv8W3i2GkrADyVxxXbQVotnJWd3Y8/1a4e51CSVznc1VpR8nFSOwLZHNRyOGGDXJUd5HTBWViqc5POKrsfmJ61bYxkHHWoduVPOKk0KzuRUYG96naEbuTmnRQrknHSgCFowTgDmogjbyuKuS7QpI602NA4BzzTGMVNx2kY96bcQBVyG5q28akYY4xVW9ZVUBeaVwGx5EeTyaUElCHHJqWGTEYDjIpZGD8gcCmIrxRhW5HNPklKjaaFbDcjio3fzGPoKAFjUsc5qwsm1cdaiBUx/L1pqrg/MaVgLbyKEzxVVnDnGKaylujcCkVST8ppWAtLNtjwKWKTLDnNRJCzH2q1FCikYpWAcRuPWn+SpUY61E7BHNILoD7tKwFlhsjAHWqsspzgUguGdvmFSxpHnc1KwEcSEkEirSyDIXaaUSxg4C1C+4vkNiiwFksQelKbnaPuZqNOcZkzSyKuOtFgInmEnHeodhY4zUgjRj8nWrMcS7cEc0rAQra4GQwBp6og46tTzDn1oCk8Y2+9AEkZCjkgUGVF54NQtFk4P509IIF++STQANIXHCkfSonMpGAxFSyTxRgkNj2qt9raY4RfxpoBM7Dzkt70/E8iHcdq+1PMJIDOeaHI24ZwBVpiKqQFFzuDE+tO3hV+YbiKVtmMqckVGG3d859KYCB5XBwoQUFS2MtuI61YEcYUM7FcdjVee6QMUjHXvVWJK00cYOSSKZ58UYxGuaW424yWwfeq7SqPl2D61okA57qSXhBsUUxnOdwPI7UFWbocCmGJmbIUg+tUgJtyOA0pwB2p8moWy4WGMA+tVnhKr83zE1W+ztI3zIQBTA6bSb+3QAt87notdfpNyGCkD5j2rh9GtrWNhLKcnsK7HSRISGVdqetdEGctRXOlg5A4NWAADVG2bnG81b3HPrXUjmJaKbmlFWZi4paSk3UAPopoNFAzVUVIvWkQetPAAqBsDS01jRnigiw4tUMj+9DNVaVzQOw24kwpqlIf3ZJqWVs8VUvH2LtFZs0SKZ5NFHWipLCiijNAB1qG4m2jav3qe7ccVHHDuO4/eoAhhgLNuc5Y1tadpwchpRxTtO08sQ7ityOEBQAMVSREmNRVVcDtQoGaV1xQig1Yh6DJx2qvecEAVaTCxkmqUx3Nk0xEaHtUsZxVfo1So2aYiTdg1KhytVyKkjbAxQBMKRhSBqcDmgBg4NOBprChaAJRSNQKDQA00w0/FNIoAQCnAUgoNAC4opuTThQAUUUUAQXtuLm1eNuQa841bTJLS6ITIjZjmvTDWXrVgk6bgOep+tJjRwYa4WVEJygFSK0pmBU8DrV68iEEqHGV71DMgaORojw3FYs0TIbxSYt46dagLxGKPZgtirRTzLdVc428fWs+3tfKvSc/KO1YyRsmTTXqIUhY/Meald41iBc7y3QelZ99ZiS481eCatGAtHGC3zHpWTRqmOjkijfDEDPb1qM4dsRnAJzTZNKjlkDSSEP0GO9IkQiYp5n3emahopMrT6l9nm2TR5TpmnFFlTemCo5A9Ks/ZkuB++T61VW1MTukedg5rFotMgSyzIZXOfSnS24VQ7YANXyYzAPmwe9Q3duklqRyQe9SUmZjyRs+2NwCO2at2rbiWVcEdayjoZD7wzjnjmtWz09ANhnYNjkVrZCky4qOCX2ANirtuNjhUcEsQSD2qrFZuylElc/Wp7ZbqJhlQ69B61SiZ3NEJhXJYfLRbushUHk+1Mgnjbch+Vj2NWY7fYVeNeR6VokK41XImYYxjpUkqyAeYrc0gHz7mPfmluWwuV6GqsQ2Nm2vjs3fmiNkjQjdmq6urD5gA1T+bGIhhee5rRIglSRUXzAvFWY5IyAyioI4/MGQx2jtU8ShiNo4qrEkgnJf2FS+YxPPU1GISG9jTJSVOO4osA9j5eTUX2keYozilcsflb7g6tWFLMZNQ2xn90O9AHR7gw61CxCnioo3LAAGnyKQuTUzg7bCjUjzWbIJDhjUReiVuaZ1rlOoGbNAFNxTxSAXHFRlealHSlAGaAK7JmmYAqy61Fs9aQyJlzULR5qyxAppIoAgKgLUBJBqwRmk8sGgdyFQCctSsC5+XpUjRjbimxqWOxetK2qJvozofBNhuke6kHC9KyfGl+bq/eNTlV4/KuuhK6VoLnoxX+dedzg3BZ2OHY12TfJCxzU1zyuUGPXFV/nbNXXUIcGo2X5SRXAzuRUWInJzTDGQetTglX5HFPbH3sVIyq0eOd2KiNzk7AMe9SXDFgeOKhtrdpGyT8tIZJHbmRtxbipPJ28g8UhLR5UDimh22nPSqAikDhvvVDNt4LVbUqynHNVpVVQSTn2qQLMcfmRAinRxoqFW61XE4SMFMgVMsnmxg96oCvcZViF5FQwsU5Iq3hQ3zDOaiICvt9aoB8BEjcjFLKoWTrxTSypkjtVea43iqsIJHOTg1LaoQCc9ar8MBVqEdDipaAsxOAcVJI2wZohiUjPeobkuOO1CQhjuTyRmkQj0qAuRwxNSQDnPWhoC9EqOOVwaVolA+9zTFYsecCpXRNvDc0rAU3aQNjHHrTkimbktxUgDlsHkVYCGNc0WAhWF0GWyPpUqLx94/jUsRaQ46fWnSRtnj5qQxkKBGyRmp1dCcZqBt/QLinLFkZcVIErbjwhoVSvLmmjjhTSspHLmkMfvSopCj8CmTzKowoquHY8rTAsLaIRlsEUnyocKABUSGUnk8U87cdM0xDXmGdo6012CjLMSaRnjXhUOagcu3UlRQA4qrdW2j2pQyQj93kmmDaOEUn3NRTFl6n8KtAMnneQcZz71XCTMRuIQUSTDPIJ+lROzv91WNapEittzguXPpU0SMQCEx9ajhV1+YqqH3605rg5xK+fTFWSWgiqMuOaQzRg4A49ahhLOfvYX3qV4to3Z3CgCOSRFGB8xPeo40Zz6VIVXbuC4PrVd2YNkNzQM1dPjt4MvM3HrmugtdVt2CJbhuO+a4Jrh2fZuH17VtaHJFF+8aTJH5VvFmUkejaazygM3AFaasC3FczpmoGVQI249q37fgA7uTXVE45blsGlDVHuNOBrQzJQ3HSm556Ugc+lAf2oEOFFGaKANxRRjmnHGKjJOagoGNNNI8gFQSSntQFgkcL3qvJLnpSZJ+8ahmYD7tZtlpCSthSx7VnSSeaxJp1xOc47VEoFSMWiignFAwNMNAbJp6rmgARM81o6bZmRwzD5ajs7cyuMDit+CERoABiqSuZydhyRqi4UU8cUmCGp0mAvFaEFeRvmIp8K4GTUcY3uTU7nYnFAEUz87RVeUdqfjJ3GmtyaBldxxSxVJIvFRKcNimBPSdDThzihxigBpano9MIpAcUATls0A1DupytQBMDTqiU08GgB1NNLmmtQAlFFFACZFLmmkUucUAFFFFACmmOoYEHoacDQelAHO6vp4+Ygcdaw1g2u6fw9a7a9gEsB9q5a9tjFI7DPFZNFpmdcosmzafuHmo5EjkY4+Vh2pEDLIepBNRDc1wJGBAzis2jVMWICUkuMIOKkQIFAx0PBNN1LesWY+CB0FR2MjSRICOe9ZNGiYs+6KYM5+U9KEgidWldTu7VBqiTYCoc4ORRaSSyKwzyOoqGi0w88ofLk+UdqJyHA2fKw/Wi/s2urfzA21l6Vl2dzcWr+VdruU/cepcSkyy8crBim3FTWxZ4SrHBFOVdpJDDDDNRRyswIC9DUco7locKARmnRxbZN4TJNMts7gWFakQwQQnFPlJbGW4KkkrgVMu1sbWNLPNCEI2nNRw27ugZGOK0RNxskMMj4kUp6OD3poea1OyeTMZ+66/1qWVCi4J+b3NRiV1/dzfMD09KsC5Asn+sDg5HFOcxmPJOT/WsoXLWshDOTGTx7D0qcTBk3beDz9KuxBMAknIwCKtFInhUL1HWqsewldufepGYK/ykUwL0ClRxyuKcTg4jUim2u5F5AxUiklt2OKokFeTuPl9aaxzJ8x2r1LGnyYCl8qD71R2veSdWWH+f/1qLAV76eS6YxwA+SOp9az1hZbjyR6ZDV0GzaoRAoQVQmTGoRn1XFXCKbszOo7K5p6PamOH9/yatvArK+elOgG2Je9OlJ8s4717vsYKlsfMyrzddanPXPEhAqNRg5qSb5pSfek9q+VqR952PracvcQZpQKAvNSgYFRY0GgcUhPNONMNIYjE1EzVIcmk8vvUlEDA03FSuKZtoATAo4pCDTGoAZJKM1oeG7T7XqA/2Tms4hSa7Twtapa2DXBXnaTW9GOtzGq9LFHxrebEitEPUc1yDcKTWhrN0by9eUnJBIFZkhOOlTWlqXRVokTKG5Peon+U7e1LI5YBR2pkrZwO9czNyB/mk2ilZNqYJqSKNQxYmmTMrHANQMoXYbBQNipLNisIDGoLkmRmHT3p8Z27FA4qhlhgc57VCCCzL3NTZ3MP7oqIRHzC4qWAwqIl461EyeYpI61ZeE7uaWKDajNQgKDRsq4Y0+2kKnZ2q3MiMnI5rNcss3AwK0QGjGvmHdnpUUqNgsOcUtq5I6093KKw25zVAZ8rEA5qAsAvFTXDAoTiqWeM1okQXISSRWhASE5rMt+WHNW0cjK7qloC4k5B46Uy5nRhiqpMmPlcVCXcNgsDUpDLKrG38dOAK/dbNJAqkdMmrcO1OdooYDIo5C2H4qaZDGud9TKAVJB5qnLlmIZuKQCpcBe2TUn2okc8VXVAp4GasRKOu3NAAs3o+KsRSSKM53fSq0u3P3RSxT7SABikMuedIeqYqMyMD1p/mb15NNfywMsM1NgIvtgjYlhTHvzIpCipJPsxALCmlYW4j4p2GRxzBhhlzUiYc4SmbCvJGfpTkBPP8qfKBP5e0e9MXeTxhRSZAGXJqJ5QeAeKLCLBVRznNI08ajld1VlmiB+/+FS+dHjIAzTsK4hmTqEpreSwztJNNN3Dnkj8KaZkzu3ZHoKAE+yCQfNiMe1K1rBGvyTHdTJXZ1yiZ+pp1tDcTDAjVa0TJZCbaMnMhY+5ohsoS3H5mp57d4x+9BqB3IHy9aYi19jRFyHUfWohOV+WNQ49aql2c8gg+p6UvmSodqAfUUAE0rOdrpgelQyCJ1w7YHoKfMszc9z3NV3tdw5J3H0qkBCGiB8uFA/t0q5bspGyU+V7Dmo1tGCAKQP51LHapGQ7n86vmDlOo0i9it0CRIcr1966nT7sToGZWSuFsNRWFvlQM3Y102n6i3yeaRlv4RW8JnJOJ045AIqRazoLx5PuxnbVhZyeorqOdlhj6Um4imK+TTywxTEOzRUe6igR0snvUEj4+7SyMSKi3cVmyhGYEc9ars2TT2IzyarTOF6VLLQSyYGKq3D7VpxYs1V71ugqCivnJzS5waTgLSgg0ALnBpHG4Uh5NSqOKAGRJxzV6ytGncDHFFraNM4wOK6C1t1gjAA5qkrmcpWC2t0t0AA5qb3o+tJWhmKRkZqOY4XHeng8+1RSEM+ewoGEf7sc02RsmmSvk8UmcimUL2pmMGpUGaJFxQBEwqvIuDmrRHFROuRQAQHIqUrmq6Ns4qyjAigQwrTCtWcUhSgRWxikzU7R1GUoARWqQNUQp4oGSqaU0xafigBpppFPxTSKAACgijmkJoAXFGKbmjNAx1FN3Um6gkfVG/skmQlRg1cDUmM0mhpnDX9tJbTkYyCaoP8AP8u7bzXeXdhHOSGUH3rmNS0loZH8sZ3HgVm0aJlJtrqFbuOtU7LiWSMH7pqw6ugIcYxVEHyrv5f4qixomabuoQSMMY4qhGy29yR1SXvVmVS6BCeD2qoqh0ML8MnQ1NiuYNQu2tJI/lJQnDfSp2hgmjLbQQRlR6VCNlwpSf6U2HdA4tnOM/db1HpSsHMQiNoCACGjJ69xVq2jUkjGd38Xan7UIKkZ56UIhhzhsxjn6VDRSkWIYk3AZ6VbCsrAg8U23dWhD+XzT2mwPmHFLlFcSeON1UMPmJ/OmTebEvAIx0xQ3zMCT8vb2p05eOPcG8wAVVguQpdxzck7SvDbqbPNGE5K+xrOunjlfDrjPaoXeFImRvkq1EGyK6nViQ8gJ9qI9Xjtodszbo/euc1bWLSGQiN9+3qRXP3OqTXLERIXjaq5TPmPRT4gs4Y90cnB7Zp+k679suMInyk4zXEaFodzfOsjbhGeMGvTPD2hw2cYLKF29zVWHc3EH7lGI5YU4SqiZdvbFMllyAIedvGaZGirGZH5YGkMPKdjvlPyHotSLhE4G30FPZvNG7tUDsUbj5qAAndxVR/nvVUdqnLc5qK2GbkyH1p05e+ZVfgOhT7gptwQImOe1EUiFRz2qC+kUQnBr351Yex3Pm4UXKvexjHlyabjmngdaQDmvlpfEz6yKtFIUcUpNFNPFQWLuxTS9Gc01qkBS9JuzTSKUCkWIRTDxUpNRPSGRSNURanyVHjmpAsaTatd36RAZUnmuw8RXK6dpAgjOHcbareENPEMP2hxzjINYPivUDcak6g5WP5R9a7V+7pvzORvmnYyWwWJ96hJAPNDFhn61CznNcDd9zuSsMkKCSl2qT0qtcO24YqeGT5PmFQWQXOVB2mqKpJK3Har1ymWz/CahRvLJGOtJAV5gOg6jrSqM4OOKljh3Fm9anWICMChsCBOuO1TJtJwKYRsPtT48Kdx6VIDiFEqhhxUcgBZsHC0yeXe3BxUMEpEvlt8wNCAkER2sTVK+AUFh6VoSMFOWPBrL1J87gnTFbQALSUbQ2atSyAgBe9YdqX3he1a0TptwxwRW3KZtlOf5ZSGPymqk3y8Doau3io+AG5qpcFYyimtIRsIlhYooB70/wAzaxz3qGQMGBHSgFnHvSaQEjNk4FPWIdRTFibINTA4AqLFFmFwi+9SrIWPJwKrIrFhmp5lG0YOKhoCaN2DYBJFSCIO2d2KoxzmJuuacdQVzgIc0rDNJERAcjcabJKBgKMVVjunOAFwKnHz53DikAq7ZOc80GM5+7UsKoBgDBpC+xvmPFAxFiYjHSmPCwPJp0k3dKiNx5gwaADain5zmkaNW5TpTSw+6BmhXAG0HmgCSOBicsTj61OIz0RwKrZYdMfnUbuF/ixVElySGTHyyKaqy27t/rJAv4VXFyIz8oJ/GpFuBJ947fxoAaLcKeWDVJGY1+UCnLGD8ysPpQUk6lQB60EihLeQ4bANSokUY5VWWovLBHHSgRY5STH1psq5MZQv+qAUe9Qyyzt0kwPajcp+UjJ9aUKnQNgVDJKUqmQ/vGc/8CpUgJXEW78WrRCQk/6v8al2oBwmPwp3AzFtZQMttH1NOVZFPy7TV5/KH+siammWMD90uDVcwFU7h95KF+brikebaeVNIu1uWwgqgFyN/CYH1qufIaY5LZ9jUqxRs3ysXqxDbW6Nkpg+9HMBXjbGdi1pafc3PmLtXP4U1TGjhRFlav27BT8g2VdOWpnJXRqWy3E3+tZgPZ9tbFkmwBVf/vrmsuyQOdzHf9K2YsKo+UAe9d8Xc5JxsWhTxUAepA1aGYPRSE5opgdAXqCWUdFpZzjpVSaUIPesmUOkbAyTVORtx601pTIetNGSahlIlUcZqlctukq3K+yKqQG/mkMQDNGPn4oJwcVLGmeaAFSPJyasRQl2AUZpI1LnatbWm2uwBnFWldESlYsWNuIYxkc1YNI3oKXqKtGL1EooooGGM5qnJxmrjHapqgW3Mc0DCPnrUiimDinA80yiZeKZI2TThyKjfrQAo54prLilHrTvvCgCpIPmp0THOKfIvNCrjmgCcGnZqIGng0EimmkU6jFAELLimE4qwyZqMx0DIw9SK9RsuKQHFAFgGg1GrU/rQAcUhpQtG2gBmKMU7FIaBjcUUtJigkTFL2opaChpOAKqXUKyyA1bIyKhmZEYE1LGY9/p6qSduciudvNP3DfHwyNXYXt3GAUHU1z0kvmPIFHGamxdyjNA4Cn+LGaguYsbZsexrQD72APUcU1yjRvE4x71Nh3MwoFcADr0NOubfz0HPzp0qcBSMH+DvSxJuY81Ni7jLUJJHnI8wdTUjBAnlldwbqaqzRi1kLpkqeop8LiVD1ANSMlhla0fypDmNvumppyGjyKqHmFlf51z+IrNmvntZ/KlceS3INNK4GzE+VKkZ461Turj7GpdpAFx0rLm8Rx2xKxjd71z2patNqDlSDtz0FOyAv6h4gQOxjXLdjXOXus3c6MSTzxxV6GzMzKXGMdquDRUXLhML6VUSTlbXSpr6UEKTk5Ndno2gRRJl0yaveHtPSN97LgGukS3jjjCRrlnp3J5SLS7OG3tvkT588VtWyGYbZW2p3xVa2jZH8tsE1ZkYxqCOB3pXKSLGADsj+5nio5shCo6Z5pQ4VPl71DvJDZ9aQyQHEYxUe/BNN84YIqGSTpisxDpX5YDvRb5EeKiUfMGNTBhzikUSNcPHGdtQLcPNGQ1Kp6hqaq4zihzla1zNU4p3sKpp4FIqU4CsTYUAUjKDUm001hikWR7aNmaeBmg8VIDCoppAodsVGXOaRQrVE1SA5oKikMqyVJpdsbvUIohzk80Sbf6V0ng3T9oe6cc/wANXShzSM6krI1NRlXS9IYjghcD6mvN5nMkheXqTk11XjXUVeVLZTwBlq4+5k9KeJqdCaMOoSyLjg1Vdj2pc5pTgLzXApHWQlgTzT94IwKhkOTwKLYFpOaq5RI249fuimOcnlfpVhNoZwe1QbzKfkHANNgPCGOIHHWk3fKVHWh3lb5ccCmuSmOOtQA4AFsMPlps8qqNqr8tROWYYBqPJ+6TQA2Rd544pGgKMHzUqEZwKLliY8CqiBXnJCYboazdQkMScdK0ZHDQ4PUCsbU5BImO9ddKJMmVorrcflGKSW7Zh8p5FUd5TpSlwIyR1NdipmdyX7Y4fOcgVKspuRk9RVWMhkPFTW+Yzk9KHTsRzGirlowp61LAhx71VWdcD1NTqxxx1rFwYcxbA4xnn605IyRyVqO3PI3IxP0qyOTjy3x9KjkZXPHuNTcPv/hUsa7+M0qQu/3IJG/A1ZhtrntZTf8AfJo5GHOiI2I65FSJa+YOVGRV+HTdSk6WMoHupFWE0XVWYMltge5xR7NhzoyhbsjjipcYYcVtSeHtUkHNuFqF/Duu71VbVWX2NT7GQnUSMqSKTO7dilKk7d6lq2f+EU1tusIHsTUyeENaHSNP++6pUZMPbROfdB0C4qu0W37tdX/wgurS/fmWP/gWatW3w8c4+03p/wCAqKr2DF7ZHCRy7J/n+bPFSyDJyABXoP8Awry16tevn/cFNk+HcD/cv5B/wAU/q8he3R568Xybmbd6Co/JLJuAPvXcz/DeX/lndbqpyfDvUF+5Mo/4FTWHkP28TjwWQ/IlCgvu3pXTz/D/AFhU/dujfj/9aqsvhfV4MeZaq+3qQeaToSQe1izE2MOY2I9jS+XKU4Zh9TxWk+n3sR+a1kVfoTUbB4vvoQvuKzlTkh+0RneTIvIL/ganTzQOVyPWrLY+8jqy+gqvKWPMbhfY1Nh3Hoqn7jqG9DSs5U7JFX6iqUiNIewf1FA3gbHBY+tHKUW3lZTkLke1IZ5H4O4VDGJl7k1IskwPI/MUuQCdYGZc4bPuaja2kJ++BTxcSFduQPrTVjmY5DIR7GjlAZ9lLDmQ01oIweFLGpkVzkEDP1pBBKuSxCj2p2YDordh90qoqUNHEfnbd9KijIxg7jQI0JyR+dRZgLJqEK8RxEmpLa6lbnYoHvTSkYH3FpEjZzgbgPariVY17G/mRtu2NV/vVrW0kkrf64v7dqxrOyVcGaRtv0roLQxRqFiJHviuumzmqpFyEP8AxNVgNt71VWSLs+aeJUHfNdKOVosh80UxTn+HFFUI1pZuCWPNZ082489KbLMzNz0puNxyelYtlJCqc9AasRLu60ttA8zfKOKnuYxAuO9SOxn3bbm2joKjHC07GSc0h68UDFRM/MasKpA470gAAHrWhptqZGBcfLVpXIbsTaXZ4IkccVqgYOB0pNoRAi9BSbvlxVmQp60UDpQKAHUUUGgBrcg1QcYkIrRA4NZ83ExoGgFPQUmPlzSxc0ymKTg0jc80HlqX2oJG54pVNKy8U1eKBiNRnilagDIoAQHmpFNM204UAPFOFMFOFAC5ptKaaaAEZc1E0dS5pDQBCDg1IrUhWkzigCYGjOaiDZpwNADjTcU4mkFACEUAUpooAbR1oNHSgZXurpYI29RWBdXck75yQvpU+qz7pWUHiqIoSuDdhZWLfMTzVaMFXbPfmpzTCOaLCuVA2Jc9KsvGsyZHBqOWIE7qRHZTz0pNDTKlxbyQ5I5BFZ891LaqCORmuiEiMdrcg1WksYZCwPIrNo0TMV70y7QUOCMmqM2qm2BUDlTW6mngOR/drF1exC3AJHHeoLM1/EUshKKnBNZV9cy3DFdxzngVpR2AyzAYOeKq/Y2W4LsTnNBRUggbdtlz0zV2ztl80ALgHmtJbRZ0BUfORjNS2tsUJBGWHFICe2slC+aR0qw8IklRUHDdafBG24IemOlWIyFnRMY5pcwieys1jIj7itFAu8cDK0RhF+bIzT1CMC461VwHpt37s/NTshs1V2srl88UqOQcetADzNskK9qYkmQ1Mul5BFNjPGahlDxzTXxS52jNNPzGouIFyakHtTMYqWMc0AK33QKTowPrUm2lkXCg+lIAAwadGOSKfGoYA07bg59aLAIeBTCN1PY0nSpaLQw/LTGOakb5qjIxWbLRC4qEjmppTVYt81SUh27BFIX+Y0h+6TUTdBQBPbQNdXSRIM5Oa7mRo9K0nI42rWN4QscH7VKPYVF4z1Dc4tYzwPvV1RXs4ORzS9+VjlL2d7qd5ZDyTVCX0q5KR0FVtnzc15k3zM7YqysRRjFK67hUmyg8VFiiNI+gxUUpKkgDmrhwqbqoySAuTVlEaZLkuanjIRCEFVZG5zSC68sUAWi4xg1FNMoUDbms+XUAz+lILgMcl6fKxFlpgD8oqNpKge5Xop5pqMxOT0quQVy/brnmmXDccU2O4VOu386gu5Wf/Uq0n+6Ca0jSbE3Yo3s/lyMgPJ61lzSbm+Y1sWWia1qdwEtbCUA95FKj866/R/hPcTOkmq3XlA8sqYavQp0bHPOoeXyuiuKs6fo97qb7bKCSRs9hx+te7af8O/D1jgtbCdh3br/Ouit7W2tIxHbwJEg7Af1roUTndVrY8b0r4UavOFe6mS2U8lWBz+hrrtN+FWlRYN/NPM/+zJx+orvt/H/2WaYXp8pg5tmDB4K8OwYUWSMR3fB/pVyPw5o8f3bC3/74H+FaGRnNJvo5SeZldNJ01Pu2NuP+ACn/ANnWH/PnB/3wKk3ikMnvVD52C2dkn+rto1+iCphDBj/Vp+VQeYPWjzPegnml3J8Rr90AfhSeZioGlWmGVaLDuy15vuKQyn+9VTzBSF6LBdlsze9IJQaplmpMse9PQNS/5gpDL71Sw3rRg9zT0EWjMp70olHrVTb70cU7DuWjce9Hn8daqGgU7CuW1k3Hk04tjpVTkdKejnvRYm7JWCkcqD/wGq01jaTIRLbowPqgqcNmndqhx7jUmYlx4U0i4zmJoyf7nFYt54BjfJsrjC+jc12hqPpSdKD6GyqSPN7nwZqcGVEQmXttrIvdPubMEXFtJHjoTzXsG5h0JqKUJKpWaNJB6MKydBdDRVmjx1QGXILhvoatKGaMfunb8K9PXTrENkWyA+1TpFAvC26BfpUewL9ueXfYTOP3VrKWqWLQ9Rk/1Vi4969RHlp0jRfwFHnY/u7fpT9ghe3PL/8AhFNfd/8AVFF/X+dH/CE63v8AmJH1NenG4X1/IUw3A/vVXsUR7Vnl8/hjVrdxm3Z8dWXFRPpN8nW3n/AV6qJs96UuD1AP4UnQQKszyCSKWA7nDr7EHNMFyB0Moz2HFevGOJuqKfwFVp9KsLjPm2sbZ9an2BqsQeY2102D5jFcetaFlcySYVHdge4YY/KuvfwnpDo37gD2psXhLSo2VkhI9fmNNUmiZVFIzLWJG/1swHsOtaVslsv3I2J9asJ4f05JMpEf++qtR6dapwoxWiTMrorZbsKKumwiPRyKKdieYoVo6bZNPhmHyU3StPa5be4xGP1rfVViQIgwBWRYxlitYcLjFc/fTGWc88dq1L+T92xrGPPJpMZGRtBJoiJZsYpCdzYrQ0603HJHWhCZJY2ZmYMw4rdiiWJQFFRxKsMYAFOZ+a1IFY802m7uaXNBJIOlOxUYanBqBC0UUUAKKo3S4kq+vWqt4vINA0QqeMU9BgVEDg1MpyKZTGjhqdjnNGM0q0EjmXIqIripgaY9AyLqakUcU1etSA0AIaSlNJQAoFOpuaM0AKTTc0pptAC0maMUYoAQjio2FS9aQrQBEDinhqay03GDQBJupQaZSigBxNANIaSgB1Q3coigZu/SpazNakwmwUCZjytvkLGmGlHSkNUSIKDQKDQMY4yKjYcVMRTSKQIrMv4U3cyn1qyy1EyUrFpjY5yr1Bfxrcpk4zUjKBmoCScis2i0zNm098K0R6dqdHZYb95H97vWnAdpIxmpXl3ABlHFTYu5m/ZljPyKRSLbFW3jNXWcBsFKN6E421Nh3IUPoPxqWICFi2QxaiKEPIFQE5PSr76bLHGZWjIA71DQXRWUE8mp41KDcDVYS54FKbrHy0uYotOxccVGGIPWq7XRFQSXDE8VHtCuU0JJR0zUYYDvVQFmG7NSopK5zS5rhYsscrSheBTYOeDU2KaRIhGSKlRdrU0CpE9atIBxFOxujNIDk08cDFOwBbjEZqRuRSLwuKQtxQA0rzTZOlPByKYxzWLKQxTgUxm5pzcGon4rNlojlqsfvVZk6VWP3qhmiFqSztjd3SQqOTUddN4VsNqm7kHJ4H0rWlDmdzGrK2hqytHpmndgEXH1NefX9y1zcvIx5Y10PjHUNzi2jO0L1965Mv6068/sodGHVi4ABLVXbJYnoKmkkXZgdarEMx54rgZ1js4Oe1MZwDuPSopJNnHakY709BSAc8rSDYlQFNrc1OCscWf1qW1tLm+O23hZvcggVpCLk7IlyUdzPlHBNZ14+xa7yx8A3c3N7ceUrdl5rd0/wJolqdzwGVx1YnrXZDDy3ZhKuuh4wsU12cQwvJ7LWtYeEdevFCw2Miqe74/xr2+10+xtFAt7aNMf7Aq0CF6DH0rqjRXUwliGeVaV8MNTbDXdzFD7YOa3LX4cW0ePtd7I+f7rYrud/wBaaea3jSijN1pHPW3gjRIMbo2lI/vc1pwaJpdv/q7KP8qvUZq+VGcqkmJGkcQxFGiD2FPLZ6moi1JuqrEqTZIWphamEmkoGKzVEznNSkVGyZoJGlzSbjQVxUbMQaCR5amlqaDThSHyjcmlBNO4pM0BYME0bTSil59KBjQtOC0nPpTxn0oATbSbak2sei0CN/SlcbQymkCp/KfvSGFqZLIApoKmphEacseOtUIq4NKPeroWPHNRSQqehp3AiFFMw1HzU+ZEj9xFSoxNV8Macu4UN3GWCKiINKGNOzSKRGaibrUr1C9Ari5pQfeo80ZpDJHAIpuwYqMsaPMoAZLD/wA86g2Ov3qtq4HShsN96mBVDYpd7dqmMSt0ppi21BQ0O1OV2FQ7jShjTJLHmHvS+ZnvUGeKQmpAsh/ejdVYPTw1VoBP+NFRhqKNAOhQLGgRFAAqCd9qnHU1MaoXcvB9qxkrGydyheuXbYD061QkOPlHWp5ZNpJ7mmQxmRsfxGsiiTTrN5pskfKK6KKJYUwBzUVhCIIB6mpQ2TzWiRDYuC3JpdtOzRmqIG7aNtOzRmgBu2jFOzRmgAFOFNFOFACg4NRzrvFSqKZMeOKBIz3yJMVKnC5ptwAF3e9LH8y0yiSMU7GWxTI8g045Eg96ABlIprHipm5FQyUANVuaXNRjrTwKAHZopKWgBKWkpc0AFGaTNJmgBaKTNITQAooPSgUGgoZRinUUCExRRRQAGkNKaSgB3esbWz81bC/erF1k/vcUxMzO1IadjimmmQFJS0hqhCUlKaKAEIppFPNJikUQPH1qAxc1eIphSoaGmU9uDSPVlo+ajkTipaLTKpPNFPKe1GztSsVfQ1/COnm4upJW5VeQa0vGN+sFqYFb5m4rQ8PWws9L3leSMmuG8SXbXmqSd1U4AqpLQiOrK0EvzcnrU5TcM1nSN5RFaFrJvUCuKR0IQpmlWEHrU6Q81L5YArPlKuRRxgVMFApUUVJgelXGIXEVcU4UvajFaWIFFOFIKXvVAPQc1J3psYp5GKAE3YNJu5pGNNzzWcjRD81E74NDvioXcGsWykhS+aazetRF6Yz1k2aIHkplNJzSfMfufSiOugy/pNo19dqgHyjljXZXssem6aWGFCDAqr4esBZ2QllHzkZPtXO+LtW+1S+RC37peuPWu3SlC5yazkYd7eG6uGd25JqpJk9KRkBJYGmvOicd68qUpSdzuirIcnXmo3kBJ6/UU1Bc3cnlWsEkhP8AdHH51v6T4LvJcNeyiJf7q81UKUpCdSKOWl5PUn2q/pmj6leviK3dV7FxxXomm+GrGwYOsYd/9vkVsKqoPkVR9FxXbDC9zmqYhdDktI8HRQ7ZNQYSyddg6CuntoIrdQsMaxgDsKm75pK7IUYwOOVSUgzRTaM1qSOyKUGos04GqEOooopgJikpxNMJpgLgUHFNzQKBiEj0puak2g0eWDQAymkE96sCMAdKdgD+GgCmYmbvR9lY96ucelGD60AUhaN604Wvq1XNp9aTafWgZXFqO5pwtV9amA96WgRGIkHal8tPSpBQfpQBF5a+lKFHpTj9KKBCUUUVJQUUUUCI2U005qUio2FMLEbHFND0PUJJBoEXIkVu1SPbrjIFU4ZSD1q/G+5eaCSsYwO1NIA7VZdMmmGOqAgxRipNtG2goiccVXm6VbkHFVJxxTArk80oPNNPWgHmpGDHmm55oY803PNAEoNKTUYNLmi4C55pd3rUZNJmgCUqrVG0fpRuxSFyaBDGDrTfNx1FSFuOajYA9qAFDA08VF0pQ1ICYUUwNmigDopnIXHrWPfTkZWtK8kAUn0rEmbzn3VhJ30NoIailmy3PpWvp1ntXew5PSodMtDI2+QfKOgrZUADApJDkyJgaE5qbANV5QUNaGJMKWmA8CnUDA0UUUAKab3p1N70APBoLYpAKa9AEgcGhsEVAM08MaAIL5MREjtUVpKGSrk674mHtWXCpjJHvTGX8+lOcfKD6VFCc81MT8hoAQNkU1uaVOlI3WgBmOacKYx5oDUAP70Gm5paAEpaSloASkNLQaAEooooABSmkooKCiiigBKKU000CCiiigAH3qxtZ/1+a2e9Y+tD5waYnsZ1NNL2pKZAhpKWkqhCUlLQaAEooooGFJS0lIBhoxTiKMUFELp7VZ0Wy+136oR8o5NREV0nhS02xNKw5bpTSuJuxNr90tjp5SM4JX7teeSAtKWPUnNdR4qnM1yVB4U4rBENTJDjIzblMkGkguNkoFXpogRWfcQ7GyK5ZRN0zehYSRhhUgG6saxvNnyMa2ocGMN61Fi7jgtLQKKaQAKcKTFJmqsIdQDTc0ZpATI/FK0mRUAOBQTQA9n4qMvjmgn5aiZuKzkaIJJM1A8hFDnFQSNXMzRDt9MeXFRO+BVdnyazZaLHm7TXSeFNM+1zCeZcxIc7f7xrB0ayfUbtI0GRnmvQLiW30HStwIAiXgdya6KFO+rMKtRL3Sl4p1cWFn5UZw7DFedS3e5sE9eTWpcQ6l4iu/NhjZY2bO9+APzroNE8IW1niS5/eyfp+VOpCdSXkTCcUjkrDTL7UpQkMbeWf4ivFdXp/gi2TD3jl27jtXTRQJEMRoFX2GKkzjhRgVtTw8YkzrN7Fe0sbezQJbQKoHfFT7sfw0Fiaac11KEUc7bY/OaAabRTJH5FHFNyaTNADiKTFJk00saYDmTim8ihSTT/AMKYWGDNOANKGHpS9aYCYoxRigCgQu32pdvtS4HrSYHrTGKB7UuPakGPWlGPWgAyaM0mR60c9qAF49KPwo5ox70ALRxTce9GaAHUmaTNLmgkUZpDmjHvQaAGk0Aj1oOKBj0oAWijFGKQ7i0UYoxVCuIRmo2WpKQjNA7ld0qtItX2UEVXljxQTcrqcGrkD1U2jNWLcgHk0DLYNKy5oBGOtG8DvQBGVNNK1KSKQ4oGQyD5apzjir0vSqNx0oAqN1po60MeaQdaQxW60w9aeetMI5oAcKXNMpaNAA9aKKKoYhpppxpDSEJRRRQA00UGikAoooFFIRf1WQ4Cqep5qGzhMrhQOBUcrNLKc9zxW3p9sIkUnqRXOlqbN8pZhjEcYUVJilAxSVaIbuJjC1HcrmPI61MDTduTz0piK8R3Lj0qfHT3qEjy5SPU1Nnj6UAFJigHNL2oAa5x0oz60nYk1EzbmwKAJWOBmgHNMPIAp6jApgxSPlzTM4qT+ComoBEwOYjWdIME1eziI1RkOc0FDoWwKsRnIqopxipo5MHFACk7JcdjUhNMuBlQw6ikVtybqAGv1oFK9MJoEP3UZpmaXNAx2aM03dS7qAHZozTc0UAOooooGJRRRQAUUUUAJS0tBoAYaQ5pTSYoAB0qlqse6DPerwqK7XfEV9qBHNjpSGnyLtkYU01RI2kpaSqENPWig9aKCQooooH0CkpaSkUFFFAqgBF3OF9TiuwhZbLSd2MECuf0W28+9XI4HNaviqXy7MQjjdVQREjlrqQyysx7nNQBeKeepNCjIrOW447EToDVaaINwRV1xmoGHrUOKZSdjOkgCEMBWtYyBogDVWRc8EUsDbGwKzcTVM0xQaYh4FKTWZYpNJmkzSZpXAXNLvFRM2KhaT3qeYZYaSoWmx3qBph65qtPKe5qHItIu/aB60hmX1rMaUdjUTTN2qWykabyg96rSSrn71VUS7mb9xGzn2FX7Pwvqt78xAg92FRytlcyRSklyODUcKXFxMsUCFmY4Hy5rtNM8EW8CiS9mad/Y4FdLZ6da2agW8CIfXHJrWnh7vUznVstCj4S0caVagzAGZhz7VoXlnBeEfaUDKp4BqxmmNzXoKCirI473d2NjjSFAkShVHpTgKKQtU8oXFoxTC1G6mMeBSHFM30x3oAe5qGe7itkLzOqAdzWdrWtw6VbtJLgyY4WvNdV1671SctK5WPsvtTSuI7bVPG9pAXjt1Mjj+IdK5+68bX7/wCpAWuZ+UH7tJV8qJubb+K9VP8Ay3I/Go/+En1X/n5b86yKMUWE2a//AAk+rf8AP0350f8ACT6t/wA/TfnWPR+NVYXMbH/CU6t/z8t+dL/wlOr/APP0/wCdYuPejHvRYfMbX/CVaz/z9t+dH/CVaz/z9t+dYtFFhXNr/hKtY/5+3o/4SrWP+ft6xsCjAosFzY/4SrV/+ft/zo/4SrV/+ft/zrHoosTdmx/wlGr/APP2/wCdH/CU6x/z+P8AnWNtFG0UWC7Nn/hKNY/5/H/Oj/hJ9Y/5/H/OsbAowKLFXNn/AISjV/8An7f86P8AhKNX/wCft/zrIyKMiiwXNf8A4SjV/wDn7f8AOj/hKNX/AOft/wA6yMijIosFzX/4SjV/+ft/zpf+Eo1f/n7f86x80ZosK5sf8JTq3/P29L/wlOrf8/b1iYox7UWFc2v+Ep1j/n7ej/hKtZ/5+3rG20uBRYLmv/wlOs/8/b0f8JTrP/P29Y+KMUwNj/hKtY/5+3o/4SrWP+ft6x6KANf/AISrWf8An7f/AL6pD4o1g/8AL0/51kZozQBqf8JLq3/P2/50o8TauOl3J+dZOaMmgDZHinWP+ft/++qcPFesf8/T/nWJS0FXN9PF+rp/y3J+pq7bePNRjx5yh65OipkSejWHji3usLcp5Z9RW0l5Dcxh4XVwfSvHau6XrN1p0oaOQlO6k1I0z1B6bWfoesRarbBxhZB1WtGkWJRS0UDG0U6igBDTTTjTTViEzRmjFGKBhRRRQAhzTTmnHNNOaQCrRQtFSIu6XAZpgzDgVvAfpUVjCIYAMc96sY/WsUaTEoooqjMWgUUCgZBdFQQe9OU7lBqjqRYSbu1OtZ90dAy9nApC2ahEm6nigBJWwMVFD940s/3hT4l4oAUDmnkc0hG3Bpc5NMGOWo5B81PxxmmH71AIa33CKqAZq64+U1UA60FCDGaUY3VGQd1OVTQBYXDKQagVykhj7U5Mh6LhQP3lACuSKb70qOJBTyuRQBCTSZp5WmlaBjd1JvpxWmlKADzDSiWmFKQoaAJxMKUSA1V8tqcFagCzuHrS5HrVUbqeA1AE/HrRUOcUb6AJ6DUG+l30AS4pQKhD04NQA8io2GaeWppOaAMTUYtkm71qnWzqUe+MkVjHjirRLG0lLSUyRp60UHrRQSFFFGaBhSUmaTNIoXNKvIxTM0+IZlVR3oA6fw7bBITIR1rL8T3IlvAgPC8V0lui22ngnjaK4rUZBLdO/vWj0RCK7ChBTWahWrMYPxUWeae/NNC0DGMtRkYOamaomrOSLQ5J8cU83FVnGDUUz4Xis3Eu5c+0D1o8/NY7TPmnxzOaykUaEk+O9QSThuhqqXdjtC59h1rU0/w1qF6cuvkJ6uef0rNq5cbdTNaVR1NIitcOqwqzfQE12ll4OsosNcu0h7itq2sLS0AFvbomO4FEabG6iWxxFl4W1C6wxXyEPU9/yro7DwlY22DKfPfuTxW7vGOeKaXGfWuiNNGMpNiQW0ECBYI1UD0FSswC8momc/wilhRnb5ulaqKMuZoliTPzE8U6RwKVztG0DAqIxE9TWqSSJcrgZB600yCk8nmnCIVOoxu8mk5NTBBS7BQBAENOEZqbaKMCiwyMx1U1O8j06zkuJOi1eNcB8S9UOUsYmwBy2KpIGzlde1STVL1pWJ254FUCKQDPNL25q0iGwooopiCiiigAooooJCiiigAooooAKKKKYwooooAMmjJoyKMigAooooAKKKKACikpM0AOzRmm4oxQA7NGaTFGKAFyaOaTNGaAF5o5pM0ZoAXmjmkzRmgBKKKKAEooooAKKKKAFooopANNJj1pxoxUgWdI1CTTr1ZUJ2g8j1Fel2N5He26zRdGFeV7RXX+Ab0iR7OT5sjK0mikzrASaeFJq0LcDtThEPSpKKuyjZVvyxR5VAFLaaNpq35VHk+1AFMrSFauGCmm3oAqbRRtFWTbU025oArlaaVqw0LCo2jYdqdwIulFP5/u0UAdQKXNNorLlsWOooFFBItFFFUIgvIRJERjmsi2cxyGNvWt1+lYuoQmObzR0NSMuKcEY71ZU5Ws2CXIFXI3yMUALIMsKmjHFNVMnNTYwtADXHy0xDmpSMxmq6H5iKYycfdqJutSg8VE/WgCVRlKz+kj1fU/LWfJxK1A0Ix5pytim4pDQDJQwp4/eDFVd9TQvtoERFvKlKngVOjZFQ3UfmDcOoptvLvXHcUDLBpDTd1NL0DJCBTSBSb6aWoAcRntSFajMpFAn9RQA/BpM4605XDU8Qh+9AEW9aaW54p72xXoaZ5bL1oAQHPFGwjmnIQDzUu5ccUAQ7KQIakHJ5pwoAjCkUuKkJAph9qAENA4pwoYUARSLvU1h3Uflyn0rfHArN1SHjcBVITMqkpcUlUQNNFKaQ0EjSaQmlxSMMUDDNGaYTg0A0AOY4q5o0fnahGOwNUSfWtvwnF5l2X9KBm7rsnk6cwHpXDM27ca6vxdNst1TPWuRB+Q05iQhNGaaTTc1AyTNNJpuaCaAAmmHrS5pDTGNYZqJ1zUhNNJqehRTkTnpWjpOgXeo/N80cOfv/dNbWh6BuK3F506hTXUIUUAKMAdB2rJxuVzGfpehWWnKCsQlk7sa1OMdgPSmGZjwBgUw5J9aXIK48uM03knijZk1LGMHpWiiDZGIyx5pwhCmpifSkCljV2M2xRHnAAp7EIvTpS58oZzVYkyy7gfkHWtUlYljwd7ZNSPgCmZHamkk1nuxDs0ZpuaM0yh2aM03NJmgB+fajPtTM+9Jn3oAexwCa8b8VXBudYnbOcPivXLiTbaSknG1Cf0rxbUJPMvZX/vOTVIGQ0ZptFUR1HZozTc0uaBC5ozSUUALmjNJRQAtFJRQAUUlFAC0UUUAJRRRTGFFFFAC0UUUAAoNAoNACUUUUAFFFFABRRRQAUUUUAFFFFABRRRQAUUUUAJRRRQAUUUUAFFJRSAWikopALWn4bufs2rQuG6nFZlS2LeXdI3owpAe0q/yg+1M3fNUFo/mWsLDutSjrUlkoNLUYNLmgBxak3U0migBxNJmjFJigdxc0oNNxS4oC4449KaQPQUGkJqQuG1P7o/KimlqKAuaokpQwpmzFJ0pMsmzS1CGp4akIkooBopkigZqveW/mwsPTpVgHHFITkUmBz8JKMVPUGr1u4Jqnfr5VwWHRqLWX5sUizXVqk3cVUSTPepVbNAiwh+Uiq54epVPNRTcNSAkDUd6anNL3oAfmqMwxMauqMmqd1xPVDQmOKYRmng8U1jgUAxhjoVT6013ao/NagRaRj36VTlDW9xuH3WpyyNkZp8pEyFT17UDJdwZMrUYyxqvbTeW3lPV0YxkUDIeRRuNSFhRlaAAMD1FL5ammbh2pRJigBTDjoaTeyUvnikLK/egA84nqaesytw1QmEHvTGUrxQBbKIwypyajbcnUVVDPGcqTViO7DDEooAcpBpxIpGj7rUTEr1oAkzmlGBUG8npRvI60ATlh2ozUCy0pkoAnAzUNxGHQqaRZuOtNaXNNAY0ybZCPSoiKt36/OHHeqhNWZsQimmnGoyeaBDsUjClBoNAFdxzTCcGppBUDdaAFJzmup8HJtjdzXKdzXZ+GI9mnhvU01uDMzxlLunRAegrn+iVqeJpN+pMPSspvu0p7jRGTTaUmkqQCjNGaaTQAuaaT71YtNMvLzb5Ssqt/GflrotN8OxW+Gn/et70Ac7a6fd3h/dodv9810Oj6AlriSZvMftnoK2hCEUBAFA7ClAbvSbAbjHFGKdigCkUKBTgtKBTgKAADmnjANIFxRjLYqkSL1PFSL8vWhUC8moZn5wK0SJGyOZG4+7TsBVwtMjGzjtUmPypsBlFBoqAEzRRQaBhmkzRRQAmaM0YoIqgK+of8eM3+4f5V4tcf6+T617TqP/AB4T/wC438q8WuP+PiT/AHqpCYyiiimQFFFFABRRRSAKKKKACiiigAooooAKKKKACiiimAUUUUDCiiigBKKKKACiiigAooooAKKKKACiiigAooooAKKKKACiiigAooooASiiigBKKWikAlFLRQAVJB/ro/8AeH86jp8H+sT/AHh/OkB7Bp//AB4Q/wC7U1V9Pf8A0CP/AHRUu6oLH0Zpm6kLVQD80oNRZpQaAJd1GajBpQaBD80bqYTSE0APZqaCaYWPrSqakY/mik3UUAbGabik3UbqzLsLil4po5pdtMALmk3mn7RSbaQAJDSiSk20baAKmpRCYfKKyhHLC3CmuiAHcUjojdVFAzMtpMj5hVxGzSvCn8IpFUgcUgJM02TkZoTOKU/dNADIpOcVMOTVFyVkzViGbpmgC2o4qhej97V1WqpfH5xTBFbcR3pC47mmEBu9NNuzcgmgZIXBpVCntVd4WXpTd8iUtCi3hfSjatUvtL56Uv2sjqKQWJLq2ON6H5qbFccBCfnFJ9qxyelVJ8CXzUNMVjRZSR1pvTvUdtcb1pzAseKYhS4FNLE9KbtpwO2pAY6yUwSyIasicHjFIwV+1AEYuWpfOLUjQgU3IWkUOLmonLHoafvBpQqnqaAGQ3Utu3J3D0NaCzQ3SDJCt6GqLwIeQaqyxyIcoeKdxWNKeCWPmPJFU2uXXhlottUlh+WX5hV1Ta3g7BjRcRRWcHrUivnvUk2mMnzRnIqm8csZ+YEUXAtbhRkVS3n1pd7etO4E1wm5Ko7eTVkynGKhfjmhMlkTCo2FPLUw1dxWCiiimAx6iYc1M1RkUxEajJH1ru9EXZpy/nXDR8yD6131guzTE/3c1URM43Wzu1GUmqB24q7qZ3X031qm+3HNS9xIiYDtTWFaNhpNzekbI9if3j1rZtvD9tC4a4/eH3pFHN2un3F4wESED1PSui0zQobfDTqJH961kiVcKgAUelSqoAwKCkhqKFGFAUegpw4pcUmKkYUhpTTTSJFooopiHCnimCnr1oAXpTkXcc0Bd3FEj+UuB1rSKIEnkwMCoVXvSr8x3GlIxTlILCCnjpTRTxUDGkUmKfijFADMUmKlxSEUxkeKTFSYpMUAMxQRTsU4LTAp6iP9An/3D/KvFbgf6RJ/vGvbtRH+gz/7jfyrxO5H7+T/AHqaEyIUUUVRAtFFFABTe9ONN70wHUUUUAFFFFACUmKdRQA3FGKdRQAzFGKdRQA3FGKdRQA2iiigYUUUUAFFFFABRRRQAUUUUAFFFFABRTqKAG0U6igBtFOooAZRS4oxSENop2KMUANxRinYpMUAJilxRRigAFOh/wBZH/vD+dNFOh/1kf8AvD+dJjPWtP8A+PKL/dFT1Bp//HlF/uipzUFhRRRTAKM0lJmmUOpwNNFGaQrDiaQmkJpKAsBpVoWloEJRS0UAauaBVbzTSiasjWxaBp26qyzU8SAmmJk2+jdTQQacMUhC7qN1JkUZoAfRSA0tACYoxTqKBjCuKaV5qTrSNSAilhBFMWHHSp+ooAoAaquO9VrpXJ6Zq5twOtIQSKYGNIzx/wABqMXbg+lbm0HhgDUMllbyfeXFAGX9sJHO00eejdSBVqbRon5jlK1Qn0i4jPyOWFSUPLRnoQaYyoe9VHtZ4+oIoVnXgk0rDuWhGnrTxArd6rKwPepkmVe9LUCCZWt33L09Kt21wki9eaR3jkG096qTQNC2+PpVJisaEq45FQlsdelMtLxXG1+tTyoGGRSYyBp1HalWcNUbxD1pm0L60gLO7NMaoRIB3pwkWkAozS5b1ppcUBxQA75sdabvbpigyA0Zz0oAa8ZcfdqErNCdy5/CrW4gdaTee/NABa6tJGfnP51pw3VtdL+8ABNZDxxyckYqIwvGd0bcU7hY2ptMVhuiNUJbZ4zhhTbbU5YSA+cVqwXcF2uGxmqFYyAh9KjkSt17FHGYyKz7qzdT0oEY0g+amsannTBNVieapCHZoptBqhAaZ3pW5/ixTAcnaoZ29qYh8IzMvT7wrvovlsEHolchp+jTzSK0w2LnI9a7EIyQgf7NXElnH/2ZNd3cjN8i7jz61q2uk2sGCV3t6mtHZjPFG0Vm3qNIRWIGxBsA7Ud+aXHNFA7CgUtFFAxaKKKAGmmmnGmmgQtFFFAhaevP1pgqxGmPmq1EmQ8fKue9VZDvbJqaRiTTcDFNsSGKe1Kw7UnQ0vWs3oWkAFPFNFOFABS0lLQAlLiiigQYo20ZoLUAG0UuAKiLmjcaYyLUf+PCf/rm38q8RuP+PiT617ZqB/0Cf/rm38q8VuP+PiT61cSWQUUHrRVEC0UUUABpvenGk70wFooooAKKKKACilVWc4QZNTx2F3I21baVj7IaAK9FaE2i6jDbNPJaSoi92UgVNc+Hru30m3vyNyznCoo5oAyKKkmglgIE0bo3oy4poRnOxFZvRcZNADaKtjSb7H/HnP8A9+z/AIUv9lX/APz5z/8AfBoApUVcOl3w/wCXO4/79Gqs8ckEhjmjeNh2YYNAxtFSR2lzKm6GB5F9VBNSCwvcf8es3/fBoAr0VY+wXv8Az6zf98Gj7Be/8+s3/fBoAr0VNLZXUSbpbd0X1YYqxa6PqFzD5sFlNInqgzQBRoqzeafd2WPtdvJDu6Bxir+n+HLm90i41D/VwxdC3f6UAY+aKXZKOPLb8qWON5JFRF3O3QUANorWHhfWHG77DLUV7oGqWVuZrm0kSMd8ZoAz6Ny1oWnh7VryBZoLR2jYZDc1K/hXWo0ZjaPtUZJGaAMmilKlSVYYI4NJQAUUUUhC4oxRRQAUUYoxQAhFJTsUYoATHy0sX31/3h/OgdaWIfvl/wB4fzpMZ61p4/0GH/cFTHrUmlIP7Pg/3asmBfSoLKNFWmgBpht/Sgogx70Y96lMRHamlWHagBuKTFPxSGgVxtJTqSgLgKWgUVIgoooqgHGSk8yoacKyNCcPS+ZUGcUhagC0JiO5p4uGFUt3vRuPrQBorc+tPWZT/FWbvalBNAGqHHrTg/vWakhFTJNQBeDU4Gqiy1KsooAnzSHmot9KG96AH4ooDCjFAC0UUUwCiiigAozRRSGNaNG+8oNV5bCGT+HBq1RQBkTaTt5Q1VktCnWuhqNolbqAaVgOc8k9s0FJR3JrWuNOY5MLY9qyrg3VucSRHHqKLDKksLqdygj8Kntb0r8rn9aVL9SNsn8qrXIiY7kbGaRRoMFkG5WNQspJwSaoxXLxH73FW0u43HzEZpAIY+eDTSpWnO+eVNRNLj71IQ/NANReaDShqAJhzUiCq6vSmbFAFrK0ny1VE4NODZoAsYWjaPWofxpaAHlUPBxUUlrt+aNyp9jT2BxwKRS3ejmAdBqFxAcPkqO9altqUM64kIrI69eRUTxLndGSGqk7gbGo2qzRbocH6Vz8qFGIPBFSx39xbtjJI9Kn2vf8rEyk/wAWKExWKDHj6VJaWs14+2Nfl9a2LTQVGGnfPtWtDBHAmyJQo/nVpk2MiDw/CeZmLN3q7BplpbcxpzVvFFMByKcrzVxidnWqa43irbtlBgVpHYykVn+9SDrQ33qB1rNloKKKKBi0UUUgEpcUUuKYhppMU7FGKoBhpMY5qQjtTcfNimiWPiXJxUkrhBtFK+Ios96qhi5ya0ESBs07NRinCpYkLigCloqGi0wzRuppFGKVh3HbqN1NxRiiwXHZozTaWiwgzRS0VVgExRilxS4qrBcr6j/x4T/7jfyrxO4/4+Jf96vbNR/48J/9xv5V4ncf8fEv+9RHclkVFFFUSFFFFABRRRTEFFFFABRRRQBa0ueS2vY5ooVmKHO1hmvRPCXiO+vtU8iawjhQKTkLjmvP9H1V9JuhcRqGPoRmu+8G+L7jUtT+zyRRKQufuAH9KAOc8UaxrN1cXNtIXa33FQBxiti/NxD4E09oYm81GAC91OTVfU/F+ppqM6x2SMFkwCIQeB+FbbeJLr/hCF1D7PH5isAV2jHOe2KAMW9u7LXtDZ9QtTBqEK5DD+KuNtbiWwvEmK7JE5G6u70jXdc1SzuLqO2thHBzudFAOPwridc1CTU715pljRvu7UUAfpQB6Ja+I57zwjLqEEUZngPzd+MCuV/4T/Vv7kP/AHyan+HV2ryT6VKfku08sA+p6VzniCwfS9Tlt5lICE7fcdqAO08J+LdU1XWYLaRIzGzDdtXtXPePLhbvxFcSJt+T5Pl/KtnwdCNG0K51i4jxI42RZ68jt+dcXdSme4llY5LsW/WgZt6P4uutLthDFbRSK3dxzV//AIWFf/8APlbemNveuP8AmfCou5j0A6123hTw3DY27a1rmEgXlYz1J+lAHVQ62dP8MtqGsW8SzScxRlcdq5D/AIWFf/e+yW69+U9q3fFV7BrfhW3vHXylMyIG/wBnJH8q5vWPBs9vaJeaa4vbcjnZyw/AUAV9c8X3WsWDW00EKBv4kXBroY9RvNL+HUM9k21jLtz3+7Xn0g8vIcMP9nuK9HtdWbR/h3DOIkk/e42MM/w+lAE2t6Xd+JrLSFCk7h87henTrVrVZNR0lF0vStF+0WsQwSVBDH86ZqeuXf8AxJXt5BGtwRvQL7iotXj1fUvE15BYXxt44Mk5wBwfegC9YQTto0893osK3DIRHGqAN6c15rfabqOl3gnltjCSwKDHTP0rtodK1iV9ieIIGZsgLvUn3rldTF3/AMJDHp9/cLL5LhGJ6fWgDora18azQwyxTOoYbup6EcVo6zBqsHgm6/tqVnk8wHaT2xTvEel3988Js9Sjt4EiRdpcDkDHrWBr3hnVY9La4n1Nbi3BAba+Rn86ADw/B4uudMibTncW4+VF6Diun0GDxLCl0dZk/cmB87z7VUuLCeXwxYW+mXy2+wAu+8DsPesxfDGtTgoNXicngqJM7h+dAHC6gduozj0c1FVjVLV7XU54JW3SI21/qKr0AFFFFMQtFFFIBaTvS0nekAtFFFAAO9LD/r0+o/nSDvSw/wDHwn1H86TGezaX/wAg+D/dq1VXS/8AkHwf7tW6gsbilxRRSGJikKinE0maAGmMelMMK+lTZ4pKAITAtMMAqzgetGBQBV8nFI0ZqywpoFAFcJRU5FFAGaDTwaiFOzWZY8mm00tRuoAdmgUgFPUUAA6UZpTTT1oAeGp6uKiApQKALAenCWoBSg0AWllz3qQPVMNinB6ALivUiyVSD08OaALm+lDVWVqkVqYE4alzUQal3UASUYpgang0hhRRmigAooooASkIDcMAfrS0UAUp9LtZ2+aID3FVzoFp/tn8a1aWgDJ/sKzPVG/E0o8P2HXY34GtTFHH/wCqgDPGjWg+6Gpf7ItO6tWgPakzQBVj0y0H/LIH61J/Z9n/AM8E/KpqKAIfsNl/z7IfwpDY2X/Psg/Cp/xxR+OaAMa78PwPlrfMbVkz6be25P3nUdwK7CmkZ680rBc4rLjq1LvcfxV015pNpd5LLsf1HFYl3oF3BloZPMT0NKw7lXzn9aTz37mqs/mwnbIjRn6U+ztJ747Yg23u1RYZMZyOKtWthcXXzHdGtaen6Lb2qguvmP6mtHhVCqMAUWE3YpW2k20WGk/eH0NXlREH7oBR6UgAznvTgv51RNxRQaBQ1WSNJpDSZpQM0xioPmq0B8tQpE26rQhJWto7GEtym/3qQZzU0kWGqPgNWTNkBpppxppoGLRTc0ZoAfS02lFUSLR3opDTENY+lTxoNu5u1RouWpLmXYNo71SJYyeQyvgdBSJxxTVG0e5pw5psQuacDTcUCkMkBozTc03dzRYLktFR7qXdSsO5JRgUzdSg0WC47FGKTNGaLBcKKKKqwXFooooJK+of8eNx/uH+VeJz/wDHxL/vGvbNQ/48bj/cP8q8Sn/18v8AvGhbgyOigUVQBRRRQAUUUUAFFFFAgooooAu6Mlg9+v8AabEQKMnGK9D8H3fhz+1vJ023YvsJEhUf415jFG1w6xL95zjluK77wd4ZudFvXvL5oo4liP8AGp/kaAK3iDxh9mu7mC1srdP3hR328n8q1PAlr/bPhS7trzdHGJQzFvTB6VjWsegfbLzUtQmywkJROeavab47STUktEgW300rs+UAE570AUPFuvRxwromhAC3UkOU/iPcVx0sD27GOUbWX+H6816HD4R2+JhqEDxvp6sJd2R06461j6lpE/inxBcmzMSxRnbu4AwKAOWs7iW1uFntyRKhyuPWvU7bRrXxpY2mo3MLLJEo3npvxWJbaP4d8Or52qTi6nT/AJZKeMj9KzNW8c3k12BpiR2ltEcqiIOR74xQAeP9X+0Xf9m20bQ21qSoX19K5TOBXfQ+ItD8RxLDrtt5E/TzU43fkKp6r4Iiihe602+iltxzgkZx+dAxfDUWiaVp66peyrcXBHyR8HH6f1rE8TeKLzXJzuBjgT7kQY4Wsh0w7Lu6ce1Rj+tAHeXxz8Lbb0Dp/M1znh/xPfaLKBDIzwZ+aNjwa6S7/wCSWQ/9dUx+Zrg8UAdh4m1HRNY0pry3h+z3oIUqijBzW5ZXGn2/w/gbVYPMjaTgD2FeaRrvbykXljj8TXo+uaXPceH7DRbGWNpkUSMCRx689KALmv8AkTXOhG0i8uLdlR7DFTTP/wATjxFs+95b/XPFXP7PW3+wNcyx/wCgRvuG8dccd65vw5qUWq3+sxyS7ZLrdsy2BzQBU8K+GtTi1JL6T5bZcvvb35rG8U+a/iO5ufLYxtIdjYJBGK34vDPiMr5B1GMW+SuBMOn51J4iv7XSH020EcdybeLbKcj5mz+NAEui3EOv2a2tzpUkckaBRJGg59OtWbnT59O8GanDOGGJRt8xe1RJf+ItatRNo8EEMJJHAUHjpzT9anuNK8Irb6nKr30sivt4PAzmgDM8LajY6pZx2N3prttXaJIU5/nV3QtIuNJ8Uo7GRLd0YxoevFVtJ8RapqYWy0S2hgaNeThefxxWjoOl6nZ38uoa/cjy0jdQN4IyRxxQBw3iZ/M1+/fuZSazR0q1rEq3Gp3EibWV5CQwqqOlABRRRQAtFFFAC0nelpO9IQtFFFAAO9LD/r0+o/nSDvSwf69P94fzoA9p0z/kHw/7tWqq6Z/yD4f92rdSUJSEU6kIpDGEU0inmmmgBKKKKQwxRijNGaBiGgUGgUANaig0UgMrdS7qZRUFjqUU2kJoAlBpQ1Q7qUGgCbNJTQacBQAtFKBTglAAtPA4pAtPAoAZilApzChFyaQCqKkFG2nBaAFQ4p26mjNOAoAUMaVmIpFzmnOMigARqlDiqwUilye9AFjeKUNUCsKdvPagCbdTSxpgJpeaYDt1KDTKUUAPzS5pBRmgBc0lGaTNAC5NJuNJRigQ4GnDHrTNvvTCp9aAJW46GmjcTSBG9aQsy0ASAHvR0piuT1oZqAFJB60bsVGxJoU460hiyxRSjEsKsPU06GKKIYjiVR7UgcUoYUAOK00pTgaUUEjdlG0ipKKAIiKaRUpphFMYwinRj5xSkcCiP74ojuSyznBqVWqFutPQ811xtYyYj8mqso+Y1abrUEg5NZyii0RdqQ04ikIrnuXqNoFLiiquGotFFBpiFBoPNIOlPhGWq4ktj+I4smqgzIxY9BUl2+8hFpAAEAFWIKKKKAFooopAFJS0UAGKKKWmIUUopM0ZoAfmkNANLigBBS0YooAdRQKKQFfUf+PC4/3D/KvEbj/j4l/3jXt2o/8AHhcf7h/lXiNx/wAfEv8AvGgCOiiimIKKKKAEooooAWijrRQAlFGaMigBwfZu2cHs1WJdRvZFUSXcjjb0Jqr7U3imAMAetIoA6U4g+lABoAuR6pfLbfZ/tMnl4+7u4qOC8ubdX8id49/3tuOaq0E8UAOkZnOXYsfemNjFH8OabnmgAG2pUupo1KRzOEPUZqEgUgxQA7r+NHSlpzxMn3lYfWgZYbUbs2As/tDfZ1+YJ2z/AJNVfekA3thPmp0iPGdrjFACA4OQefX0qwL+7EvmC4ff0zu7VWHtS45oAtPf3jBh9qkIfr81V4naJwyNhh3HBpfLdRkjApEBc4Xk0AWft97/AM/UjbhjmoCTwWO4jqT3zSEFThgQaKALVrquo21t5UF28UanIC1FNd3F0++5neRh/fOKi7e1Gxn+6tAEtveXVpL5lpKYm9VqafVL+4+WW7lZT94butU+lHegBQO9OFApwWgBtFPRGk+6tJjBwetACUUUGgBtFBopgFOFNpwpCClt/wDWp/vD+dJS2/8ArU/3h/OkB7Tpn/IPh/3BVs96qaZ/yD4f9wVbPepKEooooENoIp1GKBkWOaUU4im4oZQUmKWlxUMY1qaKe1IKYDaKDRQBjc0AGrAh9qeIfasyyuFNL5ZNWli9qkEPtQBSERp4hNXRF7U9Yh6UDKSwmpBDVsIB2pdooAqiOlEdWtgo2CgRXCH0p4X2qbaB2o4oAgZaVE5qXFKBSATbShaWkJoAUqDQFxQGoBoAUYBpXGRxTe9OoARV9aRwMU4GkYigCIrzSjilIpMGgBwal30zFGDTAk3Cl3VGAacBQAbqUNQFpwSgBu6jJp+yjZQBGCaXdTjgUwkUCF30ocetRkZppWgC0HIFIzZ7VWV2HWp43DUAKOadsxTgABmmO9ADHIFM3UjnNNqCh9FA6UVYChiKXzcU0mmnmgRL5wpyyA1WKmlXIoAt4Bo21XWUg4qxEwYUEhikA/eCnkU3HziiJOpI3WnL1pvenDrXXGxDi+wNUL/eNTYqGQYY1Emikn2GUhFOxxSEVz3Reo3FGKKKd0GoUUUGi6Dll2ExuOBVjPlx7qjt1y1F03Pl1rFqxLiyCIFmLHvT2GBTgNqgUuM8UEjB0opxFGKYDaKdijFADaKdijFADaTNOIpppiDNKDTacKAHg09aizT1NADzSUE0CgBaKKKQFfU/+QfP/uN/KvEZ/wDj5l/3jXt2p/8AIPn/ANxv5V4jP/x8y/71AEdFFFMQUUUUAJRRRQBb0y3865/2V5NXZLmyEj/aEDBflG1c1c0i3+zWkm//AFjKDis3TII55JfOH3ctQA77RpAOTG4J/wBmp7b+y7mRUVHH4VFamwnnMXknPrUdkixa0yIDtHagAu1shdokaHGSpLHFQajY/Z0WVPmT1qHUP+PyT6mkW+n+ztC5+UUwNaWaCytYf3QZmH8VVv7Wtj961Sn6pbs9pbbVZuM/nWQ9nOG5iYUAbkDwX1tOywKmxcjFZtpcW0JbzYvMzV3Q4XSzug6spMfG6qFmLXzH+2/d3cUAa0rWUFnHM8IIaoLtLabSmuIYQp6VcvvsKafEsgOxsFagn8g6K/kg7RQBDClpDp8dzLFu3cdO9PWKxuLOSWOLZio5P+QBF9cUuohrPTYYI+A3LMvuKAI7CxWT97MMQqetaLC1vUMgTiPjGOwrM0eeWW4jtnP7vqR71sOzQyMB5I/h+7zQMp21raSyefHCyeXye2alnFhdxPLsO5f4cdqmEsgHHkAH/ZqSB3DrxDt/iXb1FAGFcyWYjVYY2Vm6fLVW3gaecIn3qsaqoW9YxqOOgHatLw7ZbM3Lj5iOAaAK2uskbrAAp2ADiq2lIDfR9ME1L9je9uJf3gBBPWrWn6ZJHcowlDbaAKGrDbqDgdKpMRxwfwrev9JMl07iZQT61nXunm1wXkVs+lAFNM9f4fStmxi+x27XMq9vlDVDpliM/aLkYjXkA96i1S+e6fYFzGjcIPSgCq5NzOXA+8ei0joUOCOa2LZV0628+RQJWX5Qe1ZU8rTSF5DkmgCMfrWsP3Okfd+aQ1S06AzXarjIzk1sa0FD24/5ZqaAIdHtxFG8s2ELDjJqJ9KR5HY3CAscjmprtLm5nQRx4hXkUmp2EzSp5CdvmoAgfSolRv8ASR+DVnEbSRu3Yq1Np9zEjM6nb7VToAKKKKYC0Gig1IAelLb/AOtT6j+dIelLB/rU+o/nQI9q0v8A5B8H+4KtnvVTS/8AkHwf7gq2e9BQ2iiigQUUUUDDFIRTqKllEeKKcaaRUsY00lKaSgAooooAaIfaniKrGBScVmURCOl8upKWgCMJTggo3UuaBibRRtFBJppzQA44phNLTTQAZpRSUVIC0ZpCaSgB1IaBS0ANxSilxS4oABS0lGapAJRRRQMSilooAAtLilBpRQAlANGKTFADwaXNNApcUEik0Z4oxSEUAMemCntTaACmmlNHWgojJwKIpNppxWm+XQIm87Ipuc01Y6kVKkBtGKkxSUCGYNGDT6KoBu2jFOzSZoGGKMUZqtqV9Fp9s085wo7etJtJXZpTpupJRRLNJFCheVgoHeub1XxtY2TlIPnf9P0rjfEXia51K4dEYpADjaO9YIzli34V51XFW0R9Vg8lulKZ203xEvufJgjx/vVCPiFqXeFP++q48Z70tc31mR7Mcpw6WsTr/wDhYWo8/wCjp/31SD4haj/z7p/31XI000/rU+4/7Kw/8qOx/wCFhaj/AM+6f99Uf8LC1D/n3T/vquPopPEzfUP7Kw38q/E6/wD4WDf/APPun/fVH/Cwb/8A590/76rkKKj6xPuV/ZWG/lX4nX/8LB1D/ngn/fVH/CwdQ/54J/31XIUUfWZdw/srDfyo67/hYOof88E/76pP+Fg6h/zwT/vquS/Kij6xLuH9l4b+U63/AIWDqH/PBP8AvqnQ+P7syZkgT/vrNchRVLETWzJeV4Z7RPTdJ8dWtw4jul8snv2rqra5huUDwSKwPoa8JrV0TX7nSZgyuWj7rXTQxbTtI8fG5JGzlTR7NRWfoGqwarZLNGwLEcj0NaNetGakro+Qq0nTlyyENIadijFWYjRSilxRigQYppFPxRiqAj20uKdilxQAzFKBT8UmKQWClpM0hNAWFzRmmbqTNAWItTP/ABL7j/cb+VeJTf8AHxJ/vV7XfnOn3H+438q8Vn/4+JPrQIZiilxSUxBRRRQADpQpwaSkHWgDc026luppDJ1C1FoozJdLnkg03QRl5j321RW5ltpn8s4LZoAt6VBOuoh3ibknk1Jbf8jC6nI5qmNVvG2jdz3qfRvNfVN8qtz3NAFLUv8Aj9lUcYJq55MUGk+bIMu/rUbQefrLr0BbPNP1ybzpVt4RkJxxTAm0nUriSRYW27R0/CrNtqE02pGI7Sq9selVtPtTptu9xcnDEfIGqHw+3m6m7P33frQAl5q1wJHhVuDniq+nQ20zOLuUpx0qUWUr6phoyBu5P40+5sfM1YxQjKgjNAGlqENsLWGKSUooAxUN4sMWjSLDIXFV9ZLyypFAhYIOtLPG8OhMJFO9iKAI7vP/AAj0RHXeKn0yQ39lJBKMuq5Wlijhk0WFZ22LuFJGbLTY5JI5t7sNooAr6AuNQy/yqK1LhC8rmOFWx/t1m2xtCFd5W8w9VFasCW8VtM7SsoYY60DIPJk6tbr/AN91LaxkPxCibu+41V82z2N/pUn/AH1irZkgGn7jM+3PXdmgDJ1Nkj1NyvzKcVd0+6kubpQjbFUfd9apXK2RQtHIzt71NoHN5xQBRuSY7mXBbqafpUsjX0PLfeFR3n/Hw/PVjT9IH/Ewiwf4hQBNq8ji8f5mHPrUNrMFmDzEuq9qk1kf6dJ9apqKALl7qMlz+7i3Ig6AVPp1mkaG4uuEXkZ/iNO0zTWnKyybginOB3qW9t7u5fy1jYRLwPegCuJBqV0yyMVX+AGqd1CYZCj8Y71ei0q5jcOTjHSrlxZCe0JJBlFAGVaXJto5BtwzHrVzWXP2a2weTzmsx9yOwfk+lauqAtbW4VcnHT8qAILG7u5LhIlf5f6VJq9/Il40cbt8oFSWsAsY2uJyBIRwtZ0sUtxIZtp+agDStbmSfTLgu7GsWtaBGt9LlEny7zxWTQAtFFFMAoNFBqQClg/1qf7w/nSUsH+tT/eH86BHtWl/8g+D/cFWz3qppf8AyD4P9wVbPegobRRRQISiiigYZozSUVIx1JSUtADMc0CnEU01ACUU2imMtUmKWisyxMUuKKTNABtoxQKWgY000mnGmEUALRSCnUAIaaaUmmE1IBSrTactADwKMUq07FADaQ0UUAIaSlxRiqQBRS4pcUCG0Yp2KXFACAUtKKKAEooxSYoAUHmnUynUCFoNFFAEbUypHqKgYtAoooKHClApBThQAoFLSGmk0yR+BSYpuaXNIQYpMUtGKYxMUUuKCKQCZWvMfHmrvdagYI3Plp2zXouqSi10+abP3VNeK3kxuLl5GOdxJrgxlTlVkfT5Hh1OfM0Q0UUV5J9vsFFFFIQUUUUD6BRRRVcrMuZXtcKKK3vCXhqfXbrb8y2+eX9aqlSdSVjnxeLjhYc7MSKKSZtsSM59FGat/wBjajs3/ZJNv0r3TQ/C+n6bAqx26Ej+Ijmtb7JbjjylxXqLL1Y+Tq8Qz5vcWh81SwyxEiSMoR/eGKZX0Nq3hzTtRiKTWyc9wORXlXjTwPLoubi0/eQE856isKuDcFdHoYPO41moT0Zx1FFFecfTx95XQUUUUFWbOg8F6s+m6mqlv3chAINeuryMjpivAgSsiuCQVOciva/Cty93oVvMxyWQZr2MHUurM+Gz3DRjJSRpjpS00Uua9K58uLRSZpM0XAfS8UzNGaq4DsikzTCabmi4EuaaTTc0hNIdhSaaTSE0maAsFFFFMRDqH/IPuP8Acb+VeLT/AOvk+te06h/yD7j/AHG/lXis/wDr5PrTICkopKYgzRmkNJmgBc0U3NFAFi1umtd5X+IYqszF2JNIaKAJLadoJNwVePWrr6zOUwmF+grOooAGkk80ursWP8VWLG8kt5DIACx6lqr0UATXVxLcSFmYHPbtUVvI8MgkjJVgaTiigC+2s3RRlUqN3eo4L54jISfmb+KqmKKALlvqcsO7Znrn5jUN5qE90w807gOwqHFGygCw16zWItv9qq3If+vWl285opgWrG7+ynLL5lLdXkt03znCdl9KrLxTqBgQMVZN232PyFqtRQAn1qzZXLWku9ar0UAPmcyylz3zTrZzBcJInG2mUUASXUpnmeQ96i7UtFAE0d5cRx7UcgUG7uT1lNQ0UASm5mPWQ/nRbXNxE7MJOPSoqKAFdmkdnbr1q42oMwj+X7lUqKAJrm6luZcyHIqxFqlxDGETbt+lUaKAJrq+nuSBKflHYCoKTvS0ALRRRTAKKKKkANLF/rE/3h/Om06L/WJ/vD+dAj2nS/8AkHQf7gq2e9U9LP8AxLoP9wVbJ61mUJRRRQAlFFFAC4oooqhhS4pKWgBKaadTTSAjainMKKQywaSnGm1mWFFFFABRmg000AKTSGijFABRRS0IoYaYxp7VGaGAgp69aaKcKkZKvSlHSmjpThVEiYoxS4paBDdtG2nUtADcUYpaKAEopTSUAApaSkoAdRSUtACU6m04UEgBSsOKAKGoAgemjrT3pg60yxwFKBQBTgtACYpKcaaaBC5pDRSGgQCnCmUoNMQ+kopaACiig0DMrxX8uhXH+7XjQ/pXsvi3/kBXH+5XjJ+9+FeRjfiR9tkCtFsKKKK80+rCiiiqSuYzmoK7CtDSNEvdXk22kTN/tdq3fBvg6bWpUnuEKW4OVzwTXsGk6Ra6ZAsdvEF2jHAr08Pg3L3pHyeY537N8lPc4LQ/hlGUWTUZN395RxVnxJ8PLCLTZZLMMsijK5Oa9DaRUGT+tcr4y8UWen6fMPMWSQjAVa7Z0oRgeBQxeLrV1JNniPlN9pEH8RbbXvXgzR4tN0aFUXDFM/nXhUM4l1eKR+AZNxr6K0hw+mQEf88xWOFjFts9HO6lRRjFsfeXUdjZvPKcIgya4uT4m6YLpo9j7VON2K1viKJD4YuDEcEKc/lXgykng9+a2xFf2SOfKsuhi4tt7H0Xo2vWGqxCS0mVs9s81T8ZTWq6LP8AacMoU9a8KsNSu9OlDWczIB2zxVvUdev9Rj2XMzFP7vauV41SVmj0I5BOFZSvojLPWij6UV5UviZ9nTXLFJhRRRUmo0/cavYvArf8U5b4/uivHj0Neu+BP+Rft/8AdFelgnqfKcQfAdFmkpM0Zr1j4gWiiigApM0hpCaoB1NNJmkJoAcTTTSZooAKXFFLQAUU6kxTArah/wAeFx/uN/KvFZ/9fJ9a9r1D/jwuP9xv5V4pP/r5P96hbmbG5ozTTRWggJpCaSkNABmikooAKKKKACiiigBabmgmkJoAUUtNFOFABRinYoxQAU6inYpANopcUYoASinUYpgIaBSkUAUDFooopCCiiigAooooAKKKKACiiimMKKKKACkozRQAlFFFAC0tNFOpAFIaWmmgAP3TT4v9dH9R/Ooz901JF/ro/qP50CPaNL/5B0H+4KtnvVTS/wDkHQf7gq361mUNooooKCiiimIKKKKYBRRRQAGm5oNITQAu6ioyaKALhptONNrE0CiiigBTTTRmigAxRQabQAtLmkpDQigNMIp9IRxQwI6ctIRTh0qRj1p9RrT81RItFJmjNAgzRmkooAM0ZoxRQAtFJRQA6kpaKAG0tLikNABThTKetBI4Uj0opj0ARvTB1pzU0CmWPWng00UoNACmm06koEJimkVJikIoER0ZpSKaaYhwNPFRA08UALRRQaBmX4s/5AVx/u14y33vxNeyeLf+QFcf7teNt97868jG/Ej7fIfgYUUCivNPqArqfAfhl9avvMnTFuh6nua52xtpL26jtovvSMBXv/hTSItK02KFVG5VwT6n1r1MHh+b3pHyud472cfZx3L9jaR2VusUCBQo7VW1rWLbSbcyzyBQBmpNb1KHTLN55mwqjJrwnxd4huNdvWJYi3B+VfUV6NWtGkrHzOAy+eMnzS2NnxR49vL92isiYouhbua46aSWdi0rs5PdjmmZ9Frd8MeGrrXZwEUpD3f/AAry3OpXlaOx9k4YbAU07GHErTSBYFZ3HYDJzXv/AIFkuH0KIXKFCoxhu9V/DfgzT9JjB8kPJjlmHNdNHGsY2oAAPSvUw9H2a1PkMzx8cZL3VaxS1qyF9pc1swzvUivGL34f63byybIRJHuO1gR0r3WkIB7CtKuHjUWpy4TH1ML8B823ukX1gSLqB0A77ap+1fSN9pNneoVuLdXB9q848Y/DvYj3Ok8hedlebVwLWqPp8Fn/ADytWR5tRSujwyNFMpV1OCDSV5couLsz6ynUjVjzRCiiiszUQ9K9d8Cf8i/b/wC6K8jPSvXPAv8AyL9v/uivVwZ8rxB8Bv0UYor1T4gWjNJmkzQAE0wmgmm1QC0UoFLigBoFOAoApwFABSd6caaaAHU3NHammmBDqJ/0G4/3G/lXilx/rpP96vaNRP8AoNx/uN/KvF5/9dJ/vULcljDSE0E00mtCA70Gm5pSaACiiigAooooABQaBQaAG0UUCgBQKeBSAU8CgAooooABTqaKdQAlFFFABS00U6gBaKKKACiiikAUUUUAFFFFABRRRQAUhpaaaACiiimMKKKKACiiigAooooAKKKKAEP3TUkX+uj+o/nUZ+6aki/10f1H86Qj2jS/+QfB/uirNVtL/wCQfB/uirNZlBRRRVFBRRRSAKKKKYgNMNPNMapAQmmk0hNNJoAGPNFMaimBo0lLSVkaCGig0UAJRRRQAUUUUAFFFIaACikooGIRSU/FNIoGOSnE0wUUAPoFJS0Ei0UUUAFFBoNACUUUlADhS5pBS0wFpCKcKCKAIwKcKUimk0CH54qNzQWpjGgoDQKBS0CFpRSClNADhSNSA0E1QCig0gpTQA2mNT6a1Ahg61InSo6cDQBJmmmkzS0Ex6mV4t/5AFx/u142fvH6mvZPFn/Iv3P+7XjR+8fqa8fG/Ej7nIf4bFFFFFeeldn0s5KMWzvfhRo/2m8a/kXKx8Ln1r2EsFHsK5H4Y2S2/h6Fh1cbq6HW5/sunSzH+FSa+kpLkpH5djarxGJd2eWfFTxE1xemxhciNfvY9a4CrGrXLXuozzsSQXJqsOa8SvNznY+/y/Dxw9BaGt4Z0iTV9USAZ2cFvpXvOi6Zb6Zax28MQTaOTtxXCfCHTF+zSXjrli2Aa9Hmfyo2avYw1JU4XPiM1xU69dwi9LkOpalb2ELSTuEUdya5OD4iWc+spZQqCrNgvmuD+IPiae/1N7WNisERxgfxGuTtpDBcJJHwVIYH9awnivfsjuoZLz0HUlufTwYMoYdDyK5/xnr0vh60juFj8xS2GHoKs+FL/wDtDRreUnJKCq/jywF/4fuI8ZZVyK71O8eY8CnTSrck9rjfDXi+w1qJfLlCyd1NdBw4zwa+a7O6n064JgdkZW7GvYfAHi8a1arb3OFnjGOvWsaWIU5crPSxuWSoRVSGqZW+Ifg2K/tXu7JNtwvLY714+6PFI0cow6nBB7V9NugcEEZz+teM/FDQRYamLqFcRS/+hd65sbQTXMj0sjzGUZexqP0OKooorwmfcaDT0avXvAv/ACL1v/uivIf730r13wL/AMi9bf7gr1MHufL8Qfw0b9FFFesfECGkoNFABRQTSZqxjqSlFGKAClBptGakB5NMJpC1Rs1AEm6mO9R76Y70AQak/wDoNx/1zb+VeOTMfMf/AHq9e1B/9BuP+ubfyryCU/vH+tVEhjaSiirIEpO9LSGgBwpaaKUUwCiiigAooooATvSgUYpQKAFFOFJilFAC0UUCgB1FFFABRRRjNADeM9aWl8th2pPmHagBaKKKACinbG/umkKkdVpAJRRRQAUUUUAFFFFACU006mmgBaKKKYwooooAKKKKACiiikIKKKKAEP3TUkX+uj+o/nUZ+6aki/10f1H86APaNL/5B8H+6Ks1W0v/AJB8H+6Ks1JQUUUUFBRRRTAWim0ZpCEPWkbpSnrSN0qQITTGPFSNUTmgANFMLUUwNWkpaSsjQQ0UGigBKKKKACiiigBDSE0ppDQUJRSGkzQIkzSnpUYNOzxQMBSmkFFAC0ZpKKAHZozTM0ZoAkzSZpmaXNBI7NJRRQA8UtMBp9MBRS0Cg0ABqNqe3SoyaBDSabSmlWgoUUpooFAgFKaSlFACUtLRiqASiiigApppxppoEMNJmlammgBc09TxUdPU8UEmZ4s/5F+5/wB2vGj95vrXsviz/kX7n/drxo/eP1rx8d8R9zkP8Ni9hSgZYD6UnYU5OZU+orhp/Ej3sS7UpM+g/BMax+H7UKP4BVb4hTtD4enK5+4f6Va8FnOg2v8AuCqPxGRm8Oz7OeDX0j/gn5nSs8Wr9zwcfxH1zTVpR90H1o7Cvnvtn6Z/y5tHse4/DCNU8OR4HU1ueIHaPSrhlOCEJFcx8Jb5ZtD8vPzI3Sux1CEXVrJERnepFe/B3hofmdf3MU+bufNN07S3UructuOaiFa3ibSptL1W4jkQhS5IOKzErx5U5Kdz9Ao4il9X36Hsfwhu2n0Ty2/5Ztiu01JBJbuhGQVP8q5T4V6ZNYaMWnTYznPNdZfsqwsScAA17NL+Hqfn2JaliW4nzrr8H2bW7qIdFfineHtQk0rU47mNiAHGR6g07xJMs2u3rL93zOG/Cs6vGU+SrofeqiqmFSl2PpXS7xLyxinjOd4GK5/4i6et5oExYZaNSyn34p3w0mafwzbGQ5Kr/U1r+I4hNpM6nuhFe1P3oHwNJ+wxVl3PnHoWWlFOuF23Eo9GI/Wm181Ne8z9QoO9NPyGno1eu+Bv+Ret/wDcFeRHo1eueCP+Rftv90V6GD3Pnc++BG9RRRXrHxYlFLRQIbQKXFKBVAKKWkzSE0ABppNBNMY0gBmqJmodqhZqAHFqYzUhao2NAEF8f9Dn/wCubfyryWb/AF0n1r1i9P8Aoc3/AFzb+VeTTf66T61USGNopBRmrIFoNFFACCnCminCmAUUUbW27tpx60AIKcKaDThQAU4dKKc0bLtLKQDQAUUUUAFFFFABRmiigBfvfK3evZPBXhDTBpEM00IllcZyfpXjf93619DeEf8AkAWn+4P5UAJ/wjOk/wDPnH+QqhrnhDSrnTZlW3SNwpIZRzXTkVBff8ec3/XNv5UAfORtc6n9lDcGTaD+Ne2aF4R0uDT4PMtkdmUEkivGgP8AioE5/wCW4H619C2HFnB/uigDPXwtpC/8ucf5Vg+NfCWnDQ7ie3iWKSJCwKiu37Vj+L/+Rcvv+uRoA+ez29qSlb77+xpO1IAooooAKKSkzQAtJS0scUkn+rUsPagBtFFFABRRTvLk27trFPXbxTGNooooAKKKKQgooooAQ/dNSRf66P6j+dRn7pqSL/XR/UfzoA9o0v8A5B8H+6KsGq2ln/iXwf7oqfNSUPopB0paCgooopgB6Uw080xqQhCaQtSGmE1IAxqB6kJqM0AMaikaimBsUUUlZGoGiiigBDSUppKAFFFFFAB3phPNKajY80DAmmlqRjUZNAiyp4p1RRnipaBBRRRQMCaaTQTTc0xBmlzSU0mgB2acKYKeKAHilpopwoAFFPFIBTsUEiikNLTWNADXao+tDmkWgsUigHFFI1ADqUU0U4UAOooooAKKKKCQooopjENBoNJTEIajNSGmGgQ2nZoIppoJM/xX/wAi9c/7teOH7x+pr2HxWf8Ainrn/drx1ep+tePjfiR91kP8Ni0UHrRXnx+I+iqx5oNHvPw1uVn8NW+DkouDWn4ltTd6TPEozlTivP8A4O6pgS2LnGDuAr1F18yIqe9fS0mp0j8wxUHh8Tfsz5ovYTb3UsLDBRiMVXNdf8StFfTtZedI8RTclveuQNeHWhySP0PL66r0VJdjrvhxro0nU/JmfbFMcc9Aa9st5lmjDocg18zqxVgynBHINd/4K8dtabLXUCSnQPXdha6S5WfNZvlUnL2tM9G1vw7YayhW6iBYjG4dazNN8A6TZTiXyQxT7u7mtWx8R2F0A8c8Zz71Zk1iyUbjOn5132p7nzvLiIe5qWooliixGNqqMVyPxB8RJpumOkbL50g2qM1H4j8e2dlC62hE0gyNqmvJtZ1W41W7a4uWJJPC9lFctfEKMeWJ62WZXUrVFKroijIxkcs3LMcmkNGasafbPeXkVvEMvIcCvHp3lU1PtsQ1Rovske1/DCN4/DUAfutbmvOselXBbsho8PWa2GmQ24HKKM1mePbxLXQLks2CykCvonpTPzOP77Eq3c8Huzm5mPq5/nUdBO4knrk5/Ok7V81N3kz9RoLlppCHo1eueCv+Rftv90V5IejfSvW/BX/IvW3+7XoYPc+dz74EbZNKpoI4pQK9Y+MFooooICilppNMBGNRk0rGomagCQvUTP70xmqNmoGOZqjZqazUwtQA8mmk00vTC9AEd8f9Em/3T/KvKJf9a31NerXp/wBDm/3T/KvJ5f8AWt9TVRIYlFAoqyAooooAKlt4JbmQRQRmRz0AroPDXgvUdbYNtMMOeXYYr1zw14O0/Q4lbyxLOOrkUwOA8LfDae52zaqWjTrt9a6vxZ4c02w8K3KwW6h0QkNiu2HTA4FYXjmNn8N3QQbmKEAUAfPZGDirlhpt3fyiO1iLk9xXV+F/h7e6oyy3mYbf34JFeq6F4esNFgCWsKh8cuRzQBxPhf4bJFsn1ZstwfLo+Kmk2dnpETW0KxMMD5Vr0uuE+MP/ACBk/wB4UAePCgUUCgBaQ0vakNACig0Cg0AC/wAP1NfQ3hH/AJAFp/1zH8hXzyvb619DeEf+QBaf9cx/KgDXqC+/485v+ubfyqftUF9/x5zf9c2/lQB88/8AMwp/18L/ADFfQtj/AMesP+6P5V89f8zCv/Xwv8xX0LY/8esP+6P5UAWFrJ8Xf8i3e/8AXI1rLWT4t/5Fu9/65GgD56f/AFj/AFNIOn4U5/8AWP8AU00dPwpAJRRRQAUUUUANavS/hBZW11BdG4gjkCkD5hmvNiK9R+C//HpefVaAJfFfw4juGefSsRyHkp2rzTVNMu9Ln8q8hMZ9e1fSO2s3WdDstWhMd3CG9GxyKAPnTrXsHw50izvvCqC6hSTzCwJx81cv4q+Ht3pzNPYEyQ9cDtXcfC+OSLw0iyoUcO3BpjOW8U/Dd43afSW3jqYzXn95Z3FlKY7mMxsDjBr6UK/NWLr3hfT9YiYTRKJD0cdaAPn6iur8T+CL7SJHkhQywDkEc8VyhBU4YEEdjQAUGig0hCH7pp8X+uj+o/nTD0NPi/10f1H86APZ9L/5B0P+6KnHaodL/wCQbD/uipwORUlBRTsU00igzS0lApgPzxSGkzSGkAx6hY81K1QvUgFMbpSk0xjxTEMeihqKYGxmiiisjUQ0ZoNFAAaQUUooAKQ07tTTQAhqJzzTyaic80DGtTO9KTSd6BEydKlXpUMfSpl6UCHChqBQ1AyM02nmmmmIKQilpcUAIKcKTFOWgBwFPApFFOoAUCloFBoJEJpjGnE1GxoAY/NIKWjFBYA04jNNApwoAAKeKAKKAClpKd2oJGmig0UAFFFFUMDTadTaBDTRilooEMoNBoqhGV4o/wCQDdf7tePL1P1r2HxR/wAgG6/3a8eP3j9TXi434kfc5D/DYHrQOtFFeb1PpzS0HUn0rVoLpCRtPzAdxX0Do1/HfWMU8Th1dc5FfNteg/DLxT9lddOvJP3Z/wBWxr18FiNeRnyGfYDnXtoLY9B8X6HFrWnSQsoLYyp968I1bTp9MvHt7lCpB4z3FfSKMrICDkGue8WeFbXXrc7lCzAcMBXXicP7RXR4+V5o8HPln8J4HS9q1Nc8Oaho908c8TFB0cDqKy68Z0p0z7qniqNeKkmLFNLEfkldfoxFSm6nYczS/wDfRqAjNAOKn2kzT2VKX2UOLFj82Sfekpc5p0cElw4SFSzH0FEVObsE6lOjG+iGV6X8K/DDhhqd0hU/wg1W8E+BZbmVLvVF2rwyJ9K9YtLeO2hWOJQqqOgr08NhVFc0j4zNs1dV+yp7DhhRxXknxW1v7RdJYwvwnL4ru/GPiGHRtOkJYebs+Ue9eFX91Je3ktxKSWkYmrxlbljyIWR4B1Kntp7EFFFFeEfd2toJ2avXPBf/ACL9t/u15H2Net+Cv+Rftv8Adr08HufMZ/8AwzczS9qSg9K9Y+KFopuaCaAFLVGzUM1RsaYCM1Rs1DGoyaAAtTGNIWphNACk0wmgmm5oAQ0006mmgCO8/wCPSf8A3T/KvKpv9c/1Neq3n/HpP/un+VeVTf65/qaqJDEHSigdKKsgK0PD9zb2mr2812m+JWyw9qz6KAPo7w/q+mahbr/Z8i7cfd9K18+9fM2lapeaVMJbOd42Hoa9U8J/EaC8CQaoAkvQP2NMD0SqupXMFravJdAGIDJyKltriK4jDwOHU85BrF8ec+GbsZ6oaANTT721vIFazkR48cbfSrYr550LxFqGhuGtpmZM8r2r1Twp49sdVjSG6YQz9OehNAHZGuD+MP8AyA0/3q7pHV1DIQQe4rhfjD/yAk/3qAPH6KKKkAooopgLRRRTAVf4frX0J4S/5ANp/wBcx/Kvntf4f96voTwl/wAgG0/65j+VAGv2qC+/485v+ubfyqftUF9/x5zf9c2/lQB88D/kYk/6+F/mK+h7H/j1h/3R/Kvngf8AIwp/18L/ADFfQ9j/AMesP+6P5UAWKx/F/wDyLl9/1yNbFZHi/wD5Fy+/65GgD57f77/U0zt+FPk++/1NM7fhSASigUUAAp1MpQaAA16l8F/+Pa6+ory09K9S+DH/AB73f1FAHptJ1pCy9+BXJ+KPHNhpCtDA4mn6YHagDpLy5t7SEy3DhUAyWJ9Kg0e8tL63aexIMZJGR614V4g8T6lrTt9olKRc7VBr1b4Wf8itF/vNQB1/akps0scMReVtqr1JriPFHxEtNPRo9P8A30vTPYGmM6rWL+wsLZnv5EVcfdPevC/GV9aahqzS2EQjiHp3qpq2tX2sXDS3lwzZPC54FUKACiiigBP4qfD/AK+P6j+dM/j/AAp8P+vj+o/nSEe0aZ/yDYf92px1qDTP+QbD/u1OOtSUOoxSA804UihpFN71I1RtTAXNGajzS5pAI1RNT2NRMeakBjUw9Ke1MPSmISim0UAbXako7UlZmotL2pBR2oADSUUUAL2pDR2pGoAaetQt1qY9ahbrQMjPWgUHrQKCCROlSqeKiWpBTGSA0tMFLmgaEamU803FAAKdSCloAUU4UgpwFAh606kWlNAgprGgmmMaBIRmpuaaaKC0OzSimilFAC0maWkNAhQ1OzUXeng0wHZpc03iloELRSUUALSUUUAFJS0lMBvelzSGkzzQIVhTe1PHNIwpkmR4p/5ANz/u1491Z/qa9p1yLztKuU6/JXjMy+XPIp+VgSK8fHL3rn2+QzXJYaOlFFFeafVBQpZGDIcEUUU4txd0TOMZxafU9N8CePOEsdTPPRXPANelwXMU4BjYMp7ivmcEggg4Irq/DHje80dljnxLB05HIr2MPjVblkfFZhkernSPab2wgvEKzRq4PqK47Wfhvp93ue1/cOf7vArU0Xxrp2pxqfNETnqCwroYLuGZQY5FYexrvtSqI8C+Iwz6o8mn+GF8p/dXCEe9QD4Yanv+eeLH0NezhlPpSEr6Cs/qtI6lm+JStc8xsPhapx9rnyvcLXX6J4R0vS1Aht1Zh/ERk1umaMf3RWdf67YWcbNNOo2+h5q/Z06eyOeeJxWI0bZoKkcQwAFFYnirxNaaJZs8jjzMcIOprjvEfxITa0OmLub++eP1rzrU9QuNTuGmu5S7E8D0rmr4xQ0R6eAyapWkp1dEWNf1251y8aadjsz8i+lZtNAxTq8edT2juz7ihQjQjywCgdaKKxZ0CN0Net+Cf+Retv8AcFeS9eK9e8HxNFoNsGH8Fengtz5TP5e5Y2O1NJpaaa9Y+NFJppNBNMJoAQmmMaGNRsaAGsaYzUMajJ5oADTTTqaaBDTTTSmmmgBaKKKBkV5/x5z/AO4f5V5VN/rpPrXqt5/x5z/9cz/KvKpv9dJ9aqJDEoooqyAooooAWnCkAp4FAHQ+G/Ft/okqhZGeHupOa6/X/Hun6l4fkgVH891wR2rzCigBzH5TTVLo4eNirDow4oPSjtimB13hvx9f6Q6xXJM8A9etaPxB8XWeuaTFFZghsgkN2rz+loAWiiikAhoFBoFADqKKDTAcv8P1r6E8Jf8AIBtP9wfyr57X+H619CeEv+QBaf7o/lQBr9qgvv8Ajzm/65t/KrBqvff8ec3/AFzb+VAHzyP+RhT/AK+F/mK+h7H/AI9Yf90fyr54/wCZhT/r4H86+h7L/j1h/wB0fyoAsVj+L/8AkXL7/rka1s1j+Lz/AMU5e/8AXI0AfPsn+sf6mmdvwp7/AH3+ppnb8KQCCigUUAFFFFAAeld58NvEtlocFyLw43cj8BXB0UAdr4q8fXuqM0Nmxgt+mR1NcbI5dizkux6k0yigBeo5r0nwb4vsdF8MeTKxM8ZJ2fWvNaKAOk8S+NNR1iVlRzHD6A4rmXyzZY5J70UUAKAAKWikoAWiiimMP46fD/r4/qKZ/HT4f9fH9R/OkI9l0r/kGw/7tWcc1BpX/INh/wB2rPepKGnrS5oPWkJpDHdqa1OHSkamBCaTNOYVGaQwJ4qFzzUhNRtUgMNNNKaSmMSiiigRsikpe1JWZoFLSUtABSUtJQAdqa1KelNNACHrULdalNRN1oGMNFFFBI9akWo1p4NMbHg0tNBpRQCFoxSiloAaBSgUYpwFACgU4CgClxQIUUMaKa1AhpNNJoNNJoEgoApAactBaDFLQaKACikNFAhCKbk0+kxTEANLmjFFAC5pabS0AOopKWgApKWkoAQ03vTjSd6ZIq0N0oWhulMZE6eZGyn+IV5R4u017PUpGCYSQ5Br1msfxNo6arZMoX5wPlrixNLnWh6+V4v6vUSfU8ixgc0Vc1LTrmwmKXCEY79qp14s4ODsz9Bo14VY80WFFFFQbBRRmigOg9JGQ5QlT6g4q/aeItUsyBDcvj3NZtFaxrTjsznqYWlUXvROqg+IGtRKAXRgPWnSfEPWX6bB9BXJ0Vt9bqHJ/ZWGvflN258Ya3cE5uSoPpxWVcXdzdMWuJS5Pqag5pMVEsROW7OingqNP4UgoxRRWMtTq5eXZBRRRUFBR+lAVj/u1NaWs11MsMC7mY8d60hByehhWrxpRbZa8O2DalqcUQGQGyfpXsUKLb26QoMBQBWF4U0FdHtQ8gBncZY1uk5r2sNS5I6n5/meM+s1Pd2HZpKTNJmuw8gDTGNOJqNjQAxzURNPc1ExoAaxzUZp5ppoAM8U0mgmkoEIaaacaQ0AJRRRQBHef8ec/wD1zP8AKvKpv9dJ9a9VvP8Ajzn/AOuZ/lXlU3+uk+tVEljaKKKskKcBQBThQIUU4U0U4UAFFFFABRTqKAG0UUUwFooooAKKKKACiiigBc4r1jwZ440+HS47a8k8uRPl9q8nooA94/4TjQ/+fpf++qz9d8f6VFp8gtplkkZSoHWvFsCloAmFy0d+tz97Em6vZNE8e6RJpkBnm2SBQGBNeK03YM0Ae9f8Jzomf+PlfzrA8beN9Ol0eW2spfNkmUrx2ryYIKXaBQAMc5PqaaelKelI3SkAgpwpopwoASiiigAooooAKKKKAEooooAWiiigAooooAKKKKYwH3qfD/rU/wB4fzpg+9T4f9an+8P50hHs2lf8g2H/AHatd6q6V/yDYf8Adq13qShD1pCKO9LSGKOlIaWmtTAawqJhUxFRsKQyFqjapXFRNUgNNIaU0hpjG0UUUAbFFFFZ2LCiiigBKKKKAENNPWnE000ANNRvUjVE/SgBvelNNpaAFFPFMFOFMB4p60xakWgBQKXFC07FACCnUAUuKAFFOFNpRQSKelRtTzUbUAMNNIpTRQMAKcKSloAKWkopkiNSCg0lADqKKKACilpcUAJRSUtMBRS00UtADqQ0UhoGIaKDSUAOFI1CnmnEUCImpR0oYUDpQIoappFrqMZW4jDEjriuM1LwLKmXs3yv9016FSVlOjGW6O/D4+rQ2Z5BL4Z1WJ/+PdnHsKT/AIR3VP8Anzkr2D86PwP51g8HFnorPayWp4//AMI3qv8Az5yflR/wjWqf8+kn5V7BtX0/WjApfU4j/t6seP8A/COap/z6SflR/wAI5qn/AD7SflXsOFpflH8NP6nEf9u1jx3/AIRzVP8An2k/Kj/hHNU/59pPyr2LI/u0uR6Cj6nAP7drHjn/AAjmq/8APtJ+VH/COat/z6yflXseR6UY96PqcA/t2seOf8I5q3/PpJ+VH/COat/z6SflXsOPejHvS+qQGs+rI8e/4RzVv+fST8qcnhjVX+X7Mw+or1/HvRj3qfqcCXntZnm2meA7uVwbshU7iu00fQbLSY8QIDJ3YitPmitoUIQ2RwV8wq19GxM5ozSUma6DztQJphNBNNJpjAmmE0pNNJ4oAY5qInmnOajY0AIxppNBphPNADqKbRQIKKTNGaACiiigkhu/+PSb/cP8q8um/wBbJ9a9RvP+PWb/AHDXl03+tk/3qqIDKKXFGKsQ4UUoFKBQIAKcBQKWgApppxppoAKKKKACiiimAtFFFABRRRQAUUUUCCiiigAooooAWiiigAzRmiigBKKKKACiiigAooooAKKKKQBRRRQAUUUUAFFFFABRRRQAUUUUAHcU+3/16f7w/nTO4p9v/r0/3h/OgD2bTP8Ajxi/3RVoVX07/jxi/wB0VN3qSgPWkzR3pM0FDwaKaKdQA00xqeaY1ICNxULCp2qJhUgRmkNOPWmmmMZRS0UAbFFNoqCxaKKKAA0lITSE0ABpDSFqTNACPUT9Kkc1G1IBlOptOFAC04UynLTAlWnimLTxQA5aeKatPoAUUtJRQAUopKWgAaomqQ1E1ADTRRSigQCnUgFLQAlFAopkhimkU8UhFADaWkxRQA7NGabRQAtKKbThTAKWkoFADqSl7UhoGIaSg0UAC9akNRjrT6BDXFN7U9qYaBCUUUUAFFFFUAUYFFFAC8UtNooAdS5ptFADs0lJRUgLRSUUAJRRRQAZppoJpCaQ0IaaaU000FCGmE04mmNTEITTSaCaYTQAxutRnk1I9R0ANPSmmnGmmgQlFFFABRRRQAUUUUCEkXfG6+oIry7UI/LvZk9HNeprXn3iu1+z6o5AwH5FUhGOKXFFLViFApaBS0CDNGaMUUAJR3pcUuKAE7UlONNNABRRRTAWiiigAoooqQCiiiqEFFFFABRRRQAtFFFACUUUUAFFFFACUUUUALRRRQAUUUUAJRRRQAtFFFABRRRQAUUUUAFFFFAAan09fNvoU9SP51BW14OtPtOsRkjITk0gPUrceXbRr6AU/NISAoAoyMVJQZpM0Z5pM0DHg06mA04GgYppppxpppAMao2FSmmkUgIGFRsKnYVEwoGR0UtFAGrRRRUlhRRRQAhpjU40xzxSAbmkJpM0maAAnmkzSd6SgBDQDSGgUAOFOXrSLT1HNAEidKkFMWnigBwp4popwoEOoopDQAUmaDTTQIUmmE0pphoAKUUgpQKBi0ZpcUmKAFooooGKKWminCgBpFMNSkVG1MQ2ikpRQAU4UUUyBaKKMUAFFFFAxDTacabQAuacppuKVaYD8UxhUgprUAR0UHrRTEFFFFABRRRQAUUUUALRRRQAlFFFSAUUUUANooNFACGmmlNNJoKEJppNBNNJqRgTTGNKTTCaAEY0wmlY0wmgBrHJphNKxppqiQzSGkooGFFFFAgooooAKcBTVqVRQAgWsHxlppu7MSxr+8j5+tdGBTjGGGGAIPY0AeOkFSQeo60tdL4r0BrKU3Nuu6NySQO1c1VxIHClFIKWqEJRRQaAFFAoFAoAU0004000AFFFFAC0UUUwCiiipAKKKKAFopKKoQUUYoxQAtFNooAWiiigAooooASiiigBaKKKACiiigBKKKKACiiigBaKKKACiiigBKKKKAFr0bwNpf2KyNxOvzvz+Haud8JeHnv7hbm4U+SnIB7mvRCoRQqDCgYC1LY0hxcGjNRA+1OBpFj80E03NJmgY8Gng1EKcpoJJDSUUUxBSGlpDQAxqiYVKaYwqCiLFFOxRQM0aKKKksKQ0tNNACNUbnintUb0gGE0hNBppNABmlzUeacDQApoxQaWgBy1Iopi1KgoAcKeKaBTxQAop4popwoJFpKU000ABNMJoJppNBQtIaM0UAFKKSigQ8UU0GnCgApKWkoGFLSUooAWmkU6jFMRERSVIRTTQAmaAaSimQOFOFMBpc0ALRRRQMQ02nGm0AGaUGkxS0wJAaCKYDTwaAGEU2nmkNMBtFFFAgooooAKKKKAFooooAQ0hpTTTUgFFFFAAaQ0pppoAQ0wmnGmNQMaTTCaU0w1IwJpjGgmmE0DAmmk0E0wmgAJppNBNIaogTvS0lLQUJRRRQIKOtIaclADlFSLTFFSqKChwqQdKYoqVRQIa0SSoUkUMp6g1yeu+EPNZprADPXZXYgUtJSE0eO3VjdWkhWaIgj1WoM17LcWsFym2eJXrKn8LaZL/wAsAv0q1Imx5hRXob+C7Bvuu4/Go/8AhB7LPzSyfnQ5oaRwFJXoP/CD2P8Az1k/76o/4Qax/wCesn/fVTzMfKef0V6B/wAIPZ/89ZP++v8A61OXwPZ/89ZP++v/AK1UpCcTz2ivRP8AhBbL/nrJ/wB9f/Wo/wCEEs/+esn/AH1T5iTzvNGa9E/4QOz/AOesn50f8IHZ/wDPWT86OYLHnWT60ZPrXo3/AAgdl/z2k/Oj/hA7L/ntJ+dAWPOc+4pc+4r0X/hA7H/ntJ+dL/wgdj/z2k/OmI85z/tCj8RXo3/CB2P/AD1f86P+EDsf+ej/AJ//AFqAPOeP71HHrXo3/CB2X/PV/wA6P+EDsv8Anq/50Aec8UcV6N/wgdj/AM9X/Oj/AIQOw/56v+dAHnP40v416J/wgdj/AM9H/Oj/AIQOx/56v+dAHnefcUZ9xXon/CBWX/PZ/wDvqj/hArH/AJ7S/wDfVAHnX4ijNei/8IHY/wDPWT/vr/61H/CB2P8Az0f/AL6oA86zRmvRf+EDsf8Anq/50f8ACB2P/PV/zp3HY86z9KM/SvRf+EDsf+esn50v/CB2P/PWT86Ljsec5+lJmvSP+EDsf+eslRv4Esf+eslFxWPOt1ODe1d+PAun5/1slSr4E0//AJ6SUroLHne6jdXo3/CBWP8Az1ko/wCECsf+eslF0FjzndRur0dPAunr94u9XrfwppVuM/Z9596LoLHmVrZXV24W3gZyfauv0Pwa/wAsl+f+AV2EFnb264giVAPSn1LYWEt40tohFEAoA7Ukh5pSaYxpDEFOFM70ooAkFFHaiqKFFOFNFOFBI6gUUopiCmmnU00ANoxTsUYpWHciZaKeaKVh3LVFFFQaCGmGnmmGgBrGo2NOamGkAw0hNOI4qNutABThTacKAHUtJTsUAOWpkqJRUq0APFPFRipBQIUU4U0U4UE9RDTTTjTTQUMNJSnrSUDEFLSCloAWiiigAooooAdSU3NLmgApM0UUCHA06mCnCmAGmMKkpCKBEWDRTyKTFADaSnEU2qAXdRmkxRigBaUUlJ3qhMfikIozSE0CFFOFR7qcGqQH4pCKAacelAEdIxpT1ppoAKUUlKKYDhRRRQAUhozSVIAaQ0UUFBRRRQIQ9KjbrUh6VG3WgYjHio2NOao2NIQ0mmE0rGmE0hiMaYTSsaYTQMGNNNBNJTEJRRRTELTTQTSE0ALmjNNNAoKHAZpwFIoqQCpAVBUoFMUVIooAcgqUU1RxTqAHilxSLTxQAgFBFOFIaAG4pDTjTaYBRRRQMcKetMFOWhCJBSimilFWZj6KbmigBDRRRTAKUUUtAhaWkpaCgxSYpaQ0CExTacaSgAzRSUUAHFLxSUlBI402lNJTAcKKQUtBQgp46UwU4GkMWopKkprDNICDvUydKiI5qVOlSMlU8UhNIDSE1QBmmMeKUmmE8UAJmoiafmo2oATNIaSikACpFpgFSCgB3akNLTTTEKKeDUWacDQBKKWmA0uaokdSGig0AHammnGmmmIKKKKQyzRRRWRsBqJqeajY0ANamGlJphNIAJqNutOJppoAQ05abThQBIKeBTBUooAVRT1pFFPFACinqKaKkWgli0UUUEiGmtSk0wmgsQ9aSg0tAxKKKKAFooooAKKTNJmgkWkoozQAUZpKKBjhThUeacDTAfRSCnCgQ00008imkUAMJpDTsUYqgG0ClooAWiiimIMUbadmimIZtpdtOoqQEHFPHSoyeacp4oARqbTyKaRQAlKKSlFMBaQ0tNNABRRRUgGKMUtFBQhpppxppoEITxUbHmnMajPWgYjGomNPY1E5qQGsajJpzGo2NAxCabmhjTc0AKTSUhpRTEFFFFMBDTTSmmk0CFpQKRakUUFCqKeBQBTgKkBVFSoKaoqVRQA4U4DNNqRKAAClpQKXFACCloxRQAhptPpCKYDTTTTjTTQMcKctMFPWhEjxS9qQUtWQHelpKWgAooopgLS02loEOozSUUFDqQmkooEBpKKSgBaDSZooAKSg0lBIppKKBTAcKWkFLQUFFKKKQxKOtDUi0gI2HNOXpSOOaVelSMdmm5oNMzVAKTTSaDTTUgGaYacaYaAGmgUUCmA5aeKaKWgB1NNLTWpiGk0oNNNIDQBMpp+aiQ1JVEjgadTBTxQApptONNpgFFFFAFiiiisTYYaiapTUTUARtTDT3ph6UgG0tMzzSigBR1p4FNAqQCgAFSimAVIBQAoFPApBTwOlADlFSdqaBSmgli0hpe1NNBI1qZTm6U3vQWBpaQ0tAwooooAKQ0tNNBIU006kNACUUUUAFFFFAC0UUUxki9KcKjBp4NAhaaadTTTAbRTqKAGGkpxopgNooopgLThTacKCWKBSNQDSMaBCU4UzNKKBj80hpM0vagBhpRSUooBi0006mmgAFBoFBpAL2pKXtTTQMQmmk0E0wmgBCaYTzSsaiJpDFY1ExpWNRsaQDSaaTQaQnikMQ02lpKACiiimIKKKKAEIpCtPFOApgMRaeBTlFLigAp6UmKclSMetSLUY61ItADqkSo6kSgBe9LSUUAPpKSigApKdRikAw02nkUmOaBgKUUAU4CqRDFHSiiirJHUU2igB1FNooAdRRRTAKKKKAFooooADSUppKAAUGgUGgBKKKKBCd6UUnelFNgKKWkFLUjFFFAopDEooooAQ03OKGNRM1Ax5amE0wtSZoAeaaad2ppoAQ000ppDSASiiimAtFJmjNAC0GkzSZqgCjNNooAmTpT6YnSn0yBRTgaYDSg0ASUlANLTASiiigCxSNRRWJsNNRv1oooAieo3oopAMpRRRQBItSCiigBRUq9KKKAHCpB2oooAcKWiigkKb3oooENem0UUFBS0UUDCiiigApKKKCQpKKKBMKKKKCRKSiigtC0UUUxhT1NFFADqKKKYgpKKKAEpDRRTAQ0lFFMBacOlFFBMhKSiiglCUUUUFCinDpRRQAlFFFABTTRRTQAKDRRUgFRvRRQMjNNNFFADGqM0UUDGtUZooqQGmmNRRSGJSUUUAFFFFMQUUUUALTx0oopgKvWpBRRQAU5OtFFSMcOtSLRRQA4U8UUUAPFJRRQAtJ3oooAcKKKKQCGm96KKBjhTxRRVIhietFFFWSFFFFABQKKKAHUUUUwCiiigBaKKKAA0lFFABRRRQAlFFFAhKUUUUMBaWiikMKKKKBhTaKKAEaoXoopDIqWiigCTtTTRRQAw0HpRRSAZS0UUwG0UUUAFFFFABRRRTEyZOlPooqiQooooAcKdRRTAKKKKAP//ZmfJm+AAAAADQ9Ct2VdscgH9wQj/v8oGG;" vertex="1" parent="1">
          <mxGeometry x="1170" y="780" width="1143" height="1143" as="geometry" />
        </mxCell>
        <mxCell id="Uki38D9uEgve1m1uZz5Z-3" value="" style="rounded=1;whiteSpace=wrap;html=1;strokeColor=none;fillColor=#615F5D;" vertex="1" parent="1">
          <mxGeometry x="1870" y="1560" width="300" height="60" as="geometry" />
        </mxCell>
        <mxCell id="Uki38D9uEgve1m1uZz5Z-4" value="&lt;font style=&quot;color: rgb(245, 245, 243);&quot;&gt;我该如何追问&lt;/font&gt;" style="text;html=1;align=center;verticalAlign=middle;whiteSpace=wrap;rounded=0;fontSize=41;fontFamily=Verdana;" vertex="1" parent="1">
          <mxGeometry x="1890" y="1580" width="280" height="30" as="geometry" />
        </mxCell>
        <mxCell id="Uki38D9uEgve1m1uZz5Z-8" value="" style="rounded=1;whiteSpace=wrap;html=1;strokeColor=none;fillColor=#5E5F5A;" vertex="1" parent="1">
          <mxGeometry x="1875" y="1620" width="300" height="60" as="geometry" />
        </mxCell>
        <mxCell id="Uki38D9uEgve1m1uZz5Z-7" value="&lt;font style=&quot;color: rgb(142, 142, 140);&quot;&gt;最热烈青春&lt;/font&gt;" style="text;html=1;align=center;verticalAlign=middle;whiteSpace=wrap;rounded=0;fontSize=36;" vertex="1" parent="1">
          <mxGeometry x="1880" y="1635" width="280" height="30" as="geometry" />
        </mxCell>
      </root>
    </mxGraphModel>
  </diagram>
</mxfile>
